/* XPM */
static char *_3c5ddd59a604b35bc36bb6112af0e25D42WKljHwf0ytCKn[] = {
/* columns rows colors chars-per-pixel */
"30 50 218 2 ",
"   c #160D0D",
".  c #190E0E",
"X  c #130900",
"o  c #1D120E",
"O  c #17140F",
"+  c #130D11",
"@  c #161216",
"#  c #1C1214",
"$  c #1C1519",
"%  c #1C191C",
"&  c #1D1815",
"*  c #0E080C",
"=  c #200E0A",
"-  c #2C160E",
";  c #211414",
":  c #2A1711",
">  c #241A14",
",  c #20171A",
"<  c #231A1B",
"1  c #291E1B",
"2  c #2C1913",
"3  c #311E17",
"4  c #24211C",
"5  c #2C231E",
"6  c #32211B",
"7  c #39251C",
"8  c #1D1E26",
"9  c #1F1D2A",
"0  c #211D24",
"q  c #231D2B",
"w  c #331F20",
"e  c #1E2125",
"r  c #1E2329",
"t  c #252224",
"y  c #2C2323",
"u  c #23232B",
"i  c #2A252C",
"p  c #2D2B2D",
"a  c #2B2821",
"s  c #322522",
"d  c #392623",
"f  c #332922",
"g  c #3D2B24",
"h  c #342B2B",
"j  c #3C2D2B",
"k  c #3B322D",
"l  c #262431",
"z  c #282531",
"x  c #2D2B34",
"c  c #2E2E38",
"v  c #262932",
"b  c #332D33",
"n  c #3A2F31",
"m  c #2E3138",
"M  c #2D3037",
"N  c #343134",
"B  c #3D3333",
"V  c #34343B",
"C  c #3B363B",
"Z  c #34383F",
"A  c #3C383E",
"S  c #3E3936",
"D  c #48291D",
"F  c #442C25",
"G  c #4A2E24",
"H  c #422D2A",
"J  c #43322D",
"K  c #4C342B",
"L  c #4B3126",
"P  c #5C3325",
"I  c #52362B",
"U  c #59352A",
"Y  c #52392E",
"T  c #59392B",
"R  c #443433",
"E  c #4B3633",
"W  c #433A34",
"Q  c #4C3A36",
"!  c #453C39",
"~  c #4A3C3A",
"^  c #543A34",
"/  c #5C3C33",
"(  c #533E3B",
")  c #573A36",
"_  c #653A2A",
"`  c #643926",
"'  c #623C32",
"]  c #4D433C",
"[  c #53423E",
"{  c #5D433B",
"}  c #5D473A",
"|  c #6E472F",
" . c #71472E",
".. c #644335",
"X. c #6E4635",
"o. c #6F4932",
"O. c #63453A",
"+. c #62493E",
"@. c #6B4B3D",
"#. c #684638",
"$. c #714433",
"%. c #754A32",
"&. c #7A4C36",
"*. c #734B3B",
"=. c #794E3A",
"-. c #714739",
";. c #75513B",
":. c #7D543C",
">. c #785037",
",. c #363A40",
"<. c #373C42",
"1. c #393A41",
"2. c #393C43",
"3. c #3B3A42",
"4. c #3F3F49",
"5. c #423F45",
"6. c #4D4342",
"7. c #4D494D",
"8. c #474348",
"9. c #534543",
"0. c #554B45",
"q. c #5D4943",
"w. c #564C4A",
"e. c #5A4E4B",
"r. c #584642",
"t. c #5C524D",
"y. c #54504D",
"u. c #4D4B50",
"i. c #5D5552",
"p. c #634740",
"a. c #614D45",
"s. c #644F4A",
"d. c #6B4C43",
"f. c #704D41",
"g. c #6C5142",
"h. c #62524C",
"j. c #6A544A",
"k. c #725243",
"l. c #7A5544",
"z. c #7C5946",
"x. c #74594B",
"c. c #7A5D4E",
"v. c #77564B",
"b. c #635654",
"n. c #645A54",
"m. c #655E5C",
"M. c #6B5D5B",
"N. c #6A5854",
"B. c #765E54",
"V. c #715F5B",
"C. c #6E635E",
"Z. c #7A635C",
"A. c #776357",
"S. c #685F60",
"D. c #6C6562",
"F. c #716361",
"G. c #756B65",
"H. c #7A6C66",
"J. c #746C69",
"K. c #7B6E69",
"L. c #7C736D",
"P. c #73726B",
"I. c #7D7A72",
"U. c #7D7571",
"Y. c #824F3C",
"T. c #81533C",
"R. c #815C4B",
"E. c #875745",
"W. c #83604D",
"Q. c #826457",
"!. c #8B6957",
"~. c #84665F",
"^. c #8C6A5C",
"/. c #8A675A",
"(. c #906D5C",
"). c #926454",
"_. c #93705D",
"`. c #876E6B",
"'. c #83736C",
"]. c #897368",
"[. c #937368",
"{. c #927567",
"}. c #827670",
"|. c #857C75",
" X c #837E78",
".X c #887F78",
"XX c #897974",
"oX c #907C7B",
"OX c #8C8177",
"+X c #85817A",
"@X c #8D837C",
"#X c #93877C",
"$X c #A7897E",
"%X c #8D8A83",
"&X c #918780",
"*X c #948B84",
"=X c #998C84",
"-X c #988F88",
";X c #978C88",
":X c #96938B",
">X c #9C938C",
",X c #9D9A93",
"<X c #969590",
"1X c #A38C82",
"2X c #A4948B",
"3X c #A9978C",
"4X c #AC9A8F",
"5X c #A8968A",
"6X c #A09790",
"7X c #A49B93",
"8X c #A89F98",
"9X c #AA9B91",
"0X c #B2978E",
"qX c #ABA39B",
"wX c #A6A39C",
"eX c #B5A397",
"rX c #A8A8A1",
"tX c #B1AAA2",
/* pixels */
",.Z Z Z V m c x c c c x x z z z u l z l u 9 9 9 q q q 0 0 0 ",
",.,.Z Z V m m M c c c c x x x x v z z z l l l l q q q 0 0 0 ",
"<.<.,.Z Z V V V b c b b c x x x z z z z z z z z q q q 0 0 0 ",
"2.2.2.,.Z V V V b b b b p p i i i u u z z z l u q q q 0 0 0 ",
"2.2.2.,.Z V V V b b b h i y 0 0 0 0 0 u i z u q q q q 0 0 0 ",
"2.2.2.2.A C C C b n n n h h h h y t 0 0 i i z l u u q 0 0 0 ",
"2.,.2.2.A C C C n n n R E ~ ( 9.~ B y 0 t i i z u u q 0 0 0 ",
"2.,.2.A C C C B h j R ~ [ a.s.j.N.9.B y 0 t u u u u q 0 0 0 ",
"4.3.2.2.A B n B j R E E ^ ) p.j.s.h.9.B h N b 0 u 8 8 8 8 8 ",
"4.3.2.3.A B B R j H E ^ ^ / O.d.j.h.a.e.w.6.b t e 8 8 8 8 8 ",
"4.3.2.3.A B B R J E ) / / ' #.@.@.j.a.Q k k N p e 8 8 8 8 8 ",
"4.2.2.A C B R E ( / / ' ' ' $.*.@.x.} 7 6 R S t e e 8 8 8 8 ",
"3.2.3.A C B R ^ { / / U P _ $.-.z.k.O.{ t.t.S % e e e 8 9 9 ",
"3.2.3.A C B E ( ( / U P ` _ $.%.*...@.B.e.f < p t e r r r u ",
"2.2.3.A C R E ( { / ' _ $.&.Y.E.-.@.k.+.7 X O N t r r r u u ",
"2.2.3.3.C R E ( O.#.-.=.E.E.).).!.^.x.Y g k h @ u u u u u u ",
"2.V 3.V C B j p.*.X.$._ _ =.^.^.^.(.Q.} g y y t N u u x V V ",
"2.V 3.V C B H +.*.-.&.%.-.R.[.[.^.!.c.+.H 1 0 0 z u x C A b ",
"2.V 2.V C B j +.k.=.T.&.X.*.v.v.c.k.O.Y d ; @ % z c 2.8.5.b ",
"3.V 2.N N n d { l.=.:.%.` U / I ../ L 7 : ; $ @ i b 5.7.8.b ",
"3.V C x b h 6 ) k.%.&.%.P P / / I T G - = > < @ % i 3.u.8.N ",
"A N V i i y 2 I l.=.:.&.` P / / I Y F : = ; $ + @ 8 V 7.7.C ",
"N p p t t 1 : K R.:.T.&.P D L K K G F g 3 o   @ $ $ t B S b ",
"h y i < < 1 : I z.>.T.:.` D G K Y D F ( R ;   y % + * @ , , ",
", N % t t s - T z.:.=.:.l.U F ^ F g K q.[ 5 # , , < , , $ $ ",
"y h t y 5 ; 3 O.R.:.&.:.R.@.K K F H Q e.9.g > > . # @ # $ , ",
"N h h h y > L x.R.:.%.:.(.Q.{ F J Q r.t.0.J 1 ; # # # # # # ",
"B k h B 5 J a.Q.z.:.%.>._.{.j.K Q 9.h.h.9.R y o ; ; # # # # ",
"h k y B 5 t.j.x.:.:.%.%.!.{.B.r.9.i.N.b.w.6.j 1 ; .   . # ; ",
"f k 5 k R h.} O.;.:.%.o.W.^.A.N.b.N.n.N.b.e.9.~ s 1 ; . # $ ",
"f f k W G.h.} #.;.;. .| z.A.B.V.F.M.n.n.N.N.b.b.0.~ h 1 , , ",
"k 1 ] ] 3Xa.g.z.;.=.| o.l.x.N.V.K.C.b.b.b.b.n.M.N.w.W h y y ",
"s E Q 1X$X@.R.R.=.X._ *.Q.Z.Z.XX@XL.t.n.n.w.M.0.w.n.C.n.W 5 ",
"E [ q.0X$Xl.R.l.*.X...f.~.`.`.oX&X|.n.n.n.b.n.t.H.H.L.C.0.k ",
"j H ^ 1X~.k.l.*.X.X...d.~.].'.XX=X*XL.t.b.n.t.C.|.L.L.L.F.n.",
"Q J s.1Xx.k.z.;.@.@...+.A.`.K.K.;X>X@X0.] 9.W L.|.L.L.|.}.L.",
"9.[ '.4XB.x.g.@.@.@.{ +.Z.'.K.}.@X>X;X0.k f f L.@X|.|.|.|.K.",
"~ ] =X9XXX].A.c.g.+.{ a.Z.K.'.@X;X6X>XG.W > j L.@X.X.X|.L.H.",
"9.] 7X=X4X3X1X5X].A.j.A.'.H.L.:X6XwX7X;Xt.5 ] |.@X|.|.|.XXL.",
"0.W *XZ.2X3X5XeX4X#X'.OX@XL.U.,X7X7X6XwXG.f w.L.;X@X.X@X.X|.",
"0.~ }.H.=XXX3X9X2X#XOX#X@XI.+X,XqX8X>X7XH.f t.;X&X;X;X@X|.|.",
"] ~ L.C.XX'.-X>X>X@X|.+X|.I.%XwXqXwX7X;X] 1 n.@X@X&X&X|.|.|.",
"Q ~ '.M.L.}.-X-X=X&X@X+X X+X%X,X-X>X7X|.f h |.&X@X&X*X&X@X@X",
"H Q K.M.H.XX;X*XJ.J.L. X%X:X:X>XtXqX>Xt.o s C.XX&X;X-X-X>X>X",
"d R F.N.D.L. XU.m.C.D.I.<XrXrXwX>X&Xn.1 ; f 0..X@X@X&X-X>X>X",
"j H b.b.N.G.J.D.J.m.y.i.D.P.P.P.9.0.k 5 ] 9.~ }.@X@X&X>X>X>X",
"H d ( w.e.D.M.D.i.S 4 < 4 4 a k ] ] 9.] t.] f 0.@X@X&X>X7X6X",
"w ; d Q 9.b.b.m.B <   & < 4 B t.i.] 0.! k k B t.@X@X@X>X7X6X",
"h ; . < > s B B h h k B ~ 6.6.6.9.9.6.6.6.6.6.] @X&X*X>X>X6X",
"h # . ; , 1 h j B R ! ~ 9.w.w.w.e.e.i.i.e.w.w.w.XX.X&X-X>X6X"
};
