/* XPM */
static char *_66b3affe7ce42d1facfb42790a24c0385qZ7KBsofiYEfQY[] = {
/* columns rows colors chars-per-pixel */
"64 64 198 2 ",
"   c #090909",
".  c #120C0C",
"X  c #1A0E0F",
"o  c #0E0E10",
"O  c #170E10",
"+  c #1B0E10",
"@  c #0F1012",
"#  c #121214",
"$  c #15151A",
"%  c #18171C",
"&  c #17181D",
"*  c #19191E",
"=  c #241113",
"-  c #281214",
";  c #221E1B",
":  c #37161A",
">  c #1C1C23",
",  c #201F23",
"<  c #351D23",
"1  c #1F2027",
"2  c #1F2028",
"3  c #232125",
"4  c #23232C",
"5  c #2A252C",
"6  c #2B2A2C",
"7  c #34242A",
"8  c #3C232A",
"9  c #342E2E",
"0  c #3D342F",
"q  c #252730",
"w  c #2B2731",
"e  c #272832",
"r  c #2A2B35",
"t  c #2D2F3B",
"y  c #332E34",
"u  c #3A2D38",
"i  c #2F313C",
"p  c #34343C",
"a  c #383539",
"s  c #41191D",
"d  c #481D22",
"f  c #531F24",
"g  c #482228",
"h  c #5B2127",
"j  c #55242A",
"k  c #5D2228",
"l  c #4A2B34",
"z  c #483639",
"x  c #433D3D",
"c  c #5B363B",
"v  c #64242B",
"b  c #68252C",
"n  c #66292F",
"m  c #712D34",
"M  c #7B2D34",
"N  c #65383D",
"B  c #353741",
"V  c #3C3B43",
"C  c #3D3D48",
"Z  c #403E46",
"A  c #643E40",
"S  c #733C42",
"D  c #3F404A",
"F  c #444244",
"G  c #4C4545",
"H  c #44434B",
"J  c #48474E",
"K  c #4E4A4E",
"L  c #584B47",
"P  c #534B4D",
"I  c #474751",
"U  c #4E4D56",
"Y  c #504F56",
"T  c #4F505A",
"R  c #575357",
"E  c #55545B",
"W  c #5B5A5E",
"Q  c #71494F",
"!  c #635654",
"~  c #695A57",
"^  c #70605B",
"/  c #575861",
"(  c #5C5C63",
")  c #675D63",
"_  c #7F5B61",
"`  c #6B6263",
"'  c #65646B",
"]  c #67666B",
"[  c #72696B",
"{  c #756B69",
"}  c #736E72",
"|  c #717076",
" . c #74747A",
".. c #7A787C",
"X. c #812F36",
"o. c #873239",
"O. c #8A333A",
"+. c #93373E",
"@. c #953840",
"#. c #9C3A42",
"$. c #8A514F",
"%. c #86726A",
"&. c #89736C",
"*. c #887676",
"=. c #8E7B73",
"-. c #83797C",
";. c #90797A",
":. c #A4706D",
">. c #94827C",
",. c #9E857B",
"<. c #9A867E",
"1. c #A68779",
"2. c #A4897E",
"3. c #7D7C82",
"4. c #817F83",
"5. c #7F808A",
"6. c #828284",
"7. c #83838A",
"8. c #8C8C8E",
"9. c #998883",
"0. c #9A8A83",
"q. c #8D8D91",
"w. c #959395",
"e. c #99979A",
"r. c #A58F82",
"t. c #AC8F83",
"y. c #A99287",
"u. c #B29385",
"i. c #BA9586",
"p. c #B29689",
"a. c #B3998D",
"s. c #BD9C8D",
"d. c #A79892",
"f. c #AD9A92",
"g. c #B79991",
"h. c #ABA09C",
"j. c #B9A499",
"k. c #9E9DA4",
"l. c #A29EA0",
"z. c #A4A3A6",
"x. c #A8A7AC",
"c. c #B2ADAE",
"v. c #AFADB5",
"b. c #B3B3B6",
"n. c #B4B2B9",
"m. c #BBBBBE",
"M. c #C59E8E",
"N. c #C5A18F",
"B. c #C5A393",
"V. c #CCA693",
"C. c #CFA895",
"Z. c #C7AA9B",
"A. c #C4AB9D",
"S. c #D1A995",
"D. c #D4AD9A",
"F. c #D7B19E",
"G. c #D9B29D",
"H. c #C3AEA2",
"J. c #CCB2A4",
"K. c #CAB4A9",
"L. c #CFB9AC",
"P. c #DBB6A2",
"I. c #D6B8A8",
"U. c #DCBDAB",
"Y. c #CABFBA",
"T. c #E0BFAD",
"R. c #D7C0B2",
"E. c #DCC2B3",
"W. c #E0C1AF",
"Q. c #E4C5B3",
"!. c #E8C7B4",
"~. c #E9C9B7",
"^. c #E7CBBA",
"/. c #EBCDBC",
"(. c #ECD0BF",
"). c #BEBEC0",
"_. c #C0BFC2",
"`. c #C2C2C4",
"'. c #C9C7C9",
"]. c #D1CFCF",
"[. c #CECED2",
"{. c #D0CFD1",
"}. c #D4D2D3",
"|. c #D6D6D9",
" X c #DBDADB",
".X c #EDD2C1",
"XX c #DFDFE1",
"oX c #E3E2E3",
"OX c #E7E7E8",
"+X c #EFEEEE",
"@X c #F0EFEF",
"#X c #F0EFF0",
"$X c #F4F4F4",
"%X c #F8F7F7",
"&X c #F9F9F9",
"*X c #FBFAFA",
"=X c gray99",
"-X c white",
/* pixels */
"-X-X-X+X+X&X-X-X+X+X$X-X-X$X+X$X-X-X$X+X+X&X-X-X@X+XXX`.'.6./ C C I 7.).'.&X-X-X+X+X$X-X-X$X+X$X-X-X$X+X+X&X-X-X@X+X$X-X-X+X+X+X",
"-X-X-X+X+X&X-X-X+X+X$X-X-X$X+X$X-X-X$X+X+X&X-X-Xb.U E U U U U U U U U U T '  X-X+X+X$X-X-X$X+X$X-X-X$X+X+X&X-X-X@X+X$X-X-X+X+X+X",
"$X$X$X&X&X$X$X$X&X&X%X$X$X$X&X&X$X$X$X&X&X Xq.( U J I I Z U U U U U U U U Y I e.$X&X%X$X$X$X&X&X$X$X$X&X&X$X$X$X&X&X$X$X$X&X&X&X",
"+X+X+X-X-X$X+X@X-X-X&X+X+X$X-X-X$X+XXX..H U U J Z * H J r U U U U U U U U Y Y Y 7.&X&X+X+X$X-X-X$X+X$X-X-X$X+X+X-X-X&X+X+X-X-X-X",
"$X$X$X&X&X$X$X$X&X&X&X$X$X$X&X&X$X#X8.U V Z U H > > r J 3 U U U U U U U Y U U U U Y.&X$X$X$X&X&X$X$X$X&X&X$X$X$X&X&X$X$X$X&X&X&X",
"-X-X-X+X+X&X-X-X+X+X$X-X-X$X+X$X-X+XU U r > p w I e.x.J | K U U U I U U U U I U U J $X-X-X$X+X$X-X-X$X+X+X&X-X-X@X+X$X-X-X+X+X+X",
"-X-X-X$X$X&X-X-X$X$X$X-X-X$X$X$X&Xx.U U > > E k.v.XX+XJ | 0.B U J V U U U U U J U U 7.-X-X$X$X$X&X-X$X$X$X&X-X-X$X$X$X-X-X$X$X$X",
"+X+X+X-X-X$X+X@X-X-X&X+X+X$X-X-X$XU U U 6 } n.' w...}.p | n.J I H B U U U U U > U U 3.$X+X$X-X-X$X+X$X-X-X$X+X+X-X-X&X+X+X-X-X-X",
"+X+X+X-X-X$X+X@X-X-X&X+X+X$X-X-X}.U U U a e.3.` a [.oXB W 5.a H H B U U U C U > U U  .OX+X$X-X-X$X+X$X-X-X$X+X+X-X-X&X+X+X-X-X-X",
"-X-X-X+X+X&X-X-X+X+X$X-X-X$X+X$X4.J U D 6 E 7.) z.C E p ! P.2.y H w U U U 4 U > C U '  X-X$X+X$X-X-X$X+X+X&X-X-X@X+X$X-X-X+X+X+X",
"-X-X-X+X+X&X-X-X+X+X$X-X-X$X+X$X3.U H B a -./ Y t.u.E.G * c ~ 6 y 3 U U U 4 I <.-.U ' oX-X$X+X$X-X-X$X+X+X&X-X-X@X+X$X-X-X+X+X+X",
"&X&X&X$X$X$X&X&X$X$X$X&X&X$X$X$X' I p p 3 ` &.U./..Xr.0.Q ! :.6 > * U U H 3 p 0.>.U  .+X&X$X$X$X&X&X$X$X$X&X&X&X$X$X$X&X&X$X$X$X",
"+X+X+X-X-X$X+X@X-X-X&X+X+X$X-X-X( I * w 5 6 3 j..XK.M.Z.j..X.Xx , 4 U U p * x S.t.E 3.$X+X$X-X-X$X+X$X-X-X$X+X+X-X-X&X+X+X-X-X-X",
"$X$X$X-X-X$X$X$X-X-X&X$X$X$X-X-X' I > 4 G 0.~ *.Q.(./.U.I..X/.%., 9 U U 4 3 %.0.0.I | $X$X$X-X&X$X$X$X-X-X$X$X$X&X-X&X$X$X-X-X-X",
"-X-X-X+X+X&X-X-X+X+X$X-X-X$X+X$Xq.I > > % 1.Q.A.W..X.X!./.L.^.0.9 9 U U 4 a B.L.P J  .-X-X$X+X$X-X-X$X+X+X&X-X-X@X+X$X-X-X+X+X+X",
"-X-X-X+X+X&X-X-X+X+X$X-X-X$X+X$Xz.p > > % 1.V.s.(..X.X(.(.p.r p p t i i t r 7 3 > J b.-X-X$X+X$X-X-X$X+X+X&X-X-X@X+X$X-X-X+X+X+X",
"+X+X+X-X-X$X+X@X-X-X&X+X+X$X-X-Xx.B , > * G S.s.0.} [ t t t t t t t t t t t t t t r T 3.3.$X-X-X$X+X$X-X-X$X+X+X-X-X&X+X+X-X-X-X",
"+X+X+X-X-X$X+X@X-X-X&X+X+X$X-X-Xw.W 9 > > * J r t t t t t t t t t t t t t t t t t t t t t w m.+X$X+X$X-X-X$X+X+X-X-X&X+X+X-X-X-X",
"-X-X-X$X$X&X-X-X$X$X$X-X-X$X$X$X`.c.6 w 3 t t t t t t t t t t t t t t t t t t t t t t t t t t | &X-X$X$X$X&X-X-X$X$X$X-X&X$X$X$X",
"-X-X-X+X+X&X-X-X+X+X$X-X-X$X+X$X-X[.g 3 t t t t t t t t t t t t t t t t t t t t t t t t t t t w.-X-X$X+X+X&X-X-X@X+X$X-X-X+X+X+X",
"-X-X-X$X$X&X-X-X$X$X$X-X-X$X$X$X Xt 4 4 t t t t t t t t t t t t t t t t t t t t t t t t t t t &X&X-X$X$X$X&X-X-X$X$X$X-X-X$X$X$X",
"+X+X+X-X-X$X+X@X-X-X&X+X+X$X-X{.C r > n t t t t t t t t t t t t t t t t t t t t t t t t t t r -X$X+X$X-X-X$X+X+X-X-X&X+X+X-X-X-X",
"@X@X@X-X-X$X@X@X-X-X&X@X@X$X-X_.t q o j t t t t t t t t t t *.d.{ H t r 4 > > 1 r t t t t t ).-X$X@X$X-X-X$X@X@X-X-X&X@X@X-X-X-X",
"-X-X-X+X+X&X-X-X+X+X$X-X-X$X+XoX( #   4 w t t t t t t t r /..X(..X~                 > t t r  X$X-X-X$X+X+X&X-X-X@X+X$X-X-X+X+X+X",
"-X-X-X+X+X&X-X-X+X+X$X-X-X$X+X$X'       < 4 t t t t t t -..X.X.X.XH.      > 4 4 4 4 4 4 t F oX$X-X-X$X+X+X&X-X-X@X+X$X-X-X+X+X+X",
"+X+X+X-X-X$X+X@X-X-X&X+X+X$X-X-X[.      +     # 4 4 r r 0./..X.X/.Y.t t r t t t t t t t t 4 4 `.$X+X$X-X-X$X+X+X-X-X&X+X+X-X-X-X",
"+X+X+X-X-X$X+X@X-X-X&X+X+X$X-X-X$X4     X X             =.Q..X.X.Xr.t * t t t t t t t t t t 4 a  X+X$X-X-X$X+X+X-X-X&X+X+X-X-X-X",
"&X&X&X$X$X$X&X&X$X$X$X&X&X$X$X$X&X].    . .             >.S.Q..X.X~ 4 t t t t t t t t t t t t r E &X$X$X$X%X&X&X$X$X$X&X&X$X$X$X",
"-X-X-X+X+X&X-X-X+X+X$X-X-X$X+X$X-X$XF     -         o 4 ' S.S.S.D.{ t t t t t t t t t t t t t t t B  X+X+X&X-X-X@X+X$X-X-X+X+X+X",
"-X-X-X+X+X&X-X-X+X+X$X-X-X$X+X$X-X'.#     #       $ t t 4 C.S.S.B.R t t t t t t t t   4 t t t t t t p OX+X&X-X-X@X+X$X-X-X+X+X+X",
"+X+X+X-X-X$X+X@X-X-X&X+X+X$X-X-X$X6     < 7 > > 4 t q &   p.S.S.F.} t t t t t t *   # r t t t t t t t q }.$X+X+X-X-X&X+X+X-X-X-X",
"+X+X+X-X-X$X+X@X-X-X&X+X+X$X-X$XF       : l r e e         C.D.F.Q.} t t t t 4       $ t t t e w t t t t ' OX+X+X-X-X&X+X+X-X-X-X",
"-X-X-X$X$X&X-X&X$X$X$X-X-X$X-X6         X O           o 4 S.(..X.XR.K.K.H o         4 t t o 4 t t t t t t l.-X-X$X$X$X-X-X$X$X$X",
"-X-X-X+X+X&X-X-X+X+X$X-X-Xm.# $ o       + X         $ t e V.Q..X/.Q..XF.~.          r $   4 t t t t t t t r |.-X@X+X$X-X-X+X+X+X",
"@X@X@X-X-X$X@X$X-X-X&X$Xm.  r t t       :         * t i <.S.S.Q.S.D..X.X.XA.3     > 4   t t r > 4 r t t t t B @X-X-X&X+X@X-X-X-X",
"+X+X+X-X-X$X+X@X-X-X-X6.  r t t t t $ X .       4 t t V Q.S.S.S.s.J..X.X/.Q..Xh.  r > r t >         # 4 t t U $X-X-X&X+X+X-X-X-X",
"$X$X$X&X&X$X$X$X&X&X..  4 t t t t t t m & 4 t t t t r j.Q.=.Q.D.p.Q..X.XL.P./.^.F t t e $               # r U $X&X&X$X$X$X&X&X&X",
"-X-X-X+X+X&X-X-X+X'.  4 t t t t t t l t t t t t p F Z.F..XS.s.D.P./..X.Xy.!..X!.a.p #                     > U -X@X+X$X-X-X+X+X+X",
"-X-X-X+X+X&X-X-X$X6   4 t t t Z 0.h.g.f.f.y.y.a.I./..X.X.X.XZ.=.U..X.XK.I..X.X.XE.A.%                     4 J -X@X+X$X-X-X+X+X+X",
"+X+X+X-X-X$X+X@X+X3   * t t t ` P.S.P.Q.G.S.S.S.S.B.T..X.X.XQ.G./..X.XU./..X.X2.^..X4 t # # #           $ t I +X-X-X&X+X+X-X-X-X",
"+X+X+X-X-X$X+X@Xw.    o t t t ! D.S.S.S.S.S.V.S.S.C.S.S.S.S.D.G.G.J..Xj.~..XA.(..X.Xp t 4 > q e @         > k.+X-X-X&X+X+X-X-X-X",
"&X&X&X$X$X$X&X&X8.#   $ t t t t x :.2.S.%.P ~ ~ s.D.S.S.S.S.S.t.S.G.B.Z./.U.R..X.XJ.%.t t $ & 4 e r >       m.&X$X$X$X&X&X$X$X$X",
"-X-X-X+X+X&X-X&XR $   > t t t t q l t t t t t r q   L 1.C.S.S.S.=.t.u.a.S.P..X^.f.N.2.t t t # > # 4 r t 4 # 6 -X@X+X$X-X-X+X+X+X",
"$X$X$X&X&X$X$XOX>     4 t t t q g t t t t t 4           ; 0 ` p.S.S.s.,.S.2.>.t.V.S.1.r t t t > $   # t t t r x.&X&X&X$X$X&X&X&X",
"+X+X+X-X-X$X+XoXq o o r t t t 4 n t t t > o         $ > 4 : b b c i.S.S.V.i.u.D.S.S.u.Z t t t 4 e     # r t t r ).-X&X+X+X-X-X-X",
"$X$X$X-X-X$X$XW r   # t t t t q j r >       o o e t t 4   v b b b k ) B.<.B.S.S.S.S.V.R t t t t t       $ t t t K -X&X$X$X-X-X-X",
"-X-X-X+X+X&X&Xr q   # t t t t t 8 4 o o 4 e t t t t &   . b b b b b v =.S.B.S.S.S.S.S.~ t t t t t $       4 t t 4 +X$X-X-X+X+X+X",
"-X-X-X+X+X&X .t 1     q t t t r 5 t t t t t t t r $   a c b M b b b b S M.S.p.2.S.S.S.! t t t e e r       # t t t +X$X-X-X+X+X+X",
"+X+X+X-X-X].B t >     # t t t r > t t t t t t 3     3.f b M o.b b b b b k V.S.S.s.S.S.L t t t * 4 r         t t t | &X+X+X-X-X-X",
"+X+X+X-X-Xe.t t         $ t t w w t t t t t #     a N v f #.o.b b b b b d k 1.S.S.S.S.^ t t t   4 t #   *   # t t V [.+X+X-X-X-X",
"$X$X$X&X-X4 t $           2 t y y t t t >         z v N o.#.o.b b b b b b b N B.S.S.S.,.t t t   4 t >   >     r t t | $X$X&X&X&X",
"-X-X-X+XW t >               r u u t r         Y ) z v j O.#.M b b b b b b g b n D.S.S.t.t t t   4 t >   > #   > t t t +X-X+X+X+X",
"&X&X&XoXI r o                 < 8 $         [ S b Q S h #.#.b b b b b b b h b b N M.S.S.t t r   # t t   $ r   $ t t t U &X$X$X$X",
"+X+X+Xz.t >                   - -       % -.v b b v ;.o.#.M b b b b b b b v v b b c V.S.t t $     t t * $ t o   t t t B b.-X-X-X",
"+X+X+XY t                     + +       q.z.v._ b b j #.#.b b b b b b b b k h b b b $.B.> t       t t t @ r e   t t t t e.-X-X-X",
"-X-X Xt t                     -       # 3     y *.X.f #.+.b b b b b b b b b b b b b v A # 4       q t t % > r   > t t t x.+X+X+X",
"-X-X4 t t                     s               o e w.g #.#.b b b b b b b b b f b b b b d   >       > t t 4   t > > t t t e.+X+X+X",
"$X8.t t t       $           f             # r t t   + #.#.b b b b b b b b b v b b b b s   o       o t t t # > 4 # t t t U &X-X-X",
" X/ t t t #     > e       + =         * 4 t t t #     o.#.O.b b b b b b b b b b b b b :             t t t 4 o t o t t t r -X-X-X",
"`.t t t t #     t t >     : .     * t t t t t >       = #.#.b b b b b b b b b b b b b -             t t t t t e q t t t r &X-X-X",
"p t t t t #     t t t e 5 g 4 q t t t t t t r o       . m #.M b b b b b b b b b b b b -             e t t t t t t t t t t +X+X+X",
"t t t t t o   o t t t t 8 c t t t t t t t t *           d #.o.b b b b b b b b b b b b -             # r t t t t t t t t t $X$X$X",
"t t t t t     > t t t t @.r t t t t t t t *               +.@.m b b b b b b b b b b k +                 t t t t t t t t w -X-X-X",
"t t t t t     r t t t r @.t t t t t t t 4                 . @.X.b b b b b b b b b b f                   o r t t t t t t V -X-X-X"
};
