/* XPM */
static char *b487601f3a644b51aabe070a321d175ehWNYGQ6AsmApg3gG[] = {
/* columns rows colors chars-per-pixel */
"64 64 256 2 ",
"   c #090402",
".  c #1B1707",
"X  c #170F09",
"o  c #290901",
"O  c #281708",
"+  c #361903",
"@  c #261C16",
"#  c #3A1F14",
"$  c #300B00",
"%  c #2B251C",
"&  c #382719",
"*  c #372814",
"=  c #352B25",
"-  c #373328",
";  c #32302C",
":  c #221821",
">  c #481A07",
",  c #4C1A0E",
"<  c #4A290D",
"1  c #462817",
"2  c #562B1B",
"3  c #5B3718",
"4  c #503012",
"5  c #66351B",
"6  c #793A1A",
"7  c #6D2D0C",
"8  c #442C23",
"9  c #48372A",
"0  c #563826",
"q  c #483B35",
"w  c #563E34",
"e  c #522F22",
"r  c #673B28",
"t  c #733C28",
"y  c #67382C",
"u  c #74431C",
"i  c #5B4129",
"p  c #494437",
"a  c #584638",
"s  c #5B533E",
"d  c #4B452D",
"f  c #67442A",
"g  c #784529",
"h  c #684937",
"j  c #784937",
"k  c #7A5339",
"l  c #6B5239",
"z  c #543F46",
"x  c #4B4541",
"c  c #584A41",
"v  c #595448",
"b  c #4F5256",
"n  c #614B45",
"m  c #695845",
"M  c #795946",
"N  c #655E55",
"B  c #75554A",
"V  c #7B644B",
"C  c #6A6458",
"Z  c #796556",
"A  c #6D684F",
"S  c #6B6862",
"D  c #796A65",
"F  c #7C7469",
"G  c #797A77",
"H  c #6D6E6E",
"J  c #5E6168",
"K  c #8B3B12",
"L  c #893D26",
"P  c #8B3C2B",
"I  c #864416",
"U  c #994B1A",
"Y  c #9C5616",
"T  c #994403",
"R  c #A64A1A",
"E  c #A75519",
"W  c #B25311",
"Q  c #874828",
"!  c #974A2B",
"~  c #89512A",
"^  c #99592C",
"/  c #834A36",
"(  c #8A583A",
")  c #945936",
"_  c #974935",
"`  c #A85A2A",
"'  c #B85B26",
"]  c #A35837",
"[  c #AB5030",
"{  c #9C643C",
"}  c #B7632C",
"|  c #A86539",
" . c #B76738",
".. c #B37137",
"X. c #B9651F",
"o. c #D95D08",
"O. c #C75A16",
"+. c #D76618",
"@. c #CC6A17",
"#. c #E36B0B",
"$. c #C37328",
"%. c #D9762A",
"&. c #C76C36",
"*. c #C77539",
"=. c #CE6B2D",
"-. c #F0752B",
";. c #865B47",
":. c #975B46",
">. c #875853",
",. c #8F4F43",
"<. c #A35D49",
"1. c #886449",
"2. c #976648",
"3. c #886957",
"4. c #966A57",
"5. c #85745D",
"6. c #98775A",
"7. c #957447",
"8. c #A76948",
"9. c #B46A44",
"0. c #B67549",
"q. c #A56A54",
"w. c #A8775A",
"e. c #B67958",
"r. c #AE714B",
"t. c #886B63",
"y. c #887768",
"u. c #977868",
"i. c #877B72",
"p. c #977C73",
"a. c #846E78",
"s. c #A37967",
"d. c #B47869",
"f. c #C47747",
"g. c #CD754C",
"h. c #C17F65",
"j. c #D48B3A",
"k. c #EE9638",
"l. c #A9855E",
"z. c #B88155",
"x. c #8B856C",
"c. c #95826B",
"v. c #888377",
"b. c #948374",
"n. c #998779",
"m. c #99917A",
"M. c #A8846A",
"N. c #A58A7A",
"B. c #AA937B",
"V. c #B69477",
"C. c #B7896E",
"Z. c #C3855A",
"A. c #D78C55",
"S. c #D1884D",
"D. c #EA914D",
"F. c #C48868",
"G. c #C79878",
"H. c #D49767",
"J. c #CFA279",
"K. c #FFB16E",
"L. c #E59E6A",
"P. c #998B84",
"I. c #9C948B",
"U. c #9A9486",
"Y. c #9A9994",
"T. c #8C8A87",
"R. c #A88E83",
"E. c #A89889",
"W. c #B69988",
"Q. c #A99B93",
"!. c #B6A18B",
"~. c #AAA397",
"^. c #B8A797",
"/. c #B4AA94",
"(. c #A7A7A3",
"). c #B6ABA5",
"_. c #B8B4A9",
"`. c #BBBAB4",
"'. c #AFB2AB",
"]. c #9FA69E",
"[. c #D49986",
"{. c #C4A898",
"}. c #C7B59B",
"|. c #D0AB90",
" X c #C4BAA7",
".X c #D4B8A7",
"XX c #C8BCB6",
"oX c #C3ABA1",
"OX c #E0B29B",
"+X c #BBC2B5",
"@X c #CAC1AA",
"#X c #CAC2B5",
"$X c #C8C4BA",
"%X c #D7C9B9",
"&X c #D0C8B1",
"*X c #E4C8BA",
"=X c #EBCEB6",
"-X c #E2C397",
";X c #B6BAC2",
":X c #D3BFC0",
">X c #BCC0C3",
",X c #CCCDC3",
"<X c #C8C9C7",
"1X c #D4CCC6",
"2X c #DAD4CB",
"3X c #D7D5CA",
"4X c #DBDCDB",
"5X c #D7D8D6",
"6X c #CDD2CB",
"7X c #E3CCC5",
"8X c #E5D7C8",
"9X c #F6D8C8",
"0X c #E3DDDB",
"qX c #E6DBD4",
"wX c #DDE2DC",
"eX c #D9E1D7",
"rX c #E4E3DD",
"tX c #EAE3DD",
"yX c #E9E5D8",
"uX c #F6E7DA",
"iX c #EAEAD2",
"pX c #DDDEE2",
"aX c #E7DCE2",
"sX c #DDE6E5",
"dX c #DCF1EA",
"fX c #E3E4E4",
"gX c #EBE5E5",
"hX c #E4EAE5",
"jX c #EBEBE5",
"kX c #E3E6EA",
"lX c #E5EBEC",
"zX c #EBEDEC",
"xX c #EDE6EA",
"cX c #F3EBE4",
"vX c #F3ECEC",
"bX c #FAE9E6",
"nX c #ECF2ED",
"mX c #E7F3E8",
"MX c #F3F2ED",
"NX c #FAF4ED",
"BX c #F6FAEB",
"VX c #EBEEF1",
"CX c #E5EAF3",
"ZX c #F3EEF2",
"AX c #F9EEF5",
"SX c #EEF2F2",
"DX c #EDF3FB",
"FX c #EBF8F7",
"GX c #F3F5F4",
"HX c #FBF5F4",
"JX c #F5F9F6",
"KX c #FAFAF5",
"LX c #F4F6F9",
"PX c #FCF6FC",
"IX c #F5FAFA",
"UX c #FCFDFC",
/* pixels */
"UXUXUXUXUXUXUXUXUXUXUXUXUXUXUXUXUXUXUXUXUXUXUXUXIXsXUXUXUXLXGXGXUXUXFXIXJXUXKXKXUXUXUXIXUXIXJXUXUXUXUXUXUXGXUXUXUXUXUXUXUXUXUXUX",
"UXUXUXUXUXUXUXUXUXUXUXUXUXUXUXUXUXUXUXUXUXUXUXUXzXGXUXGXUXUXzX_.AXUXPXUXUXUXPXUXUXUXUXUXUXUXUXGXJXLXSXUXUXUXUXGXUXUXUXUXUXUXUXUX",
"UXUXUXUXUXUXUXUXUXUXUXUXUXUXUXUXUXUXUXUXUXUXUXUXtXKXUXUXHX'.F = H ).1XgXZXUXLXUXUXUXUXGXZXUXUXUXUXUXUXUXIXUXLXUXUXUXUXUXUXUXUXUX",
"UXUXUXUXUXUXUXUXUXUXUXUXUXUXUXUXUXUXUXUXUXUXUXUXcXHXHX<XS @ - p p p = C +XUXIXIXUXUXUXUXUXUXUXLXJXGXGXUXUXGXUXUXUXUXUXUXUXUXUXUX",
"UXUXUXUXUXUXUXUXUXUXUXUXUXUXUXUXUXUXUXUXUXUXUXGXY.v.T.x @ p 5.B v Z h 0 + . = F (.v.v.~.~.'.4XUXUXUXKXGXUX0XUXKXGXJXUXUXUXUXUXUX",
"UXUXUXUXUXUXUXUXUXUXUXUXUXUXUXUXUXUXUXUXGXUXGXGXC v F p & k 2.5 + / _ ! 6 r , , X @ O o 0 b.P.N I.$XtX2X_.i._.qXfXlXJXUXUXUXUXUX",
"UXUXUXUXUXUXUXUXUXUXUXUXUXUXJXzXGXUXUXUXGXVXfX5X9 * + o < Q | U $ :.g. .L / t 2 0 f f f < $ # a y.9 @ % q m D E.fXzXGXUXUXUXUXUX",
"UXUXUXUXUXUXUXUXUXUXUXUXUXUXlX5X'.<XaXGXzX6X(.G + 4 < 3 ^ ` &.=.s j P K 6 k f 5 j :.:.) 2.( r 1 &   & p & 9 & b.zXGXGXJXJXUXUXUX",
"UXUXUXUXUXUXUXUXHXUXLXUXIXGXHXE.v.U.C C b % % O & 9 a i M V u.y.m y.5.m m m V 5.l t y d 9 0 w.z.4.4.2.s.w : G I.).GXGXJXJXUXUXUX",
"UXUXUXUXUXUXUXUXJXzXUXlXJXUX'.N c.c.u.a   % = O a m y.W.W.b.t.v.Z.Z.0.0.e.0.] ] T.aXHXGX%Xk f.S.$.j.$.*.8.< 3 7.'.rXzXlXSXUXUXKX",
"UXUXUXUXUXUXUXUXIXUX,X(.Y.N - ; & # + + + < 4 r ^ | ..S.f.z.~ Q K O.*.' R ' &.g.6XLXVXwX5Xk L I ^ u ~ 1.e 8 D v.i.Y.rXUXJXlXGXUX",
"UXUXUXUXUXUXUXUXIXGXI.s x.x.@   : & < 7 u I I I O.%.D.%.%.S.R K A.H.A.Z.Z.Z.9.Q Q.bXgXJXtXB j 3 < ;.M h 3.t.t.E.v C $XhXGXJXUXKX",
"UXUXUXUXUXUXUXUXLXUX~.Z n.u.M 1.;.5 { I 7 6 ( 6 ) Q { g u 5 0 3.f 3 3 i i h 5.B.uXuXcXhX8X|.q.4.u.B.}.{.G.J.l.7.a Z 1XfXzXUXUXzX",
"UXUXUXUXUXUXUXUXUXPXv.C 0 o g e.j.K.D.f.Q 0 0XgX2X$XtX0X0X`.>XkXbX0XgXHXvXxXvXLXwXLXCXnX.Xf. .| u.b.P.u.;.( ( 7.c.n.#XtXMXGXUXUX",
"UXUXUXUXUXUXUXUXMXSXfXI.h g ^ f.k.k.%.7 t XXlXFXNXMXjXrXzXjXjXMXZXvXvXvXzXGXUXzXmXDXIXSX.X9.U ) :.q.u.4.] ] h.OX%X^.n._.rXnXGXUX",
"UXUXUXUXUXUXUXUXGXnXIXnX X|.H.E j...Y ] j {.cXyXhXGXhXGXlXMXcXMXBXrXmXBXmXmXmXmXuXHXkXSX8X( r 8 5 0 9 9 1 h y.G N.@X)._.$X5XfXzX",
"UXUXUXUXGXGXUXZXFXCXhXJXjXXX1XQ.; * > > D ;XJXyXMXMXMXMXMXMXMXMXMXMXMXMXMXMXMXMXuXcXBXnXlXH F N y.t.Z D v v.y.a ^.#X8X2XMXGXJXUX",
"UXUXGXGXGXUXJXLXlXlXKXKXjXQ.Z w f u | r.s.gXKXtXMXMXMXMXMXMXMXMXMXMXGXGXGXGXGXGXUXUXGXHXbXs.q.] ) q.2.t.1 M ) ^ 2 h R.#XMXzXzXUX",
"UXGXnXGXlXJX4XfXcXtXjXrX~.m m 1 7 I &.*.g 7XcXUXMXMXMXMXGXGXGXGXGXGXGXGXGXGXGXGXDXDXSXHXbX[.9.E U 0.7.3.1 1.| X./ 2 w i.rXUXUXIX",
"GXUXUXnX6X5X<XKXcX<XfXY.@   O * 5 I ` | ( uXcXzXMXGXGXGXGXGXHXHXKXKXKXKXKXKXKXKXKXBXBXJXMX^.M g r.8.q.4.>.>.<.! 4.3.R._.gXGXGXGX",
"UXnXlXSXnX`.x q @ @     . - p = 8 M ;.;.4.8XNXUXHXHXHXHXKXKXKXKXKXKXKXKXKXKXKXKXBXBXBXIXUX2XB.V.~.y.6.V.N.F T.(.=X X X$XjXJXUXJX",
"UXnXnXSXzXI.9 a 8 9 n w i 1.1.t.v `.HXNXcXcXMXJXKXKXKXKXKXKXKXKXKXKXKXKXKXUXUXUXUXUXJXLXbX{.] } *.=.+.+.W ] F.=X$X_.5XmXIXlXZXPX",
"JXSXlXlXjXD # 0 ~ ) Q | Y Y 0.:.w n.jXzXUXKXKXPXKXKXKXKXKXKXKXKXUXKXKXUXUXUXUXUXPXUXUXUXHX[.' +.+.#.#.o.X.0.J.-X~.~.6XmXJXlXKXUX",
"JXJXSXfX4Xc 1 ;.Y  .R O.+.@.E ] k u.NXUXJXKXNXKXKXKXKXKXUXKXUXUXUXUXUXUXUXUXUXUXKXKXBXKXBXG.} %.$.T U 8..X).<X<X7X2XJXGXGXJXUXMX",
"nXJXSXVX5XD h w.7.{ ] r.Z.F.z.{ u.y.n.cXKXUXLXPXUXUXUXUXUXUXUXUXUXUXUXUXUXUXUXUXPXUXIXGXHXHXqXF m M.|.W.i.,XzX0XzXlXSXGXGXJXUXUX",
"UXGXVXlX`.c 0 k 2.d.r.F.F.8.C.q.F.e.4.u.!.qXUXLXUXUXUXUXUXUXUXUXUXUXUXUXUXUXUXUXHXUXUXUXbXW.V.M.W.s.;.u._.6X4X0XzXSXGXGXJXJXUXUX",
"nXzXlXpX,XP.y.1.` R g.&. . .` g.*.&.` Q k W.NXUXUXUXUXUXUXUXUXUXUXUXUXUXUXUXUXUXUXUXJXNX9X4.8.^ 3.s.;.u.2XfXSXGXSXGXGXGXGXJXJXUX",
"KXvXfXfX5XY.~.*X0.` R ' &. . .f.0. .K Q t {.NXUXUXUXUXUXUXUXUXUXUXUXUXUXUXUXUXUXUXUXGXPX9Xk g 6 M / 5 3.%XsXsXzXGXGXGXGXGXGXGXGX",
"MXJXHXfXnXGXqXb.p.l r r f i 9 c 6.V.s.s.u.8XKXmXUXUXUXUXUXUXUXUXUXUXUXUXUXUXUXUXUXUXPXUXvXQ.N.h r / 2.s.).hXlXGXGXGXGXGXGXGXGXGX",
"UXgXUXUXwXnXMXi.v 9 B.W.W.n.= q XXgXHXHXNXHXUXJXUXUXUXUXUXUXUXUXUXUXUXUXUXUXUXUXKXUXUXLXJXUXHXP.4.8.e.4.E.fXGXfXGXJXJXUXJXGXJXJX",
"IXGXUXSXsXIXfXS m h 2.e.M.4.h h GXUXGXUXUXJXGXGXUXUXUXUXUXUXUXUXUXUXUXUXUXUXUXUXUXKXUXUXUXUXqXXX[.2.8.2.c.C '.HXGXGXJXUXJXUXUXUX",
"IXUXGXSXIXsXfXrX^.M 4.j M t.9 n XXKXGXUXnXUXGXUXUXUXUXUXUXUXUXUXUXUXUXUXUXUXUXUXIXUXUXUXUXBXE.;.G.) 8.w.*XF `.MXGXGXGXJXGXJXUXUX",
"JXJXJXJXGXnXhXfXbX7XR.B.c.V V B.3.bXUXSXGXUXHXJXUXUXUXUXPXPXPXUXUXUXUXUXUXUXUXUXUXPXUXIXUXBX}.V.M.c.A @X}.^.qXSXGXGXGXGXGXJXUXUX",
"UXJXGXGXGXSXlXzXnX+XF ^.0 s.C.:.M uXUXGXGXKXKXUXUXUXUXUXUXUXUXUXUXUXUXUXUXUXPXUXKXPXUXJXKX7Xs.w.s.M m. X_.8XjXlXGXGXGXJXUXUXJXJX",
"UXJXGXGXGXGXGXnXdXsX,XQ.R.j ,.P h 1XGXJXKXKXHXUXUXUXUXUXUXPXUXUXUXUXUXUXUXUXUXUXMXUXUXKXKX*X4.q.3.u.&X X/.2XzXSXGXGXJXUXUXUXJXJX",
"UXJXGXGXGXGXGXGXPX0X1XI.E.m.{..Xa $XzXUXKXKXHXLXKXUXUXUXUXUXUXUXUXUXUXUXUXUXUXUXKXUXKXGXHX7Xu.;.u.{.}./.$X4XVXSXGXGXGXGXJXUXUXUX",
"UXUXJXJXGXGXGXzXaXxXUX,Xv.U.x.x.Z 1XzXJXGXHXGXGXKXKXKXKXUXUXUXUXUXUXUXUXUXUXUXUXUXGXLXUXUXUXtXXX0 3.3.E.1XfXSXGXGXGXGXGXGXJXUXUX",
"UXUXJXJXJXGXSXzXlXlXmX].~.y.1 0 Q.cXGXGXMXNXHXLXGXGXGXJXKXKXUXUXKXKXUXKXUXUXKXKXUXLXUXUXVXIXSX6Xp.u.!.=XrXDXVXjXGXGXGXGXGXJXJXJX",
"UXUXJXGXGXGXGXnXFXdXmXwXi.w > t XXHXGXGXvXMXKXLXGXGXGXGXGXKXKXKXKXKXKXKXUXUXUXUXGXKXUXUXLXUXUXJX{.6.C.{.4XUXGXcXlXzXGXGXJXJXGXGX",
"UXUXGXGXGXGXGXGXzXJXjXtXq o < g XXJXGXJXMXMXGXSXMXGXGXGXGXGXGXKXKXKXKXKXKXKXKXKXBXKXGXKXUXHXNXKX.XV.l.3.(.;X5XuX4XfXzXGXJXJXGXGX",
"KXUXGXMXGXGXzXzXNXjXgX0X@ 9 5.c.T.1XNXcXlXIXmXSXMXMXMXMXGXGXGXGXGXJXLXDXUXZXUXNXMXKXUXAXHXPXcXKX*X^.a 9 w n q % v 3XKXfXJXUXGXJX",
"JXJXJXGXGXzXfXzXsXlXrXi.1 g 8.| A.A.g.e.M.%XuXHXMXMXMXMXMXGXGXGXBXGXGXLXJXvXGXMXPXGXUXJXKX%XM g j 4.;.M j r f a c ~.3XKXzXzXzXUX",
"JXJXGXMXzXzXMXGXdXlXUXy.3 6 ' O.o.-.-.} ~ .XbXvXMXMXMXMXMXGXGXGXMXcXMXNXNXKXGXIXPXZXIXFXBXW.6 P t 5 > > 6 L / g a D Q.rXKXUXGXUX",
"UXJXGXzXzXzXrX,XkXhXQ.* 3 ^ ' =.=.g.f.6 k _.SXDXnXnXnXMXMXMXMXMXJXGXKXMXMXUXSXFXLXVXFXUXNXN./ Q B 0 2 t Q g j ;.^.!.U.I.MXzXGXGX",
"JXJXGXlXfXrX'.H D # O Z M.l.e.8.k f h a ,XlXFXsXjXzXzXnXzXzXzXMXlXlXSXlXMXKXNXMXBXKXjXvXPXbX%Xh 9 a 3.3.l h Z R..X}.E.Q.GXGXUXUX",
"JXGXnXfXfXfX`.S , h M 6.R.N.b.9 v v n 9 yXcXuXcXjXjXjXzXzXzXzXzXFXFXIXIXNX8X9X=X8X3X8XuX:XE.1X'.u.p.p.p . p c Z !.!. XcXMXzXSXzX",
"IXVXlXfXfXzXwX'.m M s.V.W.R.P.; x.E.R.n 8XqXyXbXjXjXjXjXjXzXzXzXjXhXlXfX%X(  .' ( 3.u.Z t.R..Xu.2.w.4.9   C 3.s.!.~.).jXfXGXUXUX",
"IXlXVXSXfXjXjX5Xy.5.M.V.C.u.n = m M l 8 XX<X<X5XhXjXjXjXjXzXzXzXcXjXMXHX9XI O.o.e./ 4.3.N.M.s.q. .9.:.0 . x.6.F.%X%XXX6XUXUXGXzX",
"LXLXGXGXGXSXVXVXS v . & - 9 i c.).^.c.V.V.|.G.F.A.f.A.F.M.uXrXnXVXbXbXIXgXZ.' R f k 1.V 5.Z M r y 2 h j N.N.n..X=X!._.jXGXVXLXUX",
"JXGXGXGXGXGXlXfXb.R.Z 0 f ;.u.s.4.j g _ 9.] ] 6 ! ^ ~ 5 h qXHXlXgXOXL.L.K.L.G.Q.a.a.z x - p b.!.B.!.!.@X@X&X_.qX}. XyXPXJXUXUXMX",
"UXLXGXGXGXGXkX4XQ.^.oX^.*X*X|.4.:.8.Q ] ! ! L <.Q / > * y.tX0XaX0.q.j 1.w.1.w.| l.V.|.M.M.> d.d.u.;.M M u.t.Q.oX`.3XzXVXVXLXUXGX",
"UXJXLXLXGXVXkXpXhXwXjXrXyX3X8X@X}.M.1.g 5 5 j 0 2 2 + 9 D qXNX$X~ k { X.@.=.O.#.o.+.O.*.r.u 1.r j y y u.u.W.{..X4XwX5XpXVXSXnXJX",
"UXUXUXLXGXVXzXlXFXFXlXmXFXIXnX`.x.@Xc.3.e l 9 s e a m U././.~.^.T.T.k W o.W } W W ' 9.w.3.C N - 0 l y.m.v.$X,XeXSXhX4XsXUXGXlXGX",
"UXUXUXJXGXSXGXGXkXLXLXPXfXZXUXxXv.m.Q.y.y.p.P.c b.c.m.x.d s 5.a F J b x q c 8 5 5.m Z n F E.N.>.m A y.s N $XjXMXSXLXlXfXGXLXGXGX",
"UXUXUXLXLXGXGXLXUXPXxXUXPXHXvXaXF )._.XX#X8X8X7X8X8X%X^.B.p.b.E.h 1.M i.y.1.3.3.;.>.4.y.A m.A V p.R.p.P.p.bXvXAXSXLXGXgXzXGXGXIX",
"UXJXLXLXJXJXLXGXmXnXhXnXnXlXFXSXqXjXeXmX6X%X@X^. X#X%X{.R.N.E. X~.|.{.`.Q.w.:.4.6.u.{. X2X2X#X%X_.$X1XMXnXJXFXCXGXMXvXGXGXGXSXSX",
"JXJXJXJXJXLXSXVXVXSXSXSXSXSXSXSXDXlXVXGXhX6X$X_._.`.S `.T.v.m.E.t.Q.R.a a Z n.n.@XyXuX8X%X2X2X2X4XfXSXGXSXSXSXGXSXSXSXSXSXSXSXSX",
"JXJXJXJXJXLXSXSXSXSXSXSXGXGXGXSXVXGXSXlXJXUX<XG x S (.lX4XXXC s p.E.b.m !.&X}.uXyXyX8X#X$X2XhXrXhXSXGXGXSXSXSXGXSXSXSXSXSXSXSXSX",
"JXJXLXJXJXJXGXSXSXSXGXGXGXLXGXGXGXLXUXGXnXGXGXwX4X<XnXsXlXMX~.I.E.x.m.E.R. X2X8X#X,X2X4XjXKXKXzXGXLXLXGXSXSXSXSXSXSXSXSXSXSXSXSX",
"JXLXLXLXJXJXLXGXGXGXGXGXLXLXLXGXUXzXGXUXLXlXSXUXGXlXGXlXJXJX5X).~.%Xv.I.1X2X,X,X5X0XjXzXMXGXGXSXGXGXSXSXSXSXSXSXSXSXSXSXSXSXSXSX",
"JXLXLXLXLXLXGXGXGXGXLXLXLXLXGXGXGXSXSXSXGXIXLXkXlXUXSXLXVXVXJXnX`.rX1XrX5XsXUXlXGXGXGXSXlXlXSXLXSXSXSXSXSXSXSXVXSXSXnXnXnXnXSXSX",
"LXLXGXGXLXGXGXSXGXGXGXGXGXGXSXSXSXLXJXVXlXJXUXUXGXLXGXGXkXSXlXJXzXfXhXVXVXIXCXCXlXlXVXLXIXIXLXSXSXSXSXSXGXSXSXVXSXSXnXnXSXSXSXSX",
"LXGXGXSXGXGXSXSXSXSXSXGXGXSXSXSXIXVXVXLXLXSXlXfXLXzXlXGXGXUXVXSXkXkXUXlXSXSXpXUXIXLXVXlXVXGXGXSXSXSXGXGXSXSXSXSXSXSXSXnXSXSXSXSX",
"LXGXSXSXSXSXSXSXSXSXSXSXSXSXSXSXDXSXDXLXVXSXIXIXSXUXzXGXGXzXJXVXJXSXSXhXSXlXGXzXSXLXLXSXSXSXGXVXSXSXSXSXSXSXSXGXSXSXnXnXSXSXSXSX"
};
