/* XPM */
static char *_0b95e576cb34116987afcabb65e32a5eEeVLH3mxl8WLxCD[] = {
/* columns rows colors chars-per-pixel */
"64 64 241 2 ",
"   c #020205",
".  c #02030C",
"X  c #06090E",
"o  c #020413",
"O  c #060A14",
"+  c #0A0C15",
"@  c #03061B",
"#  c #050A1C",
"$  c #0A0D1C",
"%  c #080613",
"&  c #0C111D",
"*  c #0D1017",
"=  c #12131D",
"-  c #14191F",
";  c #100E1B",
":  c #020623",
">  c #050C23",
",  c #0B0E21",
"<  c #050C2B",
"1  c #0A0E2B",
"2  c #01052A",
"3  c #061224",
"4  c #0D1223",
"5  c #05122D",
"6  c #0C132C",
"7  c #0D1929",
"8  c #111424",
"9  c #141A25",
"0  c #1A1A23",
"q  c #12152A",
"w  c #14192C",
"e  c #1A1C2C",
"r  c #191628",
"t  c #080E32",
"y  c #0C1433",
"u  c #0E1A34",
"i  c #06123A",
"p  c #0C153A",
"a  c #0E1B3C",
"s  c #051333",
"d  c #111633",
"f  c #141B34",
"g  c #191D33",
"h  c #131B3C",
"j  c #191E3B",
"k  c #12173A",
"l  c #1D212E",
"z  c #1B2135",
"x  c #1C233C",
"c  c #152439",
"v  c #0F253A",
"b  c #25262B",
"n  c #22263C",
"m  c #232A3A",
"M  c #282A36",
"N  c #29323D",
"B  c #35353C",
"V  c #302F37",
"C  c #0B1742",
"Z  c #0E1B44",
"A  c #0C1C4B",
"S  c #091546",
"D  c #131D43",
"F  c #1A1E42",
"G  c #111D4B",
"H  c #1E1F4F",
"J  c #131F52",
"K  c #151D56",
"L  c #010F40",
"P  c #0F214B",
"I  c #0E2247",
"U  c #152144",
"Y  c #1B2344",
"T  c #14224C",
"R  c #1B254C",
"E  c #1C294C",
"W  c #192A48",
"Q  c #142452",
"!  c #192654",
"~  c #162955",
"^  c #1B2A55",
"/  c #16265A",
"(  c #1B265B",
")  c #162A5B",
"_  c #1B2B5B",
"`  c #1D3058",
"'  c #0C215A",
"]  c #222A43",
"[  c #282E45",
"{  c #242C4D",
"}  c #222847",
"|  c #2C324C",
" . c #2C3547",
".. c #363A47",
"X. c #222D53",
"o. c #222D5C",
"O. c #282E50",
"+. c #253255",
"@. c #2C3453",
"#. c #23325E",
"$. c #2B355B",
"%. c #2D3B5A",
"&. c #333B53",
"*. c #393D52",
"=. c #323C5A",
"-. c #393E5C",
";. c #313653",
":. c #1C2C63",
">. c #192761",
",. c #1D3264",
"<. c #1D326A",
"1. c #222E64",
"2. c #232F6C",
"3. c #223264",
"4. c #2A3663",
"5. c #2D3A64",
"6. c #23346B",
"7. c #2A366A",
"8. c #253A6C",
"9. c #2B3A6D",
"0. c #223A66",
"q. c #333D66",
"w. c #253670",
"e. c #243A73",
"r. c #2A3C72",
"t. c #293876",
"y. c #303D71",
"u. c #3C4253",
"i. c #35415C",
"p. c #3D445D",
"a. c #374454",
"s. c #3D4045",
"d. c #2F406D",
"f. c #354263",
"g. c #3A4564",
"h. c #3A446A",
"j. c #3B4968",
"k. c #2C4275",
"l. c #2B4079",
"z. c #354372",
"x. c #394877",
"c. c #41445B",
"v. c #464A59",
"b. c #485259",
"n. c #515359",
"m. c #424348",
"M. c #404761",
"N. c #444B64",
"B. c #494E65",
"V. c #434B6B",
"C. c #464C6A",
"Z. c #4B516D",
"A. c #475269",
"S. c #575A67",
"D. c #424D73",
"F. c #464F7B",
"G. c #4D5A75",
"H. c #4C547A",
"J. c #485378",
"K. c #595E73",
"L. c #545B77",
"P. c #5C637C",
"I. c #596378",
"U. c #64666E",
"Y. c #61667D",
"T. c #666A7B",
"R. c #71737D",
"E. c #4B5784",
"W. c #535C83",
"Q. c #5C6583",
"!. c #5D6A8A",
"~. c #586587",
"^. c #5E6892",
"/. c #656A82",
"(. c #646D8C",
"). c #696D88",
"_. c #6D738D",
"`. c #777A87",
"'. c #626E94",
"]. c #667395",
"[. c #747B95",
"{. c #6573A4",
"}. c #807D84",
"|. c #76859C",
" X c #7C86A9",
".X c #87868A",
"XX c #8A8C96",
"oX c #959499",
"OX c #8E94AC",
"+X c #9FA2A9",
"@X c #A4A4AC",
"#X c #A4A6B2",
"$X c #ABADB6",
"%X c #BABABC",
"&X c #ACB0BB",
"*X c #C3C2BE",
"=X c #ADB1C3",
"-X c #BBBCC2",
";X c #B9BBC7",
":X c #C6C5C3",
">X c #C8C7C5",
",X c #CAC9C6",
"<X c #C5C5CB",
"1X c #CDCCCC",
"2X c #C8C7CA",
"3X c #D0CFCD",
"4X c #D1D1CE",
"5X c #CCCDD2",
"6X c #CBCDD9",
"7X c #D2CFD2",
"8X c #CED2D7",
"9X c #D1D1D1",
"0X c #D2D2D5",
"qX c #D5D5D6",
"wX c #D3D2D2",
"eX c #D8D6D5",
"rX c #D7D8D5",
"tX c #D9DAD5",
"yX c #D7D7D9",
"uX c #D5D5DA",
"iX c #D9D6DB",
"pX c #D6D9DA",
"aX c #D9D9DA",
"sX c #DADADD",
"dX c #DBDBDD",
"fX c #CCD1CD",
"gX c #E1E1DE",
"hX c #DDDDE1",
"jX c #D7DAE5",
"kX c #E1DFE3",
"lX c #E0DEE9",
"zX c #DFE1E2",
"xX c #DEE2EB",
"cX c #E2E2E5",
"vX c #E4E4EA",
"bX c #E6E9EC",
"nX c #EAEAEC",
"mX c #E9E8E9",
"MX c #ECECF2",
"NX c #E9E8F3",
"BX c #F4F3F7",
/* pixels */
"9X9X9X9X9X9X9X9XqX1X1XaX1XqX1X1X4X1X1X4XwX7X1X1X9X9X9X1X1X1X1X1X1X1X7X1X:X,X3X,X:X,X4X>X*X>X,X4X,X,X,X,X>X>X:X:X:X:X:X:X:X:X:X:X",
"9X9X9X9X9X9X0X0X1XaX9XqX1XqX1X9X4XwXqXqX9XqXyXaX2X2X:X%X%X-X:X1X5X9X1X1X9X9X1X1XwX,X:X,X3X1X*X*X,X,X,X,X,X>X>X>X:X:X:X:X:X:X:X:X",
"9X9X0X0X0X0X0X0X1XcX:XqXdX9X9X1X0XyXqX2X$X.XS...0 = + + + + = 0 B S.XX-XyX1X:X1X:X3X1X>X,X1X,X,X1X,X,X,X,X,X,X>X>X>X>X>X>X>X>X>X",
"0X0X0X0X0XqXqXqXdX:XaX1X9XcX2XcXsX@XS.M = $ $ = $ $ $ + + + $ $ . 0 = + m.XX-XsX>X4X,X1X3X,X1XwX1X1X1X1X,X,X,X,X>X>X>X>X>X>X>X>X",
"qXqXqXqXqXqXqXqXaXqXqXyX0X0XsX%Xn.V O o O o o $ O # $ $ $ $ # O O o o 9 = . B +XwX4X%X1XdX:X:X3X1X1X1X1X1X1X1X,X,X,X,X,X,X,X,X,X",
"qXqXyXyXyXyXyXyXwXdX1XsXvX2X@X..* o O 9 w $ # 4 4 4 , , , , 4 4 9 w $ $ 8 & $ 9 oXwXwX1X3X1X9X,X1X1X1X1X1X1X1X1X,X,X,X,X,X,X,X,X",
"yXyXyXyXyXyXaXaXgX:XmX1XsX$Xb . 4 4 , # # # 4 f 4 , , # # , 4 4 4 # # O & 4 & & b %XgX1X>X3XdX1X1X1X1X1X1X1X1X1X1X1X1X,X1X,X1X1X",
"yXyXyXyXaXaXaXaX1XmX9XaX5XB . 0 # 4 4 # , q 4 @ 4 4 4 4 4 4 4 4 4 4 4 4 # $ $ o   .X:XeXaX>X7X7X1X1X1X1X1X1X1X1X1X1X1X1X1X1X1X1X",
"yXyXaXaXaXsXsXsXpXaXhXvXU.$ 9 $ 4 4 4 4 4 4 4 4 4 4 4 4 4 4 4 4 $ $ $ $ + $ $ $ 0 B sX1X1XwX9X1X4X4X1X1X1X1X1X1X1X1X1X1X1X1X1X1X",
"aXaXaXaXsXsXsXsXdXdX0X8XV $ $ $ $ $ $ $ $ $ $ $ 4 4 4 4 4 4 4 4 4 , $ $ $ $ $ $ + ..zX1X,X4XwX1X4X4X9X1X1X1X1X1X1X1X1X1X1X1X1X1X",
"aXaXaXsXsXsXsXsXzXdX0X@XO $ & $ , , , , , , , , 4 4 4 4 4 4 4 4 4 4 , $ $ $ $ $ o v.sX9X1X4XwX9X9X9X9X9X1X1X1X1X1X1X1X1X1X1X1X1X",
"aXsXsXsXsXsXsXsXdXpXcXU.* $ 9 4 4 4 4 8 4 4 4 4 4 4 4 4 8 4 4 4 , , $ $ $ $ $ $ = S.2XqXtX4X4XqX9X9X9X9X9X1X1X1X1X1X1X1X1X1X1X1X",
"sXsXsXsXsXsXsXdXrXdXvXs.0 = 8 8 8 8 8 8 8 8 8 8 4 4 4 4 4 4 4 4 , , $ $ $ $ $ $ $ `.5XqXqXwXwX9X9X9X9X9X9X9X1X1X1X1X1X1X1X1X1X1X",
"dXdXdXdXdXdXdXdXpXcXaX..* 9 O 8 4 4 4 4 4 4 4 4 4 4 4 4 4 4 4 4 4 4 , $ $ & & & + @XdXqX1XqXtX1X9X9X9X9X9X9X9X9X1X1X1X1X1X1X1X1X",
"dXdXdXdXdXdXdXdXdXzXyXn.+ 8 O 8 , , , , , , , , $ $ 4 4 4 4 , , , , , $ $ & & & ..5XsX9X4XqXeX3X9X9X9X9X9X9X9X9X9X9X9X9X1X1X1X9X",
"dXdXdXdXdXdXdXdXdXqXcXU.= $ 8 4 $ $ $ $ $ $ $ $ $ $ $ 4 4 , , $ $ $ $ $ $ $ & & R.cX2X9XaX9X9XyX9X9X9X9X9X9X9X9X9X9X9X9X9X1X1X5X",
"dXdXdXdXhXhXhXhXhXvXvXXX$ e 4 4 4 , 8 9 $ + $ $ 4 & 4 & O 9 O * O e  .c.p.i.V.j.g.f.i.i.f.Z.!.|.&X5XdXwX4X4X1XqX7XyXqX2X0XyX1XeX",
"hXhXhXhXhXhXhXhXcXsXhX;X& $ w # 8 8 , O , e e q 8 $ $ 4 $ o $ B I.N.n f y y Y D D D D U D U E +.O.-.Y.=XuX5XwX,XqXqXqX7XqXqX3XqX",
"cXcXcXcXcXcXcXcXgXdXcXvX..9 4 q 4 w q , , , # , o & 4 4 w z Y.Z.y h k Y R Y Y p Z Z G T T D Z Z G o.o.{ [.jXqXtXwX4X4XqXtXwX9XqX",
"cXcXcXcXcXcXcXcXdXnXcXhX-Xo e q , , , 4 w , # q e 4 4 @ g Q.Y y a U p i p i F F U U U T E E T T A Q S ( R c.$XpXtX4X1XwXwX9XyXqX",
"cXcXcXcXcXcXcXcXcXdXaXvXbXT.o 8 w 8 # , q q q 6 O w 4 f _.Y Y y 5 c s a E Y c y h a u u a a a Z v a ^ ^ ^ k [ #X9XsX4X4XwX4XaXqX",
"cXcXcXcXcXcXcXcXgXgXcXvXyXvXv.0 O & 9 4 @ , q # , w q P.j 1 y { { =.Y p a p u u a a a a a h h a c c 5 i i i X.h #XjXpX4XwX9XaX7X",
"cXcXcXcXcXcXcXcXqXBXmXyXMXhXhXS.- . * 8 o # e 8 w 4 z Y.] @.P.@.} g.$.! ! Z T E Z D D D D U U U p U R U X.X.Z X.K.6XhX0XtX9XyX7X",
"cXcXcXcXcXcXcXcXnXyXcXnXyXBXsXmX.Xb . = $ O 8 O # , _.p.M.@.5 u f.F.4._ 7.3.~ Q ( o.^ T G T T T H H D D F a T Q g =XjXqXaXwXyXqX",
"vXvXcXcXcXcXcXcXcXhXvXmXdXgXmXcXgXyX.XV + b b n..X$X$Xz f s x.~.l.w.:.:.:._ o.#.W +.! _ 7.,._ ~ _ _ _ _ _ #.3.4.8.].jXeXtXfXtXeX",
"vXvXcXcXcXcXcXcXkXnXhXdXnXcXqXmXmXaXbXhXBXjXvXbX8X=Xm 6 F '.F.4.X.x.W.J.D.D.h.$.H.F.3.>.>._ 3.8.3.3.3.3.3.7.7.9.8.W.6XqXrX1XaX4X",
"vXvXcXcXvXvXcXcXcXcXvXcXcXmXmXdXcXvXaXNX#XXXU.V /.g f y J.E ! F./.] @ w x 6 6 ] z.x.7.6.6.:.3.3.3.3.6.6.6.w.r.r.k.f.`.}.0XjX8XyX",
"vXvXcXcXvXvXcXcXvXsXvXnXsXhXnXdXhXMXoX9 e 8 $ T.Y d 6 h [.V.H.$.6 f ] &.i.i.i.i.o.7.3.7.9.:.^ ~ :.:.3.3.6.6.6.6.8.$.S.9 ..XX8XuX",
"vXvXcXcXcXcXcXcXvXvXsXkXnXsXqXBXxX`.9 9 $ 4 Y.g h > w z c.*.> y p h.H.5.W E ^ I U E Z T Q P ! ` ~ ^ ^ _ _ _ _ _ ,.h.*.$ e 4 u.@X",
"vXvXcXcXcXcXcXcXdXbXvXsXvXMXvXuXR.9 & & 4 K.x k : x w 4 m 4 z f F.5.4.x.x.z.d.z.g.j.f.f.5.E P P Q Q ~ ~ ~ ~ ~ ~ ~ J.c.e , 6 z & ",
"vXvXvXvXcXcXcXcXaXcXMXhXsXMX<XU.4 O 4 . S.Z.< p k 6 > g @ @ 5 ].^.D.+.U h y y y 5 U W %.z.o._ _ _ _ _ _ _ :.:.:.` (.n , 4 4 # w ",
"vXvXvXvXcXcXcXcXcXcXsXcXBX<XS.% w O 4 I. .@ { y t Y 1 > f h p D y 6 y x *.c.u.*.f.g.$.4.3./ >.2.6.6.3.3.3.6.6.6.#.!., 8 , 3 4 $ ",
"cXcXhXNXNXlXvXsXkXvXMXhX;Xv.# 4 X l /.y y Y < h 7 w u y C A Z C a E F.^.W.J.J.V.B.M.=.#.^ Q Q Q ( J ! #._ :./ >.*.[ e O o 8 q # ",
"cXdXMXhXhXMXiXnXvXhXhX<Xb + $ q = I.z Y y p R < y < p R D a a s 3 w a.p.7 3 f 3 c @.h.x.r.6.8.k.6.9.3._ _ _ z.7.T.z . + 0 O @ q ",
"dXBXyXcXMXaXcXgXvXvX#X= 9 o 4 # ....w j k y t U h R p < f j w m m 4 m b.a.g.J.D.4.q.z.l.r.r.l.l.8.k.r.w.l.y.5.~.*.& . $ = X o & ",
"bXhXvXcXhXcXdXnXhXXX= = $ M o # `.4 ] Y y Y k < d t F Y 6 j &.a.@.(.L.x h ! ( t.z.9.6.w.e.e.e.e.8.<.<.t.:.7.+.Z.. O = + . + * O ",
"vXsXnXcX0XnXnXqX`.e O 8 8 o 4 $ e K.> y x < { Y 4 x } g. X XV.D R y g.P.=.X.7.K L A / :.<.,.,.,.0.:.:.K ( D L., 8 O X + X + + + ",
"vXbXpXbXbXvX6XU.O z q o 4 4 O , # w v.;.] | =.p.A.&.Z.].W.z.E.{.G.&.3 7 b.I.&.f ! T Z C C A A A P A G ! E (.4 e q O o + + + + O ",
"MXpXbXzXhX;Xb.q 4 , # w 4 q , , & O O e *., x 6 W ~.~.4.^ 9.r.3.f.I.!.G. .O 9 b.M.&.Y h h U Y Y i +.h Y P.4 w $ o + = + X + * o ",
"hXbXdXcX-Xc.o q 4 , 4 # , , 4 # $ $ $ $ O m , K.E.#.T _ ,.) ~ ) / :.1.7.H.).B.9 4 m u.N.N.M.N.C.W.V.I.K.8 8 O $ 8 # $ ; + X O O ",
"sXvXvX+X .# 4 q & 4 > 6 : , 9 . 8 o = & 4 &.!.5.:.>.( >.>.>.>.>.( J J ( ( ( 9.E.!.A.W 3 & - =   X 0 % o r # q , , , $ + X X O O ",
"NXxXXXn > f q # O 8 4 w q @ $ & o 4 , ] (.j.^ _ _ _ _ _ _ _ _ _ 3.1._ _ Q G J _ X.h.!.].N.w # e & O + 8 % $ . & , $ $ + X O O + ",
"jX/.f , , , , 4 q w o . $ 8 q , 6 } H.E.o.A 7._ Q Q ~ ~ ^ ^ ~ Q Q Q ! ! ! ! ! ! S Q ! o.D.!.~.V.7 # $ +   0 + * $ $ $ $ O O + + ",
"P.h > f 6 6 g , # o & 9 9 $ n @.&.).q.G 3.7.A Q P T Q Q ^ / Q Q Q Q ~ Q ! ^ ! T ( Q J Q G Q 7.x.'.!.a.9 =   = o O + $ $ + + $ $ ",
"y Y k < 6 d 6 q q q e O . w N.Y ] &.=.F.T T Q ~ / / _ :.:.:.>.>._ _ _ Q T ~ ~ T T Z C G T T P T _ z.D.P.Y.w @ , O + $ $ $ $ $ $ ",
"Y y < d 6 > 1 d @ 4 @ o x Z.OXX.j 6 u i.%.W R T 3.3.3.6.w.w.6.6._ _ ^ Q Q ^ _ ~ D +.+.D i Z Z i T Q _ 5.h.-.: 8 O $ $ $ $ + $ $ ",
"F < y f : d Y : e  .] Z.(.@.L.R F d 3 3 N.E ~ _ 3.3.:.:.3.3.3.1.8.8.3._ / Q Q Q T p a ! X.U a U U a T J _ W.&.$ O $ $ , , # O O ",
"d k d 6 6 6 5 y o v.j F F.$.~.h R < f 3 P.U o.2.~ Q T T Q Q Q Q 6.6.6.3.3.^ ^ ^ ! T Z i D Y Y k c s T Q A +.K.9 O $ , , , # O O ",
"q j y 2 h 1 f w C.[.k F H.} Z.6 6 d q , N.$.o._ ~ T D.V.W.E 3.<.) ) :.8.r.,.) ) Q _ ^ D i Z U T a a i Z T a +.Q.$ e o o w o @ + ",
"x 6 1 k h 6 , Y.| G.h { L.@.C.x d x o q f H.$.C A f.Z.j -.D.A <.) ,.:.<.w.6._ ~ ) ^ ~ T D p a U h U a D U p h %.S.o # 8 o 8 O + ",
"f j k 1 t p.x [.@.Z.h y G.y P.> p y d 6 : =.V.E Q ].y o , Q.d.' _ ,.,.:.6.r.6.Q ,.) ~ ^ T p y h a h a a U a y h B...@ O # 4 o + ",
"x 6 1 1 j Z.x N.p.N.f d | Q.K.f k < { 1 1 > g.g.3.q.N.M 4 i.5.:.~ ,.3.>.,.k.k.) :.) _ _ E a y y h h p p k F k p 6 K.m o 8 $ o O ",
"Y < 6 1 d ;.| w N._.| z @ f M.6 k p y d , , w [ E.O.T.. 9 z !.#.T ~ 3.:.:.r.k.:.) ) _ ^ E F d 6 h h h p p h D p > x P.4 8 o 9 . ",
"d 6 x 1 : f Z.[ 6 f c.w z > j 1 < h 1 d q g @ 4 : &.K., 8 @ G.f.T T _ :./ 6.r.,.Q Q ) / ! T h 6 y y h f p h F p d d x K.o 9 . + ",
"Y : 6 h d : B.K.p.| # , 4 g j d > d f 1 g q 4 4 g # , q # g , I.$.T ! ,./ _ 8.,.T T Q ) ^ T a y 6 < y f y h U D k y 1 [ v.o + X ",
"j d d : 6 j M.M.1 [ c. .w w > g c 6 1 6 1 1 4 , O 4 , j 1 , 8  .x.E Q 1./ ) 6.,.E Z A ^ _ Z p f h 6 6 u < y D D y y 6 g u.... + ",
"] 6 6 w q # Y.n f d @ j c...w $ 6 f g 7 4 4 4 , > 6 o M O @ g B.9.3.Q Q _ _ ^ 3.! Q G G T ! D s D p 6 4 4 4 y k 6 c 6 : z K.w $ ",
"j 4 6 6 6 , T.g : u j 6 1 | v.x 6 > # # 4 4 4 , 4 # $ $ 8 , 6 K.3.3.~ Q ~ ! ! 1.~ Q G G T E D p k y 6 4 4 4 y a f 6 y k j > T.e ",
"6 , 6 6 4 6 /.f u 6 > f k > x Z.z f w e w $ # , 4 O 8 o q 6 &.G._ 3.^ T T Q Q _ ^ ! G Z G T U a a y 4 4 4 4 y a y y Y : k x f K.",
"w , 6 6 6 q ).f 6 x > 6 j < t +.B.[ , @ $ 8 q 8 4 4 4 , @ 6 (.E ^ #.~ G T T T Q ! T D Z D T F k p 6 4 , , , 6 p p d < Y < j < *.",
"g , 4 6 6 6 /.j 5 6 6 f 1 p R i Y -.B.*.g , , q @ 4 # f < { ].R _ #.T Z U E T T W U D D U F D k y 6 4 , , , 6 y h 1 < { h 2 { < ",
"w # , 6 6 6 /.k f 6 @ w w : y E R Y u y n *.c.*.N.g.&.&.%.j.4._ #._ T a U U U T U D D U U D k k 6 6 4 , , 4 6 6 6 6 Y < { Y < U ",
"8 $ 8 4 6 f _.f < n , o q , < Y ^ T a y f f 6 , a a y a X.$.Z 3._ ^ T Z U D k U D h h F F k p k 6 6 4 , , 4 6 6 6 y y h p F D U ",
"$ 4 w 4 6 x [.d 1 1 # 4 , 4 h < T Z a h u 6 y k U W a U R T _ Q ! ! T U U a p U h a h h k p p h 6 6 4 , , 4 6 6 6 6 6 p p p D D "
};
