/* XPM */
static char *_48c026dabbf45e1b19c091901d5d1d14QsIziixQqD5LNs8[] = {
/* columns rows colors chars-per-pixel */
"64 64 227 2 ",
"   c #070902",
".  c #091207",
"X  c #19180A",
"o  c #0B181A",
"O  c #131B1F",
"+  c #171B19",
"@  c #26190A",
"#  c #220C00",
"$  c #1A231B",
"%  c #27271B",
"&  c #37291B",
"*  c #30220E",
"=  c #131D22",
"-  c #1B1F23",
";  c #162125",
":  c #192226",
">  c #1B252A",
",  c #1C292D",
"<  c #17292A",
"1  c #1E2E30",
"2  c #1E3435",
"3  c #232A22",
"4  c #2B2B22",
"5  c #222A2E",
"6  c #272628",
"7  c #362D26",
"8  c #2D342A",
"9  c #34342D",
"0  c #38362A",
"q  c #232E32",
"w  c #2B2E30",
"e  c #243235",
"r  c #293235",
"t  c #263538",
"y  c #2A363A",
"u  c #23393A",
"i  c #2C3A3D",
"p  c #2F3930",
"a  c #323334",
"s  c #313A3D",
"d  c #3B3C3B",
"f  c #393834",
"g  c #312F32",
"h  c #442A16",
"j  c #50321C",
"k  c #473629",
"l  c #463D35",
"z  c #4C3626",
"x  c #394239",
"c  c #4C453B",
"v  c #474739",
"b  c #554B3A",
"n  c #6E523C",
"m  c #2E3D40",
"M  c #333D42",
"N  c #393D40",
"B  c #2D4444",
"V  c #2D4A49",
"C  c #274543",
"Z  c #344245",
"A  c #394246",
"S  c #364648",
"D  c #3A464A",
"F  c #354A4B",
"G  c #3B4A4D",
"H  c #374C45",
"J  c #3D514D",
"K  c #3E4E51",
"L  c #3C5253",
"P  c #3A5755",
"I  c #404B4F",
"U  c #464A44",
"Y  c #495147",
"T  c #55584A",
"R  c #424E51",
"E  c #435255",
"W  c #485257",
"Q  c #465659",
"!  c #4A565A",
"~  c #455B5C",
"^  c #4A5B5D",
"/  c #4F5C53",
"(  c #505C5B",
")  c #574D43",
"_  c #6B5647",
"`  c #49615B",
"'  c #52625B",
"]  c #596256",
"[  c #706B5B",
"{  c #4D5E60",
"}  c #475F61",
"|  c #525E62",
" . c #585D63",
".. c #4D6263",
"X. c #4D6369",
"o. c #4A6766",
"O. c #526365",
"+. c #546669",
"@. c #5A666A",
"#. c #556B6C",
"$. c #5A6B6D",
"%. c #596764",
"&. c #55706E",
"*. c #59716E",
"=. c #546C72",
"-. c #5C6E71",
";. c #5A6E79",
":. c #5C7273",
">. c #5E7579",
",. c #5B7777",
"<. c #4C6971",
"1. c #616C6C",
"2. c #67726C",
"3. c #757669",
"4. c #626E72",
"5. c #627375",
"6. c #647679",
"7. c #6A777B",
"8. c #647A7B",
"9. c #6A7B7D",
"0. c #697774",
"q. c #747E7A",
"w. c #8A7769",
"e. c #876C57",
"r. c #65807E",
"t. c #6B817E",
"y. c #75807C",
"u. c #8E8F7E",
"i. c #A18A78",
"p. c #667C82",
"a. c #6C7D81",
"s. c #677D8A",
"d. c #717E82",
"f. c #7A7E82",
"g. c #678381",
"h. c #6D8284",
"j. c #6D8887",
"k. c #6D848A",
"l. c #6F8B89",
"z. c #728385",
"x. c #738689",
"c. c #7A8589",
"v. c #758B8C",
"b. c #7A8C8D",
"n. c #7B8783",
"m. c #7A938F",
"M. c #748C92",
"N. c #7B8E91",
"B. c #788E99",
"V. c #7C9293",
"C. c #7C9399",
"Z. c #7A9694",
"A. c #6E8990",
"S. c #848D87",
"D. c #88928B",
"F. c #999C8B",
"G. c #808F92",
"H. c #819596",
"J. c #83969A",
"K. c #859A9B",
"L. c #899C9E",
"P. c #899997",
"I. c #949C97",
"U. c #89A29E",
"Y. c #9BA29D",
"T. c #A9AA9D",
"R. c #B2B19F",
"E. c #849BA1",
"W. c #8A9DA2",
"Q. c #929EA3",
"!. c #8DA2A3",
"~. c #8DA3A9",
"^. c #8FA8A4",
"/. c #91A5A6",
"(. c #93A6A9",
"). c #95AAAB",
"_. c #9AACAE",
"`. c #97A6A7",
"'. c #9CB1AE",
"]. c #97B1AC",
"[. c #9AAEB1",
"{. c #92ABB0",
"}. c #9DB2B3",
"|. c #9BB1BA",
" X c #A3ABAD",
".X c #A8ACA6",
"XX c #A4B2AD",
"oX c #A3ADB2",
"OX c #A2B4B5",
"+X c #AAB3B5",
"@X c #A2B6B9",
"#X c #ABB5BA",
"$X c #A5BABB",
"%X c #ABBCBE",
"&X c #A6BAB5",
"*X c #B3BBBA",
"=X c #B6B9AE",
"-X c #A69082",
";X c #B8C4BE",
":X c #AEC3BE",
">X c #CAC8B8",
",X c #AABFC0",
"<X c #A6BBC2",
"1X c #B1BDC1",
"2X c #ADC2C3",
"3X c #AFC5C8",
"4X c #B2C4C5",
"5X c #BCCAC5",
"6X c #B3C6C8",
"7X c #B5CACB",
"8X c #BBCBCD",
"9X c #B9C5C8",
"0X c #BBCED1",
"qX c #BED2D3",
"wX c #BCD0CF",
"eX c #C1CBCB",
"rX c #C2CED2",
"tX c #C3D3D5",
"yX c #CAD6DA",
"uX c #CBDBDD",
"iX c #C7D7D8",
"pX c #CBD4C9",
"aX c #CDDEE2",
"sX c #D3DEE2",
"dX c #D7E7E9",
"fX c #CFE1E3",
"gX c #E5F4F7",
/* pixels */
"L.7X$X2X_.7X_.$X}.(./.[.@X_.!.K.J.L.!.!.!.!.J.V.!.J.V.L.!.J.b.b.b.V.V.V.V.V.V.v.J.b.V.Z.b.V.J.b.b.N.H.H.P.P.G.c.L.G.H.G.W.N.H.~ ",
"J.}.v.K.V.}.}.2X).J.v.b.b.z.9.9.9.6.:.:.6.9.9.6.8.:.$.,.9.9.h.x.#.6.8.#.+.#.6.h.h.#.#.#.+.6.v.h.$.$.$.$.$.5.6.7.z.9.G.d.c.7.z.Q ",
"J.(.#.V.L.K.(.(.V.x.x.V.K.H.V.V.+.....:.z.V.K.H.$.$.6.h.x.z.b.H.L +.6.:.$.6.z.V.6.X.+.#.#.9.V.N.^ +.-.5.5.5.9.d.^ ^ z.O.$.~ -.G ",
").(.^ x.(.J.}._.#.:.h.J./.L.V.b.L L ~ 6.b.K.N.z.E ..6.v.z.6.$.-.t L +.$.$.#.+.{ G Z L ....-.8.$.m Q $.6.5.$.+.+.K G c.Q @.! $.G ",
"@XW.^ :.W.H.@X$XV.H.!.}.}./.J.V.z.a.a.b.L.L.c.7.-.6.b.P.V.9.5.5.$.6.a.a.9.6.O.K { Q O.5.5.9.z.6.{ 4.x.N.x.9.7.7.E D L.^ a.-.9.E ",
").J.V.h.).V.8.:.E G F F F B B Z G Z e e i m i t y e y i y e q y y t q , q t q = q = ; < ; e A i t i i y e e t i Z y `.~ z.5.5.D ",
").K.7XV.).b.B u m e , , < < 2 i q > = O = , q e q : = > > > , q ; ; = o = , q , 5 o = ; O , y q t e < ; = ; < 1 < > @X! d.+.O.i ",
",XL.qX:.v.V.L ..F S Z S B u u m , 5 , , > > : ; 5 : ; q r q > : = 5 q > = = O o ; o > e 5 q r ; q , < > < < < ; o > 8X+.z.O.O.Z ",
"}._.9...!.K.L 6.......E G F F F i M s r q r r q q q q r i s y r q , , q q , , q > ; > s A i r y i y e , , , 1 e , < %X5.W i D E ",
"}.}.).!.,XL.L #.$.6.h.9.6.$.+.^ A D D M s M M i A A A A A A M i M i s A A i r y M r r M A M s M G S M y t t t y i e %Xa.-.Q ! K ",
"$X}.7XqX0XJ.E $.$.h.V.V.b.z.6.+.E ! W G G R I S ! Q W W ! W R G D A D K G m y y I S A G R G I E Q E D Z m i i m S m %Xc.x.$.$.D ",
"2X).6XiX3Xb.~ :.#.h.V.V.N.b.h.:.{ O.O.! Q Q E G ~ ! ! ~ | O.| { E K G R G m y i G G G W ^ | O.O.| ^ Q K G G G K D D %Xb.b.-.6.D ",
"6X/.,XqX,Xv.L #.6.N.K.V.b.J.V.h.+.#.+.{ ~ ~ L F ^ ~ ~ ^ ..+.+.O.#.{ Q E K Z Z F G L Q { +.#.+...@.+.O.^ ^ { O.O.G ~ 1Xb.z.O.a.E ",
",X}.6X8X7XV.Z Q 8.V.L.b.b.K.K.x...+.+.^ ~ ~ L F ..^ ~ ~ ........:.+.~ Q L F F L Q } +.+.#.#...E +.O.{ ~ ~ { O.+.E $.9XN.d.^ c.! ",
"}.6X8X2X7XH.B ..-.V.!.J.H.!.H.9.L ~ ..~ ~ ` ~ L ..~ ~ ~ ..X.+.+.6.#.....~ L G L ..+.+.X.+.#.+.Q #.+.O.^ ^ { O.O.Q 5.4XG.z.~ b.K ",
"(.0X7X).2XJ.G 9.#.H.[.).(._.K.6.F L ~ Q ~ ....Q Q Q L ~ X.#.:.:.h.8.6.>.=...~ } ..+.X.} X.:.:.X.9.6.5.$.$.@.$.$.E 5.%Xb.z.! c.B ",
"%X%XP.O.9XW.E $.$.H./.).3X2XM...F S F ~ +.#.+.~ G X.$.+.+.8.z.h.p.x.M.x.x.k.:.Q #...} #.>.p.k.M.j.j.t.8.:.*.#.#.' ~ :Xm.t.J ' H ",
"#X9X1X`.uX_.! 5.9./.@X$X8X3XM...F S F ~ #.:.+.Q L ~ ....-.9.h.h.5.s.x.x.M.N.s.=.=.X.X.>.h.v.C.E.V.v.r.:.&.#.&.*.*.O.7XP.b.` 5.' ",
"#XeXyXsXuXOX{ d.h.).$X@X6X$Xh.~ E G G ^ :.8.-...+.^ } :.h.b.b.N.:.p.k.v.C.K.C.x.p.>.8.k.B.C.C.E.K.V.h.:.#.*.6.8.*.#.tX_./.8.x.O.",
"*X9XtXgX8X_.O.c.z._.$X}.%X@Xv.+.:.+.~ +.8.h.8.#.#...+.h.V.b.N.K.8.s.x.B.J.W.W.E.J.B.B.J.E.C.B.V.L.V.x.9.6.8.h.z.+...wX@X2XK.V.E ",
"#X9X8XdX8X#X+.z.H.%X6X$X6X6X(.Z.L.x.:.#.:.8.:.#.....-.x.b.h.z.J.x.v.V.K.W.W.W.W.W.J.J.W.~.E.J.J.K.J.V.b.x.x.v.M.:...6X).6X[.~.} ",
"+X9XrXyXaX4X$.9.H.2X7X2X7X8X}.(.}.L.h.:.#.#.+...+.:.h.V.N.x.v.H.b.N.J.!.~.W.W.(.J.B.J.!.(.(.(.[.W.W.L.P.H.N.b.v.x.-.2XW.<X[.$X6.",
"oXyXrX`.yX#X@.6.b.%X7X2X6X2X).L.(.L.v.9.:.$.#.#.6.x.V.H.J.K.H.b.x.v.J.(.).!.!._.W.K.K.(._.).).[.).(.W.L.G.b.x.h.p.>.0X!.|.(.<Xx.",
"+XyX9X5.%XL.| 7.v.%XqX6X6X,X!.m.V.V.b.z.h.9.h.h.9.v.V.N.J.!.H.9.h.h.J.).[.(.(.@X$X[.(._._.Q.Q.Q.oX_./.P.b.z.a.a.{ =.aX|.|.W.|.k.",
"*X1Xz.@.#X_.! d.h.!.6XtX8X$X!.b.K.b.J.L.x.9.h.9.x.!.v.V.!.J.!.L.V.J.K./._.L.}.[.OXOXoXoXoXoXoX X X X`.G.c.N.@.5.~ =.3XJ.;.;.M.s.",
"oXeX9XoX8XL.R z.z.L.$X8X8X%X^.V.N.h.V.!.K.L.).(.V.).V.!.}.(._.!.!.).(.}.%X}.@XOX@X+X+X+X+X+X+X+X9XXX*X XI.P.7.z.! O.<XW.B.B.E.s.",
" X9XsXsXtXG.G 9.z.P.}.6X7X%X_.!.@X!._.,X%X2X6X2XV.!.x.L.@X_.).L.^.].^.].@X'.b.z.q.q.f.f.f.f.f.q.q.3..X.XI.S.0.5.^ ^ }.~.~.{.~.=.",
"+X`.*XeX8XN.G $.z.H._.,X%X}._.}.}.K.!.}._._.!.V.V.K.6.N.}.).(.K.U.].!.^.)./.G S s s N N N d f a 9 T =X.XY.I.D.q.' ^ _.W.W.!.M.L ",
"#XQ.oX4X9XN.K $.h.H._.$X}.!.(.%XL.v.V.)._.).L.h.K.J.:.b.}.)._.^.U.@X).]._.'.e , e r r r w 6 6 + . T =Xu.S.S.S.2.' ^ _.H.b.v.p.V ",
"oX*XtXrX8Xb.D 9.h.b.!.}.).K.!.%X_.K./.%X%X@X).V.K.H.:.V.@X).[.].Z.$X].].].4X, r r r a a a w 6 %   b F.v [ T Y p / ' '.V.h.9.8.L ",
"`.rXyX%X4Xc.Z d.h.a.V.(._.!.!.@X_.J.!.}._.(.!.N.J.J.9.!.6X}.@X@XV.$X^.U.U.4X: Z , 5 w a a w 6 % % T u.b F.] % $ ( ' XXm.t.6.8.P ",
"(.8X+Xb.oXc.i 7.z.5.9.L.}._.(.}.}.L./.@X@X@X%X}.!.(.V.%XaX6X6X6XU.3X).P.H.;X$ U 3 4 7 9 f 0 7 7 @ v 3.T >X[ . . ] ] XXm.9.,.*.C ",
"}.,Xx.E L.O.G G @.| $.d.V.K.L.!.J.!.!.L.).%X@XL.!.).@X,X%X@X,X7X@X_.H./.`.D.$ % % % & k # z @ & @ b R.[ >X% % X x Y &XP.*.~ <.o.",
"_.$XK.9.b.! D ^ | ( @.d.H.K.L.!.b.H.V.b.K.}.[.L.%X}.).@X3X6X@X).@X[.P.OX4X.X9 4 & & [ _ e.n j h @ v R.[ >X0 0 4 8 Y *X/.v.g.A.=.",
"J.L.K.L.@.A r ! ! ^ 1.c.K.!.!.(.b.V.N.v.H._.[.!.%X}.).}.%X2X@X/.(.W.N.OX5X+Xa 4 @ @ [ h w.j h * X v T.3.>X0 v f % Y ;XXX(.{.~.;.",
"V.6.x./.E Z , R ! | 5.G./.(.).}.K.W.W.L./.}.}.).).}.@X_./.).@X%XL.P.v./.OXY.8 4 & k w.& i.z j z X v T.3..X0 v 0 % T eX&X}.<X|.<.",
"V...6.P.K E q M W ^ 4.b.W.!.).}.).}.@X@X$X$X}.).).}.[.L.H.!.}.@X!.!.b.P.P.S.w v 7 ) w._ -X_ h z X x T.3.F.0 v 0 % T 5XXX_.$X{.X.",
"V.L :.6.D W , r D R @.z.V.J.!._.}.@X%X2X,X@X_./.2X@XW.b.H./.!.b.K.K.a.z.9.0.6 Y 7 l ) l ) b @ h X x I.3.q.4 U f % Y ;XXX/.(.~.=.",
"h.L h.E m M = e A G | 7.x.b.J.!.@X@X$X%X$X}.).(.,X$X/.V.V.L.b.$.p.8...$.4.4.: U Y l c 7 7 k k c + x D.] T X v 0 % U ;X&X!.V.C.=.",
"x.X.!.K Z t ; A A I | 6.z.v.J.(.@X@X@X$X}._.)._.!.$X$X!.v.x.9.$.+.X.K +.6.7.> A d 3 T k l k k 0 3 x n.U 8   8 % % Y eX9X!.h.k.=.",
"x.X.#.1 Z m q : s D | 5.8.8.x.J.(._.}.@X}.}.}.}._.}.[.!.H.b.9.:.>.} K ~ $.R q s d d f 7 0 c l f . G %.x .   . . 3 ] 5X_.V.+.#.h.",
"h.X.:.m S y q q s A W O.$.:.h.V.(.)._.).(.(.)._.!.).).!.K.H.v.a.p.:...+.5.~ y s d d d f d U l 9 ; J O.Z $ + o . p 2.iX&X!.9.:.:.",
"h...6.L E q , i D D W | $.:.z.J.).).)./.!.!.(._.K.!./.L.K.J.b.h.8.p.-.#.5.{ i q q r a a a f 9 6 o G 9.z.0.%.x o p %.pX%X@X).K.>.",
"h.~ 6.~ ~ q : i D G W +.5.8.v.J.!.!./.!.W.L.!.!.H.L.L.H.V.b.h.6.=.s.>.+.#.Q t ; O O O O + + + o o F h.L./.I.2.U x %.rX%X4X7X$Xp.",
"b.~ :.~ O.t : q i M W $.6.8.h.V.b.V.L.!.K.H.V.V.b.H.J.V.b.b.h.6.>.k.p.=.=.~ m q , : - - - - 6 5 m ~ :.8.t.b.n.y.1.q.yX9X4X0X2X>.",
"b.X.6.E { i : > y D O.6.9.6.a.b.v.V.L.!.!.K.H.V.v.V.H.V.V.V.x.p.k.B.k.8.6.X.K Q | ! W W W !  .4.6.k.M.z.h.z.n.y.q.0.yX5X%X7X6X8.",
"v.:.v.~ Q i , > M W 4.z.8.:.6.x.x.V.K.L.L.K.J.J.v.V.V.N.b.v.h.6.M.M.h.p.p.X.~ 5.a.6.7.d.d.7.c.J.M.C.E.K.H.b.q.2.2.] 5X5X'.}.@X:.",
"x.9.K.~ R y q q M W 4.9.$.^ +.9.6.h.h.x.x.x.b.V.b.V.V.b.g.r.:.+.v.h.>.>.6.~ Q a.$.+.-.7.7.5.7.b.v.k.8.:.5.7.5.1.0.( 5X9XL.b.b.K ",
"b.$.d.q @.M r = M R @.4.4.5.9.h.8.g.g.r.g.v.M.v.l.l.m.M.g.&.#.:.#.6.8.=.....+.+.6.Q ......+...v.8.8.6.6.5.-.$.$.6.! 8XH.x.O.+.{ ",
"c.@.7.A 1.I r q s I | @.1.4.7.9.:.8.r.>.8.j.l.g.g.j.l.l.8.#.o.&.#.:.:.+.^ ..X.X.6.Q ..~ ^ X...v.6.5.-.$.@.@.@.@.@.E 4Xz.a.O.@.Q ",
"z.4.7.O.4.R > y y A ! O.@.@.$.4.+.&.:.#.:.6.8.,.r.9.g.r.:...~ ..#.-.#.~ ~ ....^ :.E ..~ ~ X...z.$.@.O.{ ^ ^ { O.{ G %X6.6.$.5.E ",
"c.7.d.9.4.I o r q s I ! ( | | O.L ^ ..} X.$.:.#.6.:.:.:.+.Q L Q #.+.{ E E ^ ^ Q ..K { ~ ~ O.~ 6.O.^ Q E K E Q ! ~ G %X5.7.7.9.E ",
"z.7.z.z.6.G o e , y S R Q ! ! ! F E ~ ~ ..#.$.#.$.+.+.+.^ L G L { { Q K K Q Q R R S | ~ ~ O.E O.Q E G S S D K E E D #X5.9.7.9.R ",
"9.6.G.9.d.W ; q , e m D R E R K G Q { { O.$.$.+.O.~ Q ~ W G S G E ! W G G K R G M M ^ Q ! { G Q K G S Z Z S D G D i OX5.6.$.$.S ",
"z.9.Q.4.b.Q e > < 1 i S G K G S W ^ O.{ O.+.O.~ ~ E K E R D S G A R W R D D D D M i W G D ! D W D S S A Z A S S Z q _.9.6.Q Q Z ",
"N.z.OX@.H.Q y o < 1 t Z G G D A ! | | ^ ~ ^ Q G ! K G K K D S G s I ! R A A A A M i R M M R A W S S S S S A A A M , _.z.7.R K Z ",
"N.9.^ ^ :.^ 1 o 2 2 t Z F Z Z G G { E ^ ! G ! G E G D D S m Z G e W M A R M M r D M i M M M A R M M M m m i i i e G %X$.$.t i Z ",
"_.!.z.9.h.#.G G G G K ~ ~ L K L G O.~ +.+.~ @.Q { ~ { O.| Q R E M | A G ! R ! W R G R ! ! R D R G K K G S S D G e i G.G O.S W Q ",
"v.H.P./.2X7XqXdXuXtXqXiXiXtXiXfXdXgXdXdXfXuXdXiXuXiXuXfXaXiXtXtXuXgXtXrXyX8XyXtXtX0XrXyXyX8X9X8X4X8XrX8X4X4X8XtXdX8XuXz.z.! K t ",
"(._./.L.K.h.:.h.9.:.:.6.a.x.J.(.K._.K.V.b.x.L.v.8.:.:.8.9.9.h.x.9.P.7.6.9.5.9.6.9.5.5.5.5.-.4.6.^ $.7.7.4.$.6.a.5.O.-.Z { ! O.G ",
"v.V.H.!._.K.h.h.....$.h.b.V.J.!.#.b.v.V.V.V.!.x...} +.8.x.z.h.z.G :...#.8.:.a.9.$.+.$.6.6.$.$.-.G O.6.9.6.5.6.a.{ O.O.D ! G W t ",
"K.L.J.K.!.z.^ E B G +.h.b.h.:.:.Z 6.g.V.V.l.j.~ B F ..h.m.h.:.+.u +.^ +.:.X.$.#.F G ^ $.:...E L m K O.$.$.+.+.$.1 D S S R G ^ Z ",
"!.(.L.L.(.V.:.6.~ X.:.b.V.h.:.*.o.Z.Z.Z.v.g.g.P ` ..:.v.Z.v.,.#.~ x.6.6.9.+.-.+.~ ~ +.:.:.X.~ ~ Q { @.-.-.$.$.-.G @.K E G Z Q t ",
"+.#...~ ..L F ~ F B F L L F F P C o.P V C V P 2 P V V P P P V C < L B F F u B B F i u u 2 2 u B i i i i i m M Z m ! 1 t 1 1 S < "
};
