/* XPM */
static char *_92ca0d5a4b64222a52de34f9d8b74a8c8jhZaxBxdCKQ1oX[] = {
/* columns rows colors chars-per-pixel */
"64 64 256 2 ",
"   c #0C0404",
".  c #0E0808",
"X  c #0E0806",
"o  c #110605",
"O  c #120906",
"+  c #1A0D05",
"@  c #150B09",
"#  c #1A0E0A",
"$  c #150605",
"%  c #1C1302",
"&  c #1D120C",
"*  c #191706",
"=  c #1A0A15",
"-  c #1E1411",
";  c #1C1815",
":  c #0C1700",
">  c #2C0A01",
",  c #210E0C",
"<  c #290704",
"1  c #3B0C02",
"2  c #350904",
"3  c #23140D",
"4  c #2A150D",
"5  c #25190E",
"6  c #2D190D",
"7  c #281502",
"8  c #3B1202",
"9  c #34150B",
"0  c #3C150A",
"q  c #331A0E",
"w  c #3B1B0C",
"e  c #371704",
"r  c #34041B",
"t  c #211611",
"y  c #241611",
"u  c #2A1611",
"i  c #251913",
"p  c #2B1B14",
"a  c #2C1D19",
"s  c #25171B",
"d  c #331C13",
"f  c #3B1D13",
"g  c #371818",
"h  c #2A0C14",
"j  c #172409",
"k  c #36210C",
"l  c #2E2219",
"z  c #2A2217",
"x  c #342115",
"c  c #3B2215",
"v  c #34241B",
"b  c #3A251B",
"n  c #35291E",
"m  c #3C291D",
"M  c #3F2914",
"N  c #222508",
"B  c #1A1B20",
"V  c #342620",
"C  c #362922",
"Z  c #3C2B23",
"A  c #3C2924",
"S  c #3D3226",
"D  c #2C2725",
"F  c #331322",
"G  c #440A03",
"H  c #580D03",
"J  c #421403",
"K  c #4B1402",
"L  c #4C1A05",
"P  c #43150B",
"I  c #441C0D",
"U  c #4C1B0C",
"Y  c #471904",
"T  c #5B1501",
"R  c #541C02",
"E  c #5A1B04",
"W  c #541C0B",
"Q  c #5B1E0B",
"!  c #541404",
"~  c #431C13",
"^  c #4A1B13",
"/  c #491817",
"(  c #571916",
")  c #4C0B13",
"_  c #680C04",
"`  c #750E00",
"'  c #631300",
"]  c #6B1B02",
"[  c #661A06",
"{  c #781A01",
"}  c #671B15",
"|  c #77191A",
" . c #4C220D",
".. c #472408",
"X. c #5C220D",
"o. c #572609",
"O. c #432314",
"+. c #4B2313",
"@. c #44241A",
"#. c #49251A",
"$. c #432B1C",
"%. c #4C2B1D",
"&. c #462916",
"*. c #532414",
"=. c #5B2311",
"-. c #562919",
";. c #4C311D",
":. c #58341C",
">. c #533D0B",
",. c #692508",
"<. c #772606",
"1. c #793907",
"2. c #622512",
"3. c #682A17",
"4. c #782916",
"5. c #633419",
"6. c #793718",
"7. c #6A3309",
"8. c #471625",
"9. c #6B1B27",
"0. c #432D23",
"q. c #482726",
"w. c #582A23",
"e. c #443124",
"r. c #4A3425",
"t. c #44332A",
"y. c #4A362A",
"u. c #4C3A2C",
"i. c #523524",
"p. c #533C2C",
"a. c #5A3D2B",
"s. c #553726",
"d. c #4B3B31",
"f. c #523E31",
"g. c #772723",
"h. c #6A3425",
"j. c #7A3826",
"k. c #6E3034",
"l. c #7C450D",
"z. c #5C422D",
"x. c #58402B",
"c. c #554233",
"v. c #5C4433",
"b. c #5A483A",
"n. c #4F4134",
"m. c #614533",
"M. c #644D3B",
"N. c #674C38",
"B. c #6C503E",
"V. c #69492F",
"C. c #6A5544",
"Z. c #715643",
"A. c #755C48",
"S. c #644F41",
"D. c #7A624C",
"F. c #776353",
"G. c #851904",
"H. c #8B1301",
"J. c #842B02",
"K. c #872806",
"L. c #942904",
"P. c #87340A",
"I. c #983709",
"U. c #8A2810",
"Y. c #972C18",
"T. c #8A3716",
"R. c #963919",
"E. c #A32706",
"W. c #A73905",
"Q. c #B53906",
"!. c #A93917",
"~. c #B53C16",
"^. c #AA2B09",
"/. c #883626",
"(. c #9A3D27",
"). c #90362B",
"_. c #A73929",
"`. c #C53A06",
"'. c #C8370F",
"]. c #C03926",
"[. c #9B4209",
"{. c #824218",
"}. c #914912",
"|. c #A8450A",
" X c #B74607",
".X c #B9550B",
"XX c #A9471A",
"oX c #B74816",
"OX c #B85918",
"+X c #A8540E",
"@X c #BB671E",
"#X c #984525",
"$X c #8F452C",
"%X c #A54729",
"&X c #B65726",
"*X c #B1502E",
"=X c #9E632B",
"-X c #C64705",
";X c #C95607",
":X c #D75809",
">X c #C94716",
",X c #D84916",
"<X c #C95717",
"1X c #D55818",
"2X c #D54806",
"3X c #E95B0A",
"4X c #E65817",
"5X c #E85113",
"6X c #CE670B",
"7X c #D86805",
"8X c #D97A08",
"9X c #C76819",
"0X c #D76618",
"qX c #D97819",
"wX c #C7750D",
"eX c #E66608",
"rX c #F96904",
"tX c #E87604",
"yX c #E8671A",
"uX c #E67816",
"iX c #F67716",
"pX c #F87610",
"aX c #C94924",
"sX c #C95826",
"dX c #CF592E",
"fX c #EF5425",
"gX c #C8652B",
"hX c #D96828",
"jX c #DB7526",
"kX c #D77636",
"lX c #C9722C",
"zX c #E57A26",
"xX c #F67A26",
"cX c #E5712C",
"vX c #846B58",
"bX c #8A705F",
"nX c #887566",
"mX c #D67546",
"MX c #E86F54",
"NX c #AB822A",
"BX c #D68A0D",
"VX c #E88318",
"CX c #F98716",
"ZX c #F89318",
"AX c #EA8808",
"SX c #F9A50A",
"DX c #D78325",
"FX c #E88529",
"GX c #FB8623",
"HX c #EA9A29",
"JX c #EE9334",
"KX c #F5A533",
"LX c #93816B",
"PX c #DD8847",
"IX c #FFC64C",
"UX c #AB9985",
/* pixels */
"                                                                . @ # & & & @ O & & & # @ O o   O X       O   X                 ",
"                                                            X X   X     o O O O - & & & # @ @ @ @ O                             ",
"                                                            X X           O O O & # @ @ O @ @ # @ O O                           ",
"                                                                    O @ & & # # O O O O O O @ @ O O                             ",
"                                    O O O O X O o o o o O O o o   X @ - & & & # O O @ @ @ @ O O O                               ",
"                                  O O O O O O O O O O O O O O O   X     o O + @     O O O O                                     ",
"                                    O O O O O O O O O O O o o o . X     o o O O                                                 ",
"                                    O O O       o o o o o       . @ @ & # @ O o . X           .                                 ",
"                                                O       O @ O O + O + # @ O X @ o O @ O o o @ = O O O O O O O @ O             X ",
"                                              O O       O O O O & & & & & @ @ & # @ + O O o X X O O O X         O O O   . . X X ",
"                                o o O O O O O O o O O O O O O O 3 y y i & O O & & O O & & # @ # - & & # @ @ @ @ @ O O O O O O O ",
"                          X . . O O O O @ O O O O O @ @ O O O # u p a a t O $ # # O # i i & @ # o o o o o o O O @ @ O O O O . . ",
"    o o o o o o O O O   O O O O O O @ # # # @ @ @ # & & & # & & u a v v a & # & - & i l z & O O & & & & & - t t # # # @ O O O $ ",
"  o o o o O O O O O O O O O O O @ # # # # # # # & & t t t t t t 3 y a l a - - t i a v C n v u 3 & & # # @ @ O @ & & & # # @ O O ",
"  o o o O O O O O O O O O O O @ # # # # # # # # & & & t i i i i 3 3 t i i & - ; i p a v Z t.Z a a i i i 3 & & & & & & & # # O O ",
"o o o o o O O O O O O O O O @ @ # # # # # # & & & & & t i a i i a i i i - & ; ; i i 3 3 v S n & i i i t & & & # # & & # # O O o ",
"O O O O O O @ # O O O O O @ # & + + & & 3 3 # # 5 + 3 & i # i & 3 y 5 y p 5 3 y i 3 & & & 3 3 3 3 3 t - & # & - 3 & # # # # + + ",
"O O O O O # # & & - t t t t i a z l l v v v V Z n a v a S V C C Z Z t.Z Z Z v 5 V V V v l a p l i i t - - - - - y 3 3 & # + O O ",
"O + @ @ # & & t & & 3 t t i i i l v C C v v C Z m n p y C v n S Z Z t.t.n t.t.d a v C C v v V C v p i i i i t - a a p i i t 3 & ",
"@ @ # # # # 3 t 3 y p a a a l l l C S t.Z C n n t.t.v u V n n d.u.e.t.t.v t.c.u.Z A A Z v a a a Z n l a i i t t y 3 3 3 3 & & & ",
"+ # # # # & & 3 & 3 i p a a a a l v Z S Z n n n e.u.Z n Z Z m n.c.e.u.u.v v u.d.C C b b n v a a v v v a i y i i y 3 3 & & & & # ",
"+ # # # # # 3 3 + # 3 5 5 5 5 y 5 p p l x x v v x $.b Z Z Z b y.y.e.u.c.e.b e.y.y.r.0.0.Z A C V p d l p i i i i a a p i y t & & ",
"+ + # & & 3 y y y u a p p p a l p p p x v m Z Z r.r.0.u.t.f.y.c.b.M.C.F.A.C.S.S.A.C.S.v.d.t.S Z n n n v l a p i p y 3 3 & & # + ",
"O + + & 3 3 i p i u a p p p p a p p p v Z Z m v M.f.0.u.y.b.b.b.F.vXnXnXnXnXF.F.m.m.v.p.y.t.u.n.t.t.Z Z V v p 3 p p y i i t 3 & ",
"O O @ # & & t i i p p y p a p i p u 5 p v v m Z C.v.x.c.p.y.u.b.A.LXUXnXc.b.c.C.b.d.y.d.t.Z C C v n n n v a i 3 y y t 3 t & & & ",
"O O O + + & & & y p a i p p l a b v v v v v m e.M.x.p.c.c.u.u.c.D.F.F.c.v u.t.f.u.t.e.Z Z v v v u u p a u i i y 3 3 3 & & & & & ",
"O O O O + # # & 3 y i y 5 u a v Z C Z m b x b 0.r.$.r.c.v.u.m b c r.p.e.6 m p x u d p 5 3 & 3 3 p i 5 3 3 3 3 3 & & # # # # & & ",
"@ @ @ # & & 3 3 3 y u u u p p v b b Z e.e.0.0.e.r.$.$.e.t.e.e.r.s.v.x.r.x m b 0.m e.0.b v Z Z C p a u 5 3 3 t y 3 & # # # # & & ",
"# # # & 3 t i i p p p v n n v v Z b m e.u.f.f.f.p.p.c.v.c.p.u.p.x.x.r.i.e.u.y.y.m m b d d v v u 5 5 5 i u p p p y 5 3 & # # & & ",
"# # # & 3 y y i p u p v b b v v 0.b x m r.f.c.b.c.c.b.M.b.p.p.p.s.N.Z.bXF.C.v.f.r.e.Z b v v p 6 5 5 5 u u y y 3 u u 3 3 & & & & ",
"# # # & & 3 5 5 u u u d v v v b 0.b c b 0.y.p.p.b.c.u.r.e.r.x.M.m.A.D.bXN.$.M $.0.$.m b b d u u p u u u 5 3 , , 3 3 3 3 & & # # ",
"& & # & 3 3 3 5 u u u d d d b e.0.0.0.e.r.e.e.r.e.t.u.v.b.v.p.p.x.V.z.A.m.;.$.M c c c b b u 6 d p u u 5 5 y y u , , , & # # # # ",
", # # - t 3 3 5 u y u a a a d d n v n t.d.y.Z a b m e.y.y.y.p.b.N.vXA.y.m b d d v d d b b d d d 5 u u u 5 3 3 3 u , ; X % + 4 2 ",
"& @ + & t 3 3 4 3 3 3 u u u u d v x x x b b b c c c m e.e.e.r.p.D.vXZ.e.d d u d d q d d x d 6 q u u 5 5 5 5 4 3 * + t a a 9 2.(.",
"& + + & & 3 3 4 5 5 u 5 5 4 q q 7 6 x x d q q q k c c $.$.$.$.$.;.v.N.v.r.d d m b b b m b x d d b v d p d v v d e q d / 9.g.X.Y ",
"d q 6 6 6 6 u v p x x x c m $.0.r.p.v.v.a.s.s.i.i.a.z.m.z.z.z.m.x.m.N.B.a.$.M e.0.0.0.0.m b c c d u u u u u u u ; 2 H (.T.Y < 9 ",
"*.*.#.@.f d n S x b m m r.p.v.v.A.A.Z.B.N.B.B.B.N.B.A.A.Z.Z.A.D.A.Z.A.vXA.v.$.c $.b M c d d d d 4 d d d d d d d s ; % ..,./.2./ ",
"^ / / ~ w q x n x c b c $.u.p.p.i.s.s.i.s.v.m.a.N.B.Z.B.m.m.m.N.a.N.vXbXZ.s.$.c f f d q 9 q d d d b $.m b d x b 7 > 4 Z 5 % L $X",
"4 4 4 9 f 9 6 6 d x d q c $.$.c 9 c $.$.%.i.r.%.x.m.m.a.i.i.i.r.s.m.C.v.c q $.$.c M c f f c c d 4 q d d 6 4 4 4 K 9 u # # 3 7 7 ",
"; & 5 v $.@.f q u d 6 6 c 0.$.c c $.$.c q c O.c O.&.$.O.$.;.;.$.%.$.%.$.c r.p.@.$.$.$.$.@.@.c q 9 9 q 4 4 4 4 4 j * 9 1 / 2 4 & ",
"5 < s # K o.7 g 7 5 u c > I ~ g p x c c O.O.M b C b w #.f q i.+...z D c w v l M $.$.@.@.#.@.O.w f f q f d q q d g P 2./.-.7 7 d ",
"j q 4 % u = q.G 0 f d 6 7 k % z d f f f O.@.q.y.M &...&.b b 0.O.X.q.q.P K #.~ J f c @.@.O.O.O.O.$.c q q d q q f N :.V.o...$.q > ",
"< = = * N + j.<.< 0 h g v q 7 k g g f I ~ O.q.i.+. .+.O.m Z b O.6.w.q.h.j.h.%.=.@.@.@.@.O.O.#.%.i.+.O.O.O.O.c c & A q.g g a s F ",
"r ; s < 7.lXgX< & C + i i + f P 9 g ~ ~ f f c b #.O.+.f 0.0.I 5.&X6.-.{.$X-.b &.%.%.%.#.#.@.#.%.O...O.&.#.&.O.w q./ 8.g g < 7 d ",
"% : K aX3XeXW.# ; % 7 6 i z n $ d f O.O.w q d x A g c f @.-.,.%X0XXX<.J.1.-.r.$.%.%.#.+.#.@.O.~ -.i.a.a.a.s.s.s.5.-.5.5.l.}.=Xl.",
", 4 G 6XCXxXsX<.[ _ dX(.1 < 4 f q w w w w w w k g u d f O.X.P.sXyXoXI.oXXX3.w.w.O.I I ~ O.~ w 9 e I O.w w w O.&...k -.7.&XkXkX[.",
"r r 2 NXHXqX9XhXMX,XfX,XI.} P P w w I  . .+.+...f f w f I ,.XX<XsX%X/.&X*XQ ^ *.I I O.O.O.~ f w e w w 9 e 9 q w q u g K #XT.4.( ",
"% $ z :.1XCX}.=.1.+X:XCXlXR +.0 ^ +.*.5.h.5.-.*.*.-.+.+.^ 3.*XoX,.:.*.6.6...;.-.*.-.-.%.+.O.O.@.O.&.&.c c f w 9 Y s.w.G 6.R > D ",
"h 4 7 > ) 9.(.I.;X~.!.qXjXH 8.Z -.-.+.~ ^ *.X.E ,.! w.w.w.^ @.0.-.-.=.:.^ w.-.-.-.Y #.d c w P  .J #XR.( g Y  .3 ; <.! J ;.U <.1 ",
"> 4 # % 8 [ I.6XzX!.oXsXXXH ( 8 8 P I ~ 0 J Q 3.L *.*.w.3.! o.K P W ! o.+.#.P 8 U U U O.~ O.8 8 0 ,.[ I f J Y f w ^ g < d = q.h.",
"^ > 7 t 7 l.9XsX X;XVXAXjXXXH K 0 0 ~ #.I J X.j.#X$XR K U W 2.R -.5.2.R W I I +.P I J J 8 P I ~ d L G e f 1 1 / ..< / d A g -.I.",
"k.2 P r 2 ,.|.E.^.Q.CXZX.X#X( ) 0 8 8 I I K R ,.-XdXP.7. .I P U L 2.6.,.=.J ^ +.~ +.*.o.W 1 0 9 ~ *.Y e w w 1 G ) g.K.7 >. XE.fX",
"o.( /.J.%X_ G.0X;X:XpXzXR.! P I P P P P U W W R ^.<X&X#X-.I K /.T [ T.4.Q L -.W %.*.U 3.=.U ^ #.( -.^ e w c P Q L.~.`.3.5.xX0X3X",
"L ' oX-XhXY.~.CXeXpXrXeX@XR > ..K W Q Q =.2.=.X.U.T.P.,.E ,.K.sXR.T.T.,.E X.3.,.X.E K 6.[ j.K X.4.} ^ J w 9 Y T.`.`.>X*XT 6.{.+X",
"j.J.0XyXyXVXuX0XyX,X,X:X.XE 8.) ! ! E E Q Q Q Q ! [ ' ' ,.4.W.`.I.XXR.,.2.2.T ] J.J.#XT.P.T.' ' U.Q ^ L Y 1 T <X1XfX-XtXJX=X! ) ",
"| G.~.0X8XKXuX4XtX4XfX2XjX1.H ,.4.[ T [ 2.X.W W X.T.P.U.j.6.&X XW.dXR.' =.2.] %XoX|.mX{ K.I.oXgXJ.Q ^ W W ^ <.4XDXrXyX1XL.K.hX{.",
"oXFXE h.HXAXKXSXBXHX9X&X%XY.H.oXQ.oXL.] 6.} } } G.oX|.{ g.4.{ _.:XxX9X4.( 2.,.} L.OX6X{ J.U.<XyX3.! K L G *.2 @.U.gX0XW._.*X<X7X",
"`.tXI.4.|.<XcXuXIXHXFX+XI.L.!.E.~.aXoXI.}.<.<.<.G.oX|.<.4.J.[.W.yX7XqX[.U.<.' ).` OXKXkX@XmX X>XW.] W 3.#XG.4.~ R 1X3X~.I.;X1XT.",
"rXjXR.[ I.0XQ.!.KXKXFX.XoXL.aXQ.E.Q.-XuXFXFXwXwX.X9X9XR.T.[.kX XFX7XCX;X<XhXI.G./.lXAXqXqXW.W.!.4XW.#X(.~.aXI.T o.kX5X4X<X|.!._.",
"1X! ) } o.BX;XK.OX9XjX0X1X X-X5X>X<X:XpXtXCXZXAXSXZXFX|.P.I.sX^.FXuXtXGXyX X XL./.|.8X.XzXW.I.%XW.Q.oX^.{ R.XX.XQ XXyXxXI.T ] ` ",
"R.L K ,.R 9XAXhXoXL.cX0X X<X`.5XQ.>XyXeX-XeXGXJXSXAXFXW.|.oXoXQ.0XyX-XxX:X;XFXwXJ.|.6XoXhXdX X!.!.oXL.I.%X] PXDX) Q.2X,.%.7.J.T.",
"OXP.I.XX` .XGX>X~.W.<X X1X;XyX3X7XuXGXiXeXeXtXtXtX;XcX X<XjX:XeX-X<X-X0X<XkXJXBX XhX6X!.aX^.<XL.!.R.' ,.R.{ +X}.%XH.Y.( %.1.%X*X",
"BXGX0X<XaX<X;X].I.oXW.W.kX<XyXiXGXtXtX7XeXuXtXpXiX>XdX-X;X1X-X:X,X`.hXFX6XW.Q.:X4X;XuX~.<X~. XR.` R.$X,.] <.,.6. X{ /.[ $XT T ] ",
"zXZXtX;XaXL.1..X%XG.oXgXOXlXW.uX1XW. XQ.aX~.`.:XpX`.'.2X-X>XaX,X5X-XjXBXVXQ.].'.2XxX7X1XW.Q.oXU.U.I.W.` j.( } ` Y. X9XT } H.(.e "
};
