/* XPM */
static char *d4696cb5446a42b68d76adfa52ba31afYAaYlJqwA3XRYITZ[] = {
/* columns rows colors chars-per-pixel */
"64 64 204 2 ",
"   c #5A3B1F",
".  c #573E25",
"X  c #5B3E25",
"o  c #543F2C",
"O  c #5A3E29",
"+  c #613E23",
"@  c #3F4F0E",
"#  c #3F4F10",
"$  c #3D5010",
"%  c #414D0F",
"&  c #454B15",
"*  c #494917",
"=  c #4D461C",
"-  c #474B19",
";  c #4C4A1B",
":  c #4C4617",
">  c #52451D",
",  c #514A1C",
"<  c #5E411F",
"1  c #455316",
"2  c #4C4624",
"3  c #4D4820",
"4  c #554224",
"5  c #5B4125",
"6  c #524A22",
"7  c #56422C",
"8  c #5C4129",
"9  c #504A29",
"0  c #554330",
"q  c #624125",
"w  c #64442B",
"e  c #66462A",
"r  c #605F2F",
"t  c #634630",
"y  c #6D4D31",
"u  c #664830",
"i  c #714F33",
"p  c #615D33",
"a  c #745236",
"s  c #7B5536",
"d  c #7C5837",
"f  c #76553B",
"g  c #7A563B",
"h  c #76583C",
"j  c #7B583C",
"k  c #59642A",
"l  c #5F6230",
"z  c #666835",
"x  c #6E5A45",
"c  c #735741",
"v  c #7B5741",
"b  c #745942",
"n  c #7D5B40",
"m  c #685D57",
"M  c #7C634C",
"N  c #6B6257",
"B  c #7E6552",
"V  c #73665D",
"C  c #71695C",
"Z  c #7A695C",
"A  c #746457",
"S  c #6B6541",
"D  c #6E6C69",
"F  c #6E6B67",
"G  c #726761",
"H  c #746A63",
"J  c #726C6B",
"K  c #815736",
"L  c #815C3C",
"P  c #825E41",
"I  c #846143",
"U  c #8C6545",
"Y  c #8D6846",
"T  c #8C6649",
"R  c #8D694B",
"E  c #81634E",
"W  c #966B47",
"Q  c #986C47",
"!  c #956D4C",
"~  c #986D4B",
"^  c #916747",
"/  c #96704C",
"(  c #99704D",
")  c #8E6E58",
"_  c #8A6F54",
"`  c #946E51",
"'  c #966D53",
"]  c #8D715A",
"[  c #8D7256",
"{  c #947051",
"}  c #9E7451",
"|  c #92745B",
" . c #A37751",
".. c #A47854",
"X. c #AD7F56",
"o. c #AB7F5B",
"O. c #A37A58",
"+. c #8F7D6E",
"@. c #5C882E",
"#. c #4E9123",
"$. c #519325",
"%. c #559A2B",
"&. c #5B9E2C",
"*. c #5D8831",
"=. c #5E9A33",
"-. c #60862F",
";. c #618E35",
":. c #678D3A",
">. c #688A3A",
",. c #629E35",
"<. c #669139",
"1. c #6B953D",
"2. c #669B3A",
"3. c #5DA12E",
"4. c #5EA133",
"5. c #61A12F",
"6. c #63A335",
"7. c #65A53A",
"8. c #6BA53D",
"9. c #66A93A",
"0. c #6AAB3D",
"q. c #67A737",
"w. c #6CB13F",
"e. c #768D47",
"r. c #6D9A41",
"t. c #6E9641",
"y. c #729A44",
"u. c #7A9F4D",
"i. c #749948",
"p. c #7E9E52",
"a. c #6DA642",
"s. c #6CAC41",
"d. c #71AD45",
"f. c #76A24C",
"g. c #7AA44D",
"h. c #75AE49",
"j. c #7AAC4C",
"k. c #72A143",
"l. c #6DB044",
"z. c #73B446",
"x. c #75B847",
"c. c #75B549",
"v. c #7AB24C",
"b. c #75B94A",
"n. c #7BBB4D",
"m. c #7EA552",
"M. c #7DAB51",
"N. c #7FB251",
"B. c #7FB651",
"V. c #7DBD51",
"C. c #77B850",
"Z. c #7DC153",
"A. c #859C58",
"S. c #AD8056",
"D. c #AE825D",
"F. c #B5865D",
"G. c #B9865C",
"H. c #B6885E",
"J. c #BB885D",
"K. c #83A356",
"L. c #81AB53",
"P. c #8AA058",
"I. c #88AB59",
"U. c #82B353",
"Y. c #80BE55",
"T. c #86BC5A",
"R. c #8BBC5D",
"E. c #8BB65C",
"W. c #90BE5E",
"Q. c #8D8176",
"!. c #8E857C",
"~. c #948375",
"^. c #91847B",
"/. c #AE8462",
"(. c #AE8A65",
"). c #B38662",
"_. c #B48863",
"`. c #B88860",
"'. c #B38969",
"]. c #93A964",
"[. c #8FBD61",
"{. c #90BE62",
"}. c #98B66A",
"|. c #9EBD72",
" X c #A7BA7A",
".X c #81C256",
"XX c #8CC25E",
"oX c #84C159",
"OX c #92C25F",
"+X c #8EC361",
"@X c #91C362",
"#X c #98C767",
"$X c #96CA66",
"%X c #96C769",
"&X c #97CB6A",
"*X c #99CD6B",
"=X c #9DC26D",
"-X c #97D168",
";X c #A3C475",
":X c #A6C778",
">X c #878784",
",X c #898685",
"<X c #878883",
"1X c #898885",
/* pixels */
"c.c.c.c.b.b.x.x.z.z.c.c.9.7.7.7.q.q.q.q.d.l.l.s.3.4.4.4.s.s.0.0.Z.Z.V.V.x.x.v.z.q.0.9.0.7.9.9.9.0.9.0.9.4.6.6.=.$.$.#.#.s.l.w.w.",
"c.c.c.z.c.c.c.x.z.z.z.x.9.7.7.7.q.q.q.9.d.z.l.0.4.&.4.6.0.s.s.0.Z.Z.V.V.x.b.b.x.0.0.0.0.9.9.7.9.0.0.0.9.6.6.4.=.$.#.#.$.s.s.l.w.",
"z.z.z.c.x.x.c.c.c.x.x.z.9.q.q.q.q.9.7.8.d.d.h.8.5.3.&.6.0.0.s.0.V.V.n.n.x.c.b.c.0.0.0.0.9.7.7.9.9.9.0.9.6.6.6.4.$.$.#.#.s.z.s.s.",
"z.x.b.c.c.c.c.b.c.v.v.v.8.8.8.8.0.0.a.a.f.f.u.k.,.6.6.6.0.0.0.s.n.n.n.x.n.b.C.C.d.d.d.d.0.9.9.0.0.9.0.q.6.6.6.4.$.$.$.$.0.0.s.d.",
"x.x.b.z.0.0.s.c.T.T.T.T.N.v.v.v.B.U.U.K.- ; ; k f.s.s.9.6.4.6.4.4.4.,.7.XX+X+X+XXXXXXXXXv.x.z.z.6.6.6.6.0.s.0.9.9.9.9.7.0.9.0.0.",
"b.x.c.z.0.0.d.c.T.R.T.R.N.N.N.N.N.U.I.P.6 4 4 k f.a.s.s.6.6.6.6.4.4.,.7.XX+X@X@XR.R.+X+Xc.c.z.z.6.6.6.6.0.0.0.0.9.9.9.9.0.8.0.s.",
"x.x.c.b.s.d.d.v.T.R.R.R.v.v.N.N.U.U.L.P.4 . 4 k f.s.0.s.6.6.,.6.4.4.,.q.XX+X+X@XW.W.XX+Xc.c.z.z.6.6.6.6.s.s.0.0.7.0.7.s.8.s.a.s.",
"n.n.V.v.<.:.:.i.{.+XXXR.v.j.h.h.v.v.j.A.4 O 4 k g.s.s.s.*.*.-.@.8.7.7.8.oXXXXXXXR.W.XX+XU.V.V.U.@.*.-.*.7.7.9.7.7.7.6.8.;.:.:.:.",
"XXXXR.I.1 : * z ;X*X&X-X7.7.8.7.0.0.a.i., . 4 z L.d.d.j.$ * - # M.c.c.c.Y..XY.oX@X@XOX@X$X$X$X=X& * * 1 *.%.%.%.6.6.4.2.@ * = = ",
"R.[.[.].= 5 4 z ;X*X&X$X7.6.7.7.9.0.s.i.= 5 4 l m.d.s.g.- 4 4 * L.z.c.b.Z.Z..XY.@X@X@X@X#X#X#X|.= 4 4 ; ;.%.%.&.4.4.4.1.* 4 5 5 ",
"{.R.R.].6 4 . z :X*X&X-X7.7.7.6.0.0.8.y., . 4 l g.z.z.g.- 4 5 * M.x.z.c.Y.Y..X.X@X@X+X@X#X%X%X|.= 4 4 ; ;.%.%.%.4.4.4.1.; 5 5 O ",
"}.}.}.].9 0 7 S  X;X=X=Xy.y.r.r.a.0.a.y., . 4 p K.L.m.A.= 8 X * L.z.c.v.R.E.E.E.@XXX+X+X}.|.|. X4 5 8 6 >.;.;.<.1.1.1.e.> 5 8 8 ",
"2 = = 9 V H G N 2 = = = = ; * # M.z.h.u.= O . 4 = = ; = 4 . . * 1.6.,.<.% * * k g.d.d.g.& = > > h f f h > = = = = = = > h h h f ",
"O O 7 0 H J J m o O O X 8 8 4 * M.z.h.u.= O O O O O X O O 8 4 * r.=.,.1.= 5 4 r m.d.d.f.* . X X h h g f X X O O O O X X f g h g ",
"O O 4 0 H F D N 7 O X X X 5 4 * M.h.h.p.= X O O O O O 8 O 5 4 * t.,.,.:.= 5 4 z K.h.d.f.; 5 8 X h g g f X X X X O X X X f g g g ",
"+ X 5 8 A H C m O + + + q X < , P.L.K.A.6 q + + 8 8 8 8 8 8 5 : e.t.i.e.4 5 4 p A.m.m.A.2 o o O h g h f 5 X 5 X X X X X f g h h ",
"' { { R b x c M { ! ! ! _._.).(.> = = 4 ! ! ` T g g h f h f g h > = = = 5 O 5 4 4 3 = 2 C H H Z b h h n ` ! ' I X O O O f g f f ",
"! ! ! W h h h P ! ! ~ Q ).F.F._.X O X e ! ~ ! R s s g g f g g g X O 8 O O X O X O O . 0 G J D G c g f h ! ! ~ P . O O O f g g h ",
"( ! ~ W g g g L ! ~ ~ W `.F.F._.X . . q ! ! ! Y s g g g g h g g X X X O O O O X O X 8 7 C F J G c g h j ! ! ! I X X O O g g g g ",
"! ! ! W a f f P ! ! ~ ~ D.F.F./.q 5 5 e ! ! ! Y g f a f a f f a X O 8 X w O X 8 X 5 5 8 A V V A c g f h R ! ! P X 8 w q j K j j ",
"h h h f X O X y { / ! ! ( ~ ~ / g g f g ! ! ! I X X X 8 O 8 O O O O X X g g g g h g g f O 7 0 . g j h h h g j h h f g j ).).)./.",
"f h g f 8 8 X y ! ! ! / ! ! ! ' g g g j ' ' ! I X O O O X X O O O O X 5 h g g g g g g g X 8 X X g j f h g g g g g g g s `.F.F.H.",
"g g g f X X X y { ! ! / ! ! ' ' g v v n ! ~ ! I X 8 O X 8 X O O O X X w f f g h g g g f X . X X g g f h h h g g h g g K F.F.F.F.",
"U U Y P 5 X X u T R Y Y Y T T R E B E E R Y ^ P w w t w a f g g g s a a h g g n T U U Y a g s a g g h h P P P n g g g s S.X.X.X.",
").`.).o.+ X X w g g g g g g g h ^.!.^.+.h s s g g h g g '._.).`.).`.)./.j g g U _.).F.F.)._._._.g g g j ! ! ! R g g g g ! ~ ~ ! ",
"G.F.F.D.+ X O t g g g g g g g b !.<X1XQ.b g g g g h g j _.`.F.G.G.G.F./.j g g Y `.H.G.G.G.F.)._.g g g j ! ! ! Y s h g g ! ! ! ! ",
"G.F.H.D.+ X O w g g g g g s g b !.<X<XQ.b g g g h g g g _.F.F.G.G.F.F./.g g g U `.F.G.G.G.G.F._.g g j j ! ! ! Y s g g g ` ! ! ! ",
"G.F.F.o.q 5 X w j g s s s s d v ~.^.^.+.n g g g g h g g _._.).).F.F.)./.h f f T _.F.F.F.F.F.)._.g f g j ! ! ! W s g h h ! ! ! ! ",
"F.F.).).s g g I _.).).).).)._.'.` ) ) ` ! ~ ~ T g g g g g s s s ~ Q ~ W + X X y ! ! ! ! ~ ! ! ! g h h g g g g P ' ! ` ! ! ! ! ! ",
"F.F.F./.j h g Y `.F.F.F.F.F.`._.! ' ( ! ~ ~ ~ R g h g g g h g s ~ ~ ~ W 5 X X y / ! ! ! ! ! ! ! h h f g g g g P ' ! ! / ! ! ~ ~ ",
"H.H.)./.j g g U `.F.F.F.F.F.).).! ! ! W ! ! ! T h g g g h f h g { ! ! R X X X y / / ! ! ! ! ! ' g g h h h g g P ! ! ! ! ! ! ! ! ",
"H.).`./.g g g Y '._.).`.`.`.`._.! ! ! ! ! ! ' T g g g g f h h g ` ` ` R + X + i / ! ! ! ! ! ! ` g g h g h f g n ` { ` ' ! ! ! ! ",
"/ ! ~ W g h h g g g g s ! ! ! ' g g g j ! ! ~ Y g g g f 8 X X X g g g j ! ` ! ! ! ! ! ! g g g d g g h g h h g y X X X X g g g g ",
"! ! ! ! g h g g g g g g ! ! ! ' g h g g ! ! ! Y g g g g X O O X f g g j ! ! ~ ~ ! ! ! ` g g h g s g g h h h g y X O O 5 f g h f ",
"! / ! ! g g g j g g g g ! ! ! ' g g g g ! ! ! R g j g f 8 X X X f h g g ! / ~ ~ ~ ~ ! ' g g g g g g h h h f g y X X X 5 f g h f ",
"! ! ! W j g j g a f f f ! W W ! h g g j T R R I a a f a w X q w h h g j R W W W W W ! R v g g g j d j L L L L a 5 X 8 q g j j g ",
"~ ! ~ ! ! ! ! I X 5 X X g g g g g h h a q X X 8 X 8 X 8 f f f f h g f g g g g g g g g h g f g s ).F.F.F.F.F.)...s g f f ` W ! ! ",
"~ ! ~ ! ! ! ! j . X O O f g g g h g g f X O O X O . X X g g h h g h h g g g g g h h f f h h h s `.G.G.G.G.G.G. .s g g f { ! ! ! ",
"~ ~ ~ ! ! ! ! I X 5 O X f h g g h g g g X O X X O O X X g g g g g f h f j g g g g g g g g g g s ).F.G.G.G.G.G...s g h h ! ! ! ! ",
"! ~ ~ ~ ! ! ! I w w w w I Y U U U U Y I e w w u f f f f L L L L a a a a U U U U U U U U g g g s o.X.S.S.X.X.F.} I M B M T Y U Y ",
"! ! ! ! ! ! ! T g g g j _.).`.)._._.).).g g h T '._._._.! ! ! ` X X X e _.).`.`.).`.`./.s g j g ! / ~ ~ ~ ! ! | ~.!.!.~.h s g g ",
"/ ! ! ! ! ! ! T g g g s ).G.G.F.F.`.F.D.g g g Y `.F.F.F.! ! ! ! X X X e ).F.F.F.F.H.F.D.g g g g ! ! ! ! ! ! { | ^.,X,X!.b g g g ",
"! ! ! ! ! ! ' T g g g s `.F.G.F.F.F.F.F.s g g U F.G.G.F.~ ! ! ! . . X e D.H.G.F.F.).)._.g g v g ! ! ~ ! ! ! ' | ^.,X1X!.b g g g ",
"/ ! ! ! ! ! ` T g g f s ).`.F.F.F.).F.F.K s K ^ F.F.F.).! ! ! ` 7 7 7 w /.F.F.F.).).).).g g g g R ' W ! ! ' ' | ~.!.!.Q.b f f f ",
"! ! ! W g s g g g h h g ! ! W ! ! ! ~ ~ ).F.F. .s s s a ! ! ! { Z H V Z ` ! ! Q ! ! Q ! g g g j X   X q ` ! ! T f b b b X X O 8 ",
"/ ! ~ W g g g g g g f g ! / ! ! ! ( ! ~ F.J.F...s g g g ! ! ! ) H J J Z ] ! ! ! ! ~ ! W j g g g X X . q ` { ! Y g g g f X X O O ",
"! ! ( ! g g g g g h g g ! ! ! ~ ~ ! ! ( F.F.F. .s g g g ' ! ! | H D H Z [ / / ! ~ ! ~ ! g f h h O 8 X q ! ! ! Y s g g g 8 O O O ",
"{ ! ' ! g f h g s g a s ! ! ! ' ! ~ ! ! F.`.)...s s s a ' ' ! | Z H V Z _ ! ! ! ' ' ! ! h h g f 8 8 8 e ` ! ! Y s s s s q X + + ",
"g g j a 8 O X y { ! ! ! s g g g ! ~ ! ! ! ! ! } _.).).).s g g g b c b h f h g g g g g g g g g g g v g g g g g U _._.).).)._.`.`.",
"g g g f O O X y ! ! ! W j h g h ! ! ! ! ! ! ! } F.G.F.).s g g g g g g f g g h g g g g g g g g g g g g h f g g Y `.F.F.G.F.G.H.F.",
"g g g f X X X y { ! / ! g g g g / ! ! ! ! ! ! } `.J.G.F.g g g g b b h g h f g g g g g h f h g g h h f h f h j U _.F.F.G.G.G.G.G.",
"g h g a e q q y R R ! R h g v g R R R T ' ! ! } F.F.G.D.j h j h v f f g f f f h L L j h f h f a g g h g j L L U ).F.G.G.G.G.F.F.",
"h f f h R ! W R g g g h g f g f X 8 8 w g g g P ! ( Q ~ ! ! ! ! g g g f X X X a /.F.F.(.X X X X h g g L D.).F.S.~ ~ ~ ~ ~ ~ ~ ~ ",
"f f v g ! ~ ! Y s g h g h f g h O O O 8 h j h P ` ! ! ! ! ! ~ ! g h g a . X X g `.G.`.).+ X O X f g g K ).J.G.X.Q ~ ! ! ! ! ! ! ",
"g g h h ! ! ! Y g g g g h g g g X X O w a g g P ` ! ! ! ! ! ! ! g g g a 5 X X a ).F.F./.+ X X X b g g L ).F.F.S.Q ! ! ! ! ! ~ ~ ",
"L P n P Y Y Y I y a i a U Y U T e w w w y i a h T R Y Y I I P I h h g g w w w f O.....O.X X X X f g g L .... . .! ! ! ! ! ! ~ ~ ",
"! ! ! R g g g i X O X q (._.)._.g f f f X X 8 t g g g g X X X X h h g g h f h g g s g f X O X X h h g g s s s L ! ! ! ( ! ! ! ! ",
"~ ! ! ! g g g a X O X + _.).F.).g g h f X 4 7 t h g g g O X X X f h f g g g g g g g g f X X X X g g g h g g g P ! ! ! ! ! ! ! / ",
"! ! ! ! g j h y X X X + _.F.G.).g f h f 5 X X w g g g g 8 O X X f h g g g g g g g g g f X X X . h g g h g g h P { ! ! ! ! ! ! ! ",
"! ! ! W s g f a q q q q ).F.F.).s h h f 5 X X u b b b c 8 X X X g j h h g g g g g g h f q X X 5 h h g g h g j n ! ! ! ! ! ! ! ! ",
"! ! ! ! j g h U (._._.).~ Q Q ~ ~ ~ ! R g h b M ^.!.!.~.] { { { ! ! ! ! ! ! ! ! g g g h f h h f ` ! ! ! ! ! ! R s s g f X X X X ",
"! ~ ! ! g f s Y _.).).).~ ! ! ! ~ ~ ! ! g g b B !.,X>X!.] ! ! ! ~ ~ ! ! ! ! ! T s h g g g g g j ! ! ! ! ~ ! ! Y s g g f X X O O ",
"! ! ! W g j g U _.F.G.F.! ! / / ! ! ! ! g g g B !.<X<X!.[ ! ! ~ ~ ~ ! ! ! / ! U g h g g g g g g ! ! ! ! ! ! ! T g g g g X X 8 O ",
"! ! ! ! s s g U _.F.G.F.~ ! ! ! ! ! ' ! g g g B ^.<X1X!.[ ! ~ ~ ~ ~ ! ! ! / ! T g g g h g g v g ! ! ! ! ! ! ! T g g g f 5 . O O "
};
