/* XPM */
static char *_403d50cc165426a9838d96636f8dd76tQCv3xj4VzaYzZks[] = {
/* columns rows colors chars-per-pixel */
"64 64 196 2 ",
"   c #1C1A2F",
".  c #1C1A34",
"X  c #1C1B3C",
"o  c #211E39",
"O  c #23223C",
"+  c #212032",
"@  c #342D3F",
"#  c #7E311F",
"$  c #1D1B41",
"%  c #222140",
"&  c #332F44",
"*  c #363345",
"=  c #36344C",
"-  c #39364D",
";  c #3A394B",
":  c #37384A",
">  c #363655",
",  c #393655",
"<  c #353857",
"1  c #3C3B54",
"2  c #373658",
"3  c #393659",
"4  c #3A3A59",
"5  c #403E55",
"6  c #4D4A5D",
"7  c #4A4559",
"8  c #514D5C",
"9  c #4D4C64",
"0  c #4C4C68",
"q  c #504D64",
"w  c #535063",
"e  c #605C6A",
"r  c #656172",
"t  c #AF1B17",
"y  c #A51C1D",
"u  c #AD1A1C",
"i  c #B31415",
"p  c #B6141B",
"a  c #BA161E",
"s  c #B31B1C",
"d  c #B9181E",
"f  c #BC1A17",
"g  c #942E0F",
"h  c #9F290E",
"j  c #9F270E",
"k  c #882D1B",
"l  c #9B2715",
"z  c #932D13",
"x  c #9C2814",
"c  c #9C2619",
"v  c #9C281A",
"b  c #82321F",
"n  c #943014",
"m  c #A0280E",
"M  c #A1270F",
"N  c #A32412",
"B  c #A02810",
"V  c #A12119",
"C  c #961F2E",
"Z  c #981F2E",
"A  c #981F31",
"S  c #AF1724",
"D  c #A61B22",
"F  c #AA1A23",
"G  c #AE1629",
"H  c #B31525",
"J  c #BB1621",
"K  c #B91820",
"L  c #B21529",
"P  c #B21824",
"I  c #852D23",
"U  c #892E26",
"Y  c #8F242A",
"T  c #93222C",
"R  c #9C222B",
"E  c #823221",
"W  c #962030",
"Q  c #992033",
"!  c #BC3C27",
"~  c #B73C2F",
"^  c #BD3C2A",
"/  c #B6372E",
"(  c #B73833",
")  c #DB2F17",
"_  c #D52D1D",
"`  c #DB2F1A",
"'  c #CE361E",
"]  c #DB3116",
"[  c #D1351F",
"{  c #DA3019",
"}  c #DA311A",
"|  c #DB301D",
" . c #DB3019",
".. c #E93F1D",
"X. c #EA3E16",
"o. c #CF2D26",
"O. c #D32B21",
"+. c #D52A22",
"@. c #D62A20",
"#. c #D72E25",
"$. c #D42C22",
"%. c #D92E24",
"&. c #D22B2B",
"*. c #CD3426",
"=. c #D13522",
"-. c #D03428",
";. c #B5412E",
":. c #EB4317",
">. c #EA4215",
",. c #ED4217",
"<. c #ED4215",
"1. c #EB4416",
"2. c #EA4119",
"3. c #ED4319",
"4. c #EB421E",
"5. c #ED431C",
"6. c #ED441D",
"7. c #E84325",
"8. c #EA4122",
"9. c #E74428",
"0. c #A59EA5",
"q. c #A99FA7",
"w. c #ABA3AA",
"e. c #A6A0A7",
"r. c #BBB1AF",
"t. c #BFAFB1",
"y. c #BDB3B3",
"u. c #BEB9B6",
"i. c #B5B4BC",
"p. c #B9B6BC",
"a. c #BEB8BA",
"s. c #B5B8BF",
"d. c #CEA5A4",
"f. c #CDA9A4",
"g. c #D4A3A7",
"h. c #D0A8A5",
"j. c #D5A3A9",
"k. c #C0B3B3",
"l. c #C1B9B7",
"z. c #C1B7B8",
"x. c #C5BCBC",
"c. c #C8BCBE",
"v. c #EBBEB5",
"b. c #EABEBB",
"n. c #EDC0B6",
"m. c #EFC0B8",
"M. c #F9C8BD",
"N. c #F8C8BE",
"B. c #B6B5C2",
"V. c #B9B7C2",
"C. c #BCBAC3",
"Z. c #B7B9C4",
"A. c #C2BEC6",
"S. c #E7BEC5",
"D. c #C2C1C6",
"F. c #C5C2CA",
"G. c #C9C7CE",
"H. c #CECDCC",
"J. c #CACCCA",
"K. c #D1CEC7",
"L. c #D0CECC",
"P. c #CED0CD",
"I. c #D1D1CE",
"U. c #DED7CF",
"Y. c #CDCCD2",
"T. c #CDCCD9",
"R. c #CAC8D4",
"E. c #D1CED3",
"W. c #D0CEDA",
"Q. c #CDD0D3",
"!. c #CED1DA",
"~. c #D3D2D3",
"^. c #DBD6D5",
"/. c #DBD9D5",
"(. c #D4D3DA",
"). c #DCD7DA",
"_. c #DDD9D9",
"`. c #EBCCC4",
"'. c #EDCBCA",
"]. c #F4C6CC",
"[. c #F3C9CB",
"{. c #F3C8C3",
"}. c #E0D6D5",
"|. c #E0D8D6",
" X c #E0D7D9",
".X c #E0DBD8",
"XX c #D1CEE1",
"oX c #D8D7E3",
"OX c #DCD9E2",
"+X c #D9D7E7",
"@X c #FFEEE5",
"#X c #FFEDEC",
"$X c #FFF1EB",
"%X c #F6F3F4",
"&X c #FFFEFE",
"*X c #FAF6F6",
/* pixels */
"<.<.:.:.<.<.3.2.] ` ` #.p H L p 7.:.<.<.2.2.:.2.] { | #.p P H i 8.<.:.:.<.<.2.2.] ` ` #.p H L p 7.:.<.<.2.2.:.2. .{ ` #.p P H L ",
"<.<.:.2.<.<.:.X.] ` ` %.i P L p 7.:.<.<.2.:.:.2.] ` ` #.i P H p 7.<.:.:.<.<.:.2.] ` ` %.i H L p 7.:.<.<.2.:.:.2.] ` ` #.i H L L ",
"<.1.:.2.<.<.3.:.] ) ` %.i S L p 7.1.:.1.:.3.<.X.] ` | #.i P L p 7.:.:.:.<.3.<.:.] ) ` %.i S L p 7.1.:.1.:.3.<.X.] ` | #.i P L L ",
"5.6.4.4.5.5.5...{ _ %.&.t y F t 9.3.3.6.5.5.5...| %.#.o.s y F t 9.5.4.4.5.5.5.4.{ _ %.&.t y F t 9.3.3.6.5.5.5...| %.#.o.s F F F ",
"] ] ] ] ] ] { _ f p d s V v v N [ ) ] ] ] ] ] _ f p s u V c c N [ ] ] ] ] ] ] _ f p d s V v v N [ ) ] ] ] ] ] _ f p p u V c c c ",
"` ` ) ) { { { $.K H H F v z z B [ ` ` ) ` { { O.J H S y v z z m [ ` ` ` { { ` $.K H H F v z z B [ ` ` ` ` ` | O.J L G D v z z z ",
"` ` ) ) ] ] { O.K H L F c z z B =.` ` ` ` { ` O.d H H D c z g m [ ` ` ` ] { ` O.K H L F c z z B =.` ` ` ` { ` O.J L L D c z z g ",
"` ` ` ) { { ` @.K H L F c z z B =.` ` ` `  .` O.J H L F l z z m [ ` ` ` { { ` @.K H L F c z z m =.` ` ` `  .` O.a H L F l z z g ",
"{ { ` ` ` ` ` @.K H L F l z z h [ ) ` ` ` ` ` @.J H L F l z z B [ ] ` ` ` ` ` @.K H L F l z z h [ ) ) ` ` ` ` @.a H L F l z z z ",
"{ { ` ` ` ` ` @.K H L F l z z h [ ) ` ` ` ` ` @.J H L F l z z B [ ] ` ` ` ` ` @.K H L F l z z h [ ) ) ` ` ` ` @.a H H F l z z z ",
"` ` ` ` ` ` ` @.J H L F l g z m [ ` ` ` ` ` ` @.a H L F l z z m [ ` ` ` { ` ` @.J H L F l z z m [ ` ` ` ` ` ` @.a H H F l g z z ",
"` ` ` ` ` ` ` @.J H L F l z z h [ ` ` ` ` ` ` @.a H L F l z z m [ ` ` ` { ` ` @.J L L F c z z h [ ` ` ` ` ` ` @.a H L F l g g g ",
") ) ) ` { ` ` @.J L L F c z z x [ ` ` ` ` ` ` @.K H L F l z z h [ ) ) ) { ` ` @.J L L F c z z x [ ` ` ` ` ` ` @.d H L F l z z z ",
") ) ) ) { ` ` O.J L L F c z z x [ ` ` ` ` ` ` O.d H L F c z z h [ ) ) ) { ` ` O.K H L F c z z x [ ` ` ` ` ` ` O.d H L F c z z z ",
"` ` ` ` { ` ` O.K H H F c z z h [ ` ` ` ) ` ` O.d P H F c z z m [ ` ` ` { ` ` O.d H H F c z z h [ ` ` ` ) ` ` O.d P H F c z z z ",
"` ` ` ` { { ` O.d H H F c z z m [ ` ` ) ) ) ` O.d P H F c z z M =.` ` ` ` ` ` O.d P H F c z z m [ ` ` ` ) ` ` O.d P H F c z z z ",
"` `  .` ) ` ` #.d H H F c z z m [ ` ` ) ) { ` O.d H H F c z z m [ ` ` { ` ` ` @.d H H F v z n h [ ` ` ` ` ` ` _ d P H F l z n z ",
"` ` ` ) )  .` O.d H H F c z z m [ `  .) ) ) ` _ d H H F c z z M [  .{ { ` ` ` @.d H L F l z n h [ ` { { ` ` ` _ d H H F l z z z ",
"] ] )  .) | %.+.K H L F v z z x ' ` ` ` { { { O.K H L F v z z B [ ] ] ] {  .` O.d P H F c z z j [ ` ` { ] ) ` $.K H L F c z z z ",
"^ ^ ^ ! ^ ^ ^ ( R R A T I # # k ;.^ ^ ^ ! ! ^ / R R Z T I # E k ;.! ! ! ! ^ ^ ( R T W Y U b E k ~ ^ ^ ^ ! ! ^ / R T W T I I E E ",
"@X@X@X@Xv.n.n.b.[.].].].'.`.`.{.v.v.v.n.v.n.m.b.{.].[.[.`.`.`.{.M.M.M.N.n.v.v.v.b.S.S.S.'.`.'.[.{.N.N.M.M.M.M.{.[.].].[.#X$X$X$X",
"&X&X&X*XI.H.H.I.^.^.}.}.^.^.}.^.K.K.K.K.K.K.K.K.^._. X|.^.U.^.}.}.U.^.^.K.K.K.H.H.Y.L.H._.).). X^.}.^.^.^.^./././._. X X&X&X&X&X",
"&X&X&X&XP.H.H.I././.^.^.).).).^.K.L.E.H.L.K.L.I././._.^._./.^.^. X^.|..XH.H.H.H.H.H.H.E.)._.).^._././././.^.^./.^.^././.&X&X&X&X",
"&X&X&X&XI.I.P.H.D.F.F.F.F.F.F.D.s.i.i.p.L.L.I.H.F.D.F.F.^.^._.^.)._._.(.p.i.s.p.H.E.~.Y.F.F.F.F.F.F.D.D.A.C.C.D.(.^.^./.&X&X&X&X",
"&X&X&X&X_././.F.r q q q 9 q 9 9 = = = * ~./.^.F.r q 9 w ~.~.I.I.I.H.Q.(.- = - 6 A.).^.(.8 q 9 9 q q q 9 1 1 - 6 V.~.E.~.&X&X&X&X",
"&X&X&X&X/.^.^.F.q 2 > 2 2 > > < X X X   ~././.D.q , > 1 T.Y.H.H.H.P.Q.T.O X X - A._.^.(.* 1 > > 2 > > > X X X = V.Y.Y.H.&X&X&X&X",
"&X&X&X&X/._._.D.q 2 > > > > > > X X X   ~././.D.q > > 1 T.Y.H.H.H.H.Y.!.O X X 1 C./._.(.* 1 > > 2 > > > $ X X = i.H.P.H.&X&X&X&X",
"&X&X&X&X^.^.^.F.w 5 1 1 > 2 > > o O O + ~././.D.9 2 > 1 T.R.G.G.Y.L.Y.!.O X X > A._.).(.; 5 1 , > 3 2 > % O O ; p.H.H.P.&X&X&X&X",
"_././._.u.u.u.u.Y.Y.Y.R.. X X o T.W.T.T.H.L.H.C.9 > , > 1 = - : ~.H.H.!., > > 9 V.Y.E.Y.OXoXOX+X1 > > > oXOX).).)._..X/././._./.",
"/./././.u.r.y.l.J.H.Q.R.. X X X W.H.Y.Y.~.L.Y.V.9 > > 1 4 > 2 - ~.H.P.Y.1 > > 9 V.~.H.L._.)._.+X= > 2 > (._./.^._./.^./././././.",
"/./././.u.y.y.z.J.H.H.G.. X $ X Y.H.Y.Y.H.H.H.V.9 > 2 2 2 > 2 , E.H.H.T.4 4 2 9 s.P.H.H././.^.OX1 2 2 - (./.^./././././././././.",
"/././._.y.y.y.u.H.H.H.R.. X $ . E.K.H.H.H.L.H.p.9 > 2 1 1 1 , - W.(.T.XX, > > 9 Z.H.H.H./.^./.).1 3 2 - (./.^./././././._./././.",
"&X&X&X&XH.H.H.L.^./._.(.= 2 3 1 )././././././.D.9 2 2 1 +XOXOX+X; - > 2 1 > 3 9 Z.Y.H.H.H.H.H.E.. $ $ . R.H.L.L.u.y.y.y._.^.^./.",
"&X&X&X&XH.~.H.I.^././.~.- 2 3 - OX/./././././.D.9 2 > 1 OX_./.OX- 2 2 > 2 > 2 0 V.Y.H.H.Y.Y.H.T.. $ X . G.H.E.J.l.y.y.y._.^.^./.",
"&X&X&X&XL.H.H.I.^././.~.- 2 2 1 OX/./././././.F.9 > > 1 OX_./._.- 2 2 2 > > 2 9 V.P.H.H.Y.P.H.Y.. X X . G.H.L.J.u.y.y.y././././.",
"&X&X&X&XE.H.L.I././._.(.= > 2 - OX_./././.^.^.F.9 < < 1 OX_./._.; - - 1 > > > 9 s.H.H.H.H.H.H.Y.. X X . R.H.L.J.u.u.y.y..X/././.",
"&X&X&X&X_._././.I.H.H.G.. X $ X Y.K.K.I.^.).).F.9 > > , W.Y.H.H.G.R.G.T.O X X = s.H.H.H.H.H.H.T.X X X . (.).^.^.H.H.H.I.&X&X&X&X",
"&X&X&X&X_._._./.L.H.H.R.. X $ X E.L.H.L.).).).D.q > > 1 T.Y.Y.H.Y.Y.E.W.O X X = s.H.H.H.H.Q.Y.T.X X X . (._._.^.I.H.J.I.&X&X&X&X",
"&X&X&X&X_././.^.L.L.Y.G.. X X X T.H.H.K.^./.).F.9 > 1 5 R.T.E.H.H.H.Y.T.O X X = B.Y.Y.Y.H.Y.Y.T.. X X o E.)./.^.I.H.H.I.&X&X&X&X",
"%X%X%X%X~.~.^.I.J.J.H.G.@ * = * R.J.J.J.^.^.^.A.e 6 6 6 Y.H.J.J.J.H.J.Y.* = & 7 i.H.H.J.G.H.H.Y.* = = @ E.^.^.I.H.H.J.J.%X%X%X%X",
"x.x.c.x.l.u.l.l.z.z.z.a.e.0.0.0.a.a.z.l.l.l.z.z.w.e.w.w.a.u.l.z.u.u.l.u.0.0.0.q.u.u.z.z.z.a.z.z.0.0.0.q.u.u.l.l.z.z.z.z.x.x.x.x.",
"y.y.k.k.y.y.y.y.y.k.y.z.y.y.y.y.y.y.k.k.y.y.y.y.y.y.y.y.z.y.y.y.y.y.y.k.y.y.y.z.y.y.y.y.y.y.k.k.u.u.y.y.u.y.y.y.y.y.y.k.y.y.y.y.",
"y.y.k.k.y.y.k.k.k.k.k.y.u.y.k.k.y.k.k.k.y.y.k.k.y.y.k.k.y.y.t.k.u.u.y.y.y.k.t.t.y.y.y.y.y.y.k.k.y.r.k.k.y.y.k.k.y.y.k.k.y.y.k.k.",
"j.j.j.j.g.g.j.g.d.d.h.d.f.f.f.h.g.j.g.g.g.g.g.g.f.f.d.d.f.f.f.d.d.g.j.j.j.g.g.j.f.f.f.f.f.f.f.h.j.j.j.j.j.j.j.g.f.f.f.f.f.f.f.f.",
"A A A W T T T Y U E E E E E b I T T A A W W W Y U E E b b E E I T T A Q C T T T U E E E E E E I T A A C A C T T U b E E E E E E ",
"L L L L L G G D c z z z z z z c F L L L L G G D c z z z z z z c F H L L G L G D v z z z z z z c F L L G L L G F c z z z z z z z ",
"L L L L L L L F c z z z z z z l u H L L L L L F v z z z n z z l F L L L L L L F c z z z z z z c F L L L L L L F c z z z z z z z ",
"J p p p p J p u V l l l z z z l t d d J J H J u V l l l l z z l t J p p J p p t V l l l z z z l t p p J H J J u V l l l l z z z ",
"%.%.%.#.#.#.#.o.s u F y l z z x -.%.%.#.%.#.#.o.s u F y l z z B -.%.%.#.#.#.#.o.s u F y l z z x -.%.%.#.#.#.%.o.s u F y l z z z ",
"` ` ) ] { { ` O.d H L F c z z h [ ` ` ) ` ` ` O.d H H F c z z m =.` ) ] { { ` O.d H L F c z z h [ ` ` ) ` ` ` O.d H H F c z z z ",
"{ ] ] ] { { { $.d H L F c z z h [ ` ] ] { { ` $.d H H F c z z h ' { ] ] { { { $.d H L F c z z h [ ` ] ] { { ` $.d H H F c z z z ",
"] ] ] { { { ` O.d H L F c z z x [ { { { ` ` ` $.d H H F c z z h ' { { { { { ` O.d H L F c z z x [ { { { ` ` ` $.d H H F c z z z ",
"` ` ` ` ` ` ` @.J H L F c z z x [ ` ` ` ` ` ` @.d H H F c z z B [ ` ` ` ` ` ` @.J H L F c z z x [ ` ` ` ` ` ` @.d H H F c z z z ",
"` ` ` ` ` ` ` @.J H L F l z z x [ ` ` ` ` ` ` @.d H L F l z z B [ ` ` ` ` ` ` @.J H L F l z z x [ ` ` ` ` ` ` @.d H L F l z z z ",
") ) ` ` ` ` ` @.d H L F l z z B [ ` ` ` ` ` ` O.d H L F l z z m [ ) ` ` ` ` ` @.d H L F l z z B [ ` ` ` ` ` ` O.d H L F l z z z ",
"{ { ` ` ) ) ` O.d H L F l z z m [ ` ` ` ` ` ` O.d H L F l z z m [ { ` ` ) ) ` O.d H L F l z z m [ ` ` ` ` ` ` O.d H L F l z z z ",
"` ` ` ` ) ) ` O.d H L F l z z m [ ` ` ` ` ` ` O.d H L F l z z m [ ` ` ` ) ) ` O.d H L F l z z m [ ` ` ` ` ` ` O.d H L F l g g g ",
"| `  . .)  .` O.d H L F l z z m =.` `  .`  .` O.d H L F l z g m =.` `  .)  .` O.d H L F l z z m =.` `  .`  .` O.d H L F l z g g ",
"` ` ` ` ) { ` O.d H L F c z z h [ ` ` { ` ` ` O.d H L F c z z m [ ` ` ` ] { ` O.d H L F c z z h [ ` ` { ` ` ` O.d H L F c z z z ",
"%.%.%.#.#.#.#.&.d P L F c z z x *.%.#.#.#.#.#.&.d H L F c z z m *.%.%.#.#.#.#.&.d P L F c z z x *.%.#.#.#.#.#.&.d H L F c z z z ",
"p p p p p p p p H H L F c z z l t p p p p p p p H H L F c z z x t p p p p p p p H H L F c z z l t p p p p p p p H H L F c z z g ",
"L L H H H H H H L H L F c z z l F H H H H H H H L L L F c z z l F L H H P P H H L H L F c z z l F H H H H H H H L H L F c z z z ",
"L L H S L L L L L H L F c z z l F H H H L L L L L H L F c z z l F H H S L L L L L H L F c z z l F H H H L L L L L H L F c z z z ",
"L L H S L L L L L H L F c z z c F H H H L L L L L H L F c z z c F L H S L L L L L H L F c z z c F H H H L L L L L H L F c z z z "
};
