/* XPM */
static char *result[] = {
/* columns rows colors chars-per-pixel */
"62 64 27 1 ",
"  c #302610",
". c #3E2E14",
"X c #403018",
"o c #463418",
"O c #483818",
"+ c #4E3A1A",
"@ c #523C1C",
"# c #543C1C",
"$ c #583E1E",
"% c #5D3E20",
"& c #5A401E",
"* c #5C4020",
"= c #5E4220",
"- c #604220",
"; c #644422",
": c #684624",
"> c #6B4A26",
", c #6C4824",
"< c #6D4A26",
"1 c #704A26",
"2 c #714C28",
"3 c #724C28",
"4 c #744C28",
"5 c #764E2A",
"6 c #7E522C",
"7 c #82542E",
"8 c #905C34",
/* pixels */
"XXXXXXXXXXXXXXXXXXXXXXXXXXXXXXXXXXXXXXXXXXXXXXXXXXXXXXXXXXXXXX",
",,,,,,,,,,,,,,,,,,,,,,,,,,,,,,,,,,,,,,,,,,,,,,,,,,,,,,,,,,,,,,",
"88888888888888888888888888888888888888888888888888888888888888",
"######oo. o#############oo. o###oo. o#####oo. o##########oo. o",
"O&1444;2%.25@OOO=4=&&&&O+2%.27==;2%.25@OO@$2%.2<==O=====4;2%.2",
"O&144:$2%.26&OO+;4=&&&&O+2%.27==;2%.27:@@:;2%.2<==O=====4;2%.2",
"O@:44;#2%.27;+O+;4=&&&&O+2%.26&=;2%.274::4;2%.2<==O=====4;2%.2",
"++-14;#2%.27;+O@:1&&&&&O+2%.26&=;2%.274444;2%.2<==O=====4;2%.2",
"&O@::@+2%.27:@+-11&&&&&O+2%.26&=;2%.274444;2%.2<==O====&1;2%.2",
"&++@$++2%.271&@:4:@&&&&O+2%.25@=;2%.274444;2%.2<==O====&1;2%.2",
";+O++O+2%.274:;14:@&&&&O+2%.25@=;2%.274444;2%.2<==O====@:;2%.2",
";+OOO+#2%.2741144;+&&&&O+2%.2<O=;2%.274444;2%.2<==O====@:;2%.2",
"1=OO+;;2%.2741144;+&&&&O+2%.2<@:;2%.261444;2%.2<==O===;+=;2%.2",
"1;+O+;;2%.2744441&O&&&&O+2%.2<@:;2%.261441-2%.2<==O===;+=;2%.2",
":4=+;4;2%.2744441&O&&&&O+2%.2<=4;2%.25:441-2%.2<==O===;+=;2%.2",
";44;;:$2%.2614441&O&&&&O+2%.25:4;2%.2<&11;$2%.2<==O===;+=;2%.2",
"&14::;#2%.261444:@O&&&&O+2%.25:1-2%.2<@;;@+2%.2<==O===:@=;2%.2",
"&1444;#2%.25:444:@O&&&&O+2%.2741-2%.2<O@@O+2%.2<==O===:@&-2%.2",
"@;144=+2%.25:444;+O&&&&O+2%.274:$2%.2<OOOO+2%.2<==O===1&&-2%.2",
"+-14:@+2%.23-144;++-&&&O+2%.271;$2%.2<OOOO+2%.2<==O===1&&-2%.2",
"O@:4;++2%.23-141&O+-&&&O+2%.271&+2%.2<OOOO+2%.2<==O===1&@$2%.2",
"O+;4;++2%.2<@:41&O+-&&&O+2%.27:@+2%.25@OO@$2%.2<==O===4=@$2%.2",
"++$$+O+2%.2<@:4:@O@;&&&O+2%.26&O+2%.26;@@;-2%.2<==O==&1=O+2%.2",
"+O++O+#2%.2<+-,;@O@;&&&O+2%.25@O+2%.271;;1;2%.2<==O==&1;++2%.2",
"+OOOO+#2%.2<+$*$+O@*@&&O+2%.2<OO+2%.274114;2%.2<==O==@:;++2%.2",
"&OOOO&-2%.2<O+#+OO&-+&&O+2%.2<OO+2%.274444;2%.2<==O==@::@+2%.2",
"&OOOO&-2%.2<OOOOOO&-+&&O+2%.2<O+#2%.274444;2%.2<==O==+;:@+2%.2",
"-+OO+$$2%.2<OOOOO+;=O&&O+2%.2<O+#2%.274444;2%.2<==O==+;1-#2%.2",
"$+OO+##2%.2<OOOOO@:=O&&O+2%.2<O@$2%.261444;2%.2<==O==+;1-#2%.2",
"-&OO&-#2%.2<OOOOO@:=O&&O+2%.2<O&-2%.261444;2%.2<==O==O=4:@>%.2",
"--+O&&+2%.2<OOOOO&1=O&&O+2%.2<+--2%.25:441-2%.2<==O==O=4:$2%.2",
"@$+&;@+2%.23+OOOO&1=O&&O+2%.2<@:;2%.25;141-2%.2<==O==O&11-2%.2",
"+----++2%.25@OOO+;1&+-&O+2%.23-1;2%.2<&14:$2%.2<==O==O&11-2%.2",
"+----++2%.26-+OO@:1&+-&O+2%.25:4;2%.2<@:1&+2%.2<==O=;+@:4;2%.2",
"O@;;@O+2%.27:@O+$::@@;&O+2%.2614;2%.2<O&;@+2%.2<==O=;+@:4;2%.2",
"O+$$+O+2%.271-++;4;+@;&O+2%.2744;2%.2<O@@O+2%.2<==O=;++;4;2%.2",
"OO++OO+2%.274:@@:4;+@;&O+2%.2741-2%.2<OOOO+2%.2<==O=;++;4;2%.2",
"OOOOOO+2%.2744::44=O&,&O+2%.2741-2%.2<OOOO+2%.2<==O=:@+;4;2%.2",
"OOOOO+#2%.27444441&O&,&O+2%.274:$2%.2<OOOO+2%.2<==O=:@O&1;2%.2",
"+OOOO+#2%.26144441&O=1&O+2%.271;$2%.25@OOO+2%.2<==O=1&O&1;2%.2",
"+OOOO@$2%.2614444:@O=1&O+2%.271&+2%.25@OOO+2%.2<==O&,&O@:;2%.2",
"-+OO+$$2%.25:4444;+O=:@O+2%.27:@+2%.26;@O@$2%.2<==O&1=O@:;2%.2",
"-+OO+--2%.23;4444=OO=:@O+2%.26;@+2%.27:@@*$2%.2<==O@:;++--2%.2",
";$++$;-2%.2<&1441&O+;=OO+2%.26&O+2%.271;*;-2%.2<==O@:;++--2%.2",
",-##-;$2%.2<@:44:@O@:=OO+2%.25@O+2%.274:;1;2%.2<==O+;;++$$2%.2",
";;$$;-#2%.2<+-11-+O&1=OO+2%.2<OO+2%.274114;2%.2<==O+;:@O@$2%.2",
"-,;;,-#2%.2<O+-;@OO&1=OO+2%.2<O+#2%.274444;2%.2<==O+;:$++#2%.2",
"-,;;,&+2%.2<OO+#+OO=1&OO+2%.2<O+#2%.274444;2%.2<==O+;1-++#2%.2",
"&1441&+2%.23+OOOOO+;1&OO+2%.2<O@$2%.274441-2%.2<==OO=1-++#2%.2",
"@:441&+2%.23+OOOOO@::@OO+2%.2<+--2%.261441-2%.2<==OO&1:@O+2%.2",
"+-141&+2%.25@OOOOO&1:@OO+2%.2<@:;2%.26144:$2%.2<==OO&1:$++2%.2",
"+-14:@+2%.26-+OOOO&1=OOO+2%.23-1;2%.25:44:$2%.2<==OO@:1-++2%.2",
"O@:1;@+2%.27;+OOO+;1&OOO+2%.2614;2%.25:41-#2%.2<==OO@:1;@+2%.2",
"O+-,-++2%.27:@OOO@:1&O@@+2%.2744;2%.23-11-#2%.2<=;+O+-1:$#2%.2",
"O+-;$++2%.26,-+OO&1:@O@@+2%.2744;2%.23-1:@+2%.2<=;+O+$:1-#2%.2",
"OO@*@O+2%.261;+O+-1=OO&&+2%.2744;2%.2<@;-++2%.2<=;+OO@:1-#2%.2",
"OO+#+O+2%.25:1-++;4=OO&&+2%.2744;2%.2<+$@O+2%.2<=;+OO+-1;#2%.2",
"+OOOO+#2%.2<&11-;41&OO&&+2%.2744;2%.2<O++O+2%.2<&;@OO+$:1-2%.2",
"+OOOO+#2%.2<@:4444:@OO==+2%.2741-2%.2<OOOO+2%.2<&,&OOO@:1-2%.2",
"@OOOO&-2%.2<O=4441&OO@:=+2%.2741-2%.2<OOOO+2%.2<@;-+OO+-,-2%.2",
"$+OO+--2%.2<O@;11;@OO&1=+2%.271;$2%.2<OOOO+2%.2<@:;+OOO@*$2%.2",
"-+OO+--2%.2<OO@;;@OOO&1=+2%.271;$2%.2<OOOO+2%.2<O=;+OOOO+#2%.2",
";@OO+--2%.2<OOO@@OOO&14:$2%.26;@+2%.2<OOOO+2%.25@=:@OOOOO+2%.2",
"******$2%.25@OOOOOO@****$2%.25@O+2%.25@OO@$2%.25@@*@OOOOO+2%.2"
};
