/* XPM */
static char *result[] = {
/* columns rows colors chars-per-pixel */
"64 64 184 2 ",
"   c #320E0E",
".  c #371414",
"X  c #3B1717",
"o  c #3E1414",
"O  c #3C1919",
"+  c #202020",
"@  c #252525",
"#  c #272727",
"$  c gray16",
"%  c gray17",
"&  c #2C2C2C",
"*  c gray18",
"=  c gray19",
"-  c #313131",
";  c #323232",
":  c gray20",
">  c #343434",
",  c #353535",
"<  c gray21",
"1  c gray22",
"2  c #3C3C3C",
"3  c gray24",
"4  c #3E3E3E",
"5  c #3F3F3F",
"6  c #400000",
"7  c #450000",
"8  c #470000",
"9  c #4B0000",
"0  c #4C0000",
"q  c #4D0000",
"w  c #500000",
"e  c #530000",
"r  c #540000",
"t  c #570000",
"y  c #580000",
"u  c #590000",
"i  c #5B0000",
"p  c #5C0000",
"a  c #5D0000",
"s  c #5F0000",
"d  c #441414",
"f  c #4B1414",
"g  c #521414",
"h  c #581414",
"j  c #600000",
"k  c #610000",
"l  c #630000",
"z  c #640000",
"x  c #650000",
"c  c #670000",
"v  c #680000",
"b  c #690000",
"n  c #6B0000",
"m  c #6C0000",
"M  c #6D0000",
"N  c #6E0000",
"B  c #6F0000",
"V  c #700000",
"C  c #710000",
"Z  c #730000",
"A  c #740000",
"S  c #750000",
"D  c #770000",
"F  c #780000",
"G  c #7A0000",
"H  c #7B0000",
"J  c #7C0000",
"K  c #7D0000",
"L  c #7E0000",
"P  c #681F1F",
"I  c #741919",
"U  c #781F1F",
"Y  c #7D1F1F",
"T  c #5F2828",
"R  c #642828",
"E  c #6C2828",
"W  c #7B2020",
"Q  c #712828",
"!  c #762828",
"~  c #722F2F",
"^  c #7C2828",
"/  c #782F2F",
"(  c #7D2F2F",
")  c #514F20",
"_  c #5E5C20",
"`  c gray25",
"'  c #414141",
"]  c #444444",
"[  c #484848",
"{  c #494949",
"}  c gray29",
"|  c #4B4B4B",
" . c gray30",
".. c gray31",
"X. c #505050",
"o. c #515151",
"O. c gray33",
"+. c #585858",
"@. c #5B5B5B",
"#. c #5D5D5D",
"$. c #606060",
"%. c #646464",
"&. c #800000",
"*. c #810000",
"=. c #820000",
"-. c #830000",
";. c #860000",
":. c #870000",
">. c #880000",
",. c #890000",
"<. c #8C0000",
"1. c #8D0000",
"2. c #8E0000",
"3. c #8F0000",
"4. c #900000",
"5. c #910000",
"6. c #920000",
"7. c #930000",
"8. c #940000",
"9. c #950000",
"0. c #970000",
"q. c #980000",
"w. c #990000",
"e. c #9A0000",
"r. c #9B0000",
"t. c #9D0000",
"y. c #9E0000",
"u. c #9F0000",
"i. c #881F1F",
"p. c #A10000",
"a. c #A20000",
"s. c #A30000",
"d. c #A40000",
"f. c #A50000",
"g. c #A60000",
"h. c #A70000",
"j. c #A80000",
"k. c #A90000",
"l. c #AB0000",
"z. c #AC0000",
"x. c #AD0000",
"c. c #B00000",
"v. c #B10000",
"b. c #B20000",
"n. c #B30000",
"m. c #B40000",
"M. c #B50000",
"N. c #B70000",
"B. c #B80000",
"V. c #B90000",
"C. c #BB0000",
"Z. c #BC0000",
"A. c #BD0000",
"S. c #BF0000",
"D. c #822323",
"F. c #812828",
"G. c #862828",
"H. c #822F2F",
"J. c #882F2F",
"K. c #8D2F2F",
"L. c #912828",
"P. c #982F2F",
"I. c #913333",
"U. c #963737",
"Y. c #C00000",
"T. c #C10000",
"R. c #C30000",
"E. c #C40000",
"W. c #C70000",
"Q. c #C80000",
"!. c #C90000",
"~. c #CC0000",
"^. c #CF0000",
"/. c #D10000",
"(. c #D40000",
"). c #D70000",
"_. c #D80000",
"`. c #DB0000",
"'. c #DC0000",
"]. c #DF0000",
"[. c #E00000",
"{. c #E10000",
"}. c #E70000",
"|. c #EC0000",
/* pixels */
"1 1 1 1 1 1 1 1 1 1 1 1 1 1 1 1 1 1 1 1 1 1 1 1 1 1 1 1 1 1 1 1 1 1 1 1 1 1 1 1 1 1 1 1 1 1 1 1 1 1 1 1 1 1 1 1 1 1 1 1 1 1 1 1 ",
"] [ ] ..[ [ [ [  ...[ [ [ [ [  ...' 5 [ [ [ [ [ [  .O.O.O.O.O...[ [ [ [ [ [ [ [  .O.O.O.O.O.O...[ [ [ ' 1 1 5 [  .O...[ [ [ [ ' ",
"' i.|.{.(.(.(.(.(.(.(.(.S.W [  .P.|.{.(.(.(.(.(.(.(.(.(.(.(.(.(.(.(.(.(.S.W ' ] P.|.|.|.}.[.[.[.[.[.`.(.(.(.(.^.Q.Q.Q.R.Z.Z.v.W ",
"1 L.'.A.c.Y.b.8.V.b.d.B.:.f 1  .P.).f.u.f.u.f.u.u.q.z.j.z.j.u.q.u.q.T.B.1.g 1 ' Y S.m.A.C.A.c.C.p.0.g.y.A.C.l.e.l.6.y.n.x.B.6.h ",
"_ G.S.6.2.q.8.u.;.:.q.K n f 1  .K.!.f.>.8.q.K :.d.1.=.t.d.1.=.t.1.:.u.;.x d 1  .K.S.d.6.C &.q.K H 8.6.*.8.d.q.8.6.*.8.=.G 1.n f ",
") G.x.2.d.1.=.t.d.1.:.=.q . 1  .K.b.u.v.q.8.1.:.q.8.1.:.1.H -.2.1.=.<.D x d 1 [ G.h.:.:.A 8.:.&.1.:.6.2.q.8.:.&.u.<.2.6.2.1.j o ",
"1 F.B.6.*.3.<.2.1.H 8.1.i . 1  .H.Z.f.8.q.>.3.t.1.H K :.q.K =.<.*.K :.1.i . - 5 ^ e.:.6.2.q.F &.1.V :.d.1.:.q.8.d.6.2.=.G q.M o ",
"1 ^ u.2.d.1.:.u.;.=.;.x q . 1 [ ^ T.l.8.1.:.1.:.1.:.1.=.5.K S 2.1.=.<.D x d - 5 ^ z.t.:.A 8.6.*.K H -.2.q.8.:.&.6.*.8.6.2.1.i . ",
"1 ^ v.1.H Z l S m l H K i . - ] ~ q.;.V j c K V H K j p H K H K j c K V i . - 5 ^ e.V x l V j c M p x M M p j c F u p H K H v . ",
"1 T C z z r 6 6 6 6 6 6 6 . - 5 T C z s y y y y y y y y q 6 6 6 6 6 6 6 6 . - 5 R F z z z z z z z z z s y y y y y y y y q 6 6 . ",
"1 [ 2 & & & & & & & # + + @ - ] ..2 & & & & # + + + + @ & # + + + @ & & & & 1  .[ : & & & & & & & & & & # + + + + @ & & & & & & ",
"4 [ 1 1 1 5 [ [ [ ' 1 1 1 1 5 ' 5 [ [ [ [ [ [ ' 1 1 ] ..[ [ ' 1 5 [ [ [ [ [  .[ 5  .O.O.O.+.$.%.$.+.O...[ ] 2 2 { [ ] ..[ [  .[ ",
"].{.(.(.!.Z.Z.Z.Z.Z.Z.Z.Z.Z.Z.v.W  ...L.|.{.(.(.(.(.(.^.Q.Q.Q.Q.Q.Q.R.Z.Z.Z.Z.Z.Z.Z.Z.Z.Z.Z.Z.Z.Z.Z.Z.Z.v.W ] { P.|.{.(.(.(.(.(.",
"c.y.>.e.f.<.7.w.>.5.e.2.;.y.8.D O 5  .P.M.<.C.g.q.9.A u.f.>.d.n.t.q.-.*.8.q.8.q.8.6.y.r.4.l.3.j.T.n.x.B.D O 5 ' i.'.g.7.y.e.y.e.",
"5.8.q.8.6.*.>.F &.q.F A 8.d.1.i . 1 [ G.E.7.:.6.2.d.q.8.:.&.1.n A 8.6.2.6.2.:.&.d.q.F &.q.8.1.H 8.1.:.1.i O 5  .J.A.w.2.q.-.2.u.",
"D :.d.q.3.*.&.6.*.>.3.*.&.q.K i . - 5 G.h.:.q.3.5.>.F A >.K :.q.F &.q.-.C B *.>.8.=.M -.2.1.:.1.:.d.1.V i . , ] F.g.2.d.d.6.2.6.",
"2.q.>.8.q.-.J *.-.2.u.*.&.:.b i . - 5 G.h.:.d.6.2.:.A 8.:.b :.:.A 8.6.*.-.2.:.&.q.Z G :.&.1.H K :.1.:.1.i . - 5 F.A.w.2.6.2.u.<.",
"K :.:.&.1.H -.>.*.&.:.A 8.d.1.i . 1  .K.E.,.G 6.2.q.F A Z M K n &.q.-.m v 2.:.A Z M 8.:.A 8.1.H 8.1.:.1.i   % 5 ! w.2.d.=.G 6.*.",
"V <.2.b j k D =.;.=.;.x A ;.V i . 1  .( l.1.H Z l =.;.H F b H Z l =.;.=.*.A K H >.Z A ;.V H M p =.;.H K i   * { ( l.6.D x l =.;.",
"6 7 0 0 0 0 0 0 0 0 0 0 0 8 6 6 O 5  ./ :.z z z z z z z z z z z z s y y y y y y y y y y y y y y y y y q 6   ; ' P :.r w r 6 w r ",
"& & & # @ & & # + + @ & & # + @ - 5 ' 5 ' < = & & & & & = > < 1 < = & & # + + + + @ & & # + + + @ & & & & - 5  ...2 & & & & & & ",
"4 O...' 1 5  .[ ] [ 5 [ ' 1 1 1 5 [  ...[ [ ] 2 2 2 2 2 2 ] [ [  .[ ] ..] 2 1 1 2 ` ] [  .| 2 1 2 ] [ [  ... .[ ] | 2 2 { ..[ [ ",
"4 P.|.{.(.(.(.(.(.(.!.Z.Z.Z.Z.Z.Z.Z.Z.Z.Z.Z.Z.Z.Z.Z.Z.v.W  .O.P.|.{.(.(.(.(.(.(.(.(.(.!.Z.Z.Z.Z.Z.Z.Z.Z.Z.Z.Z.Z.Z.Z.Z.Z.Z.Z.v.W ",
"4 P.S.e.M.u.q.u.q.u.7.y.e.y.e.C.l.e.y.e.y.u.N.2.;.C.p.i O 5  .P.).e.t.S.k.y.8.k.y.e.f.s.w.C &.q.K H 8.6.*.8.u.5.8.6.*.8.=.G D . ",
"- i./.y.8.u.t.6.D H 8.d.q.3.5.8.q.F &.1.:.q.F A 8.1.<.L . 1 o.I.!.z.t.:.&.:.A K =.5.F &.:.A 8.:.&.1.:.6.2.q.8.:.&.u.<.2.6.D i . ",
"1 ^ 9.&.d.1.H Z G :.&.1.:.q.3.t.:.A 8.1.H 8.q.F B 2.1.i . 4 @.U.!.u.2.6.2.:.&.1.=.t.6.2.6.2.q.F &.1.V :.u.;.=.5.8.d.6.2.=.l i . ",
"1 ^ N.y.8.K Z =.l H 8.q.K S 2.6.*.F B 2.:.&.q.F &.1.x q . 4 +.I.h.:.1.=.5.F A 3.;.:.:.A F A 8.6.*.K H -.2.q.8.:.&.6.*.8.6.D i . ",
"4 H.e.n &.K c -.2.:.&.=.G :.&.q.F A 8.q.F &.:.A -.J 7.L . 1  .K.^.p.:.1.:.q.8.q.K :.:.&.=.l V j Z K Z =.G K Z d.q.F u p H K i . ",
"1 F.B.:.b V V x l j p V H F A K V H K V n b =.;.=.;.V i . - ] J.B.1.=.;.H Z l V V V n A K H M Z =.l :.K p H M Z =.G K Z 1.V i . ",
"1 Q u.*.z z z z z z z z z z z z z u 0 0 0 0 0 0 0 0 8 6 . - ] / :.z z z z z z z z z z z z z s y y y y y y y y y y y q 9 v m q . ",
"1 [ ' : & & & & & & & & & & & & & & & & - 1 1 : & & & & & 1 [ [ 2 & & & & & & & # + + + + @ - 1 1 : # + + @ & & & & & & & & & & ",
"4 O.O.O.O...[ ' 5 ' 1 1 5  .@.%.#.O.O...[ [ ] ` 2 1 2 2 1 2 { ..[ [  .[ ] .. ...] 2 2 2 2 ]  .O...[ ] 2 2 ] [ [  .[ ] ..[ [  .[ ",
"Z.Z.Z.Z.Z.Z.Z.Z.Z.Z.v.W ' ] K.(.(.(.(.(.(.(.!.Z.Z.Z.Z.Z.Z.Z.Z.Z.Z.Z.Z.Z.Z.Z.Z.v.W  .O.J._.{.(.(.(.(.(.(.(.(.!.Z.Z.Z.Z.Z.Z.Z.Z.Z.",
"d.k.l.k.f.x.A.c.C.B.D O 5 ' Y S.:.&.1.:.d.:.&.q.8.d.1.:.q.F &.d.:.&.d.1.:.6.2.D O 5  .K.S.6.2.1.:.d.:.&.6.*.-.2.1.:.q.8.6.2.1.:.",
":.6.*.8.u.t.6.2.q.K i . 1  .K.a.&.6.*.8.6.2.u.;.:.q.>.K H >.8.q.F &.1.H 8.:.&.D O ] O.K.S.=.G 1.:.q.F &.q.8.6.*.>.3.;.=.<.>.5.K ",
"H -.2.u.<.2.6.>.t.1.i . 1 ' Y a.&.d.6.>.t.1.:.1.:.q.8.=.G K c >.8.q.K =.t.6.2.D O ] @.U.S.6.2.1.:.q.8.q.8.d.6.2.1.=.5.8.u.<.2.1.",
"8.q.-.2.u.t.u.<.*.K i O 5  .K.V.*.&.6.2.6.m A 5.>.>.K H 8.:.&.q.F A 3.;.H 8.6.k O ] @.U.x.2.d.1.:.:.&.d.6.J 2.6.2.q.3.q.5.-.D H ",
":.q.-.2.6.2.6.>.t.1.i O 5 [ G.a.&.6.m A t.1.H >.8.q.8.1.H M t H *.&.u.;.:.6.2.D O 5  .J.B.6.2.d.1.:.q.>.-.2.6.2.1.=.5.8.6.*.8.1.",
"V V H 3.;.V =.;.V V i O 5 [ E *.&.d.=.G 6.D :.1.:.:.&.=.M F &.q.F H ;.=.t.:.B k . 1  .J.B.=.G 1.:.d.q.8.q.8.6.2.1.=.;.=.<.2.d.1.",
"6 6 7 0 0 0 0 0 0 8 6 . 1 [ Q :.z z z z z z z z s y y y y y y y y y y y y y q 6 . 1 [ Q :.z z z z z z z z z z z z z z s y y y q ",
"& & & & & & & & & & & & 1  ...2 # + + + @ & - 1 1 : # + + + + @ & & & & & & & & - 5 [ [ 2 & & & - 1 5 ' : & # + + @ & & & & & & ",
"4 .. .[ 5 ' 1 5 [ ' 1 1 1 5 [ ' 1 1 5 [ [ [ [  .O...[ ' 1 1 ] ..[ [  .[ 5 ' 5 ' 5 [  ... .[ ] .. .+.$.#.X.} [ ' ] .. ... .[ ] [ ",
"- i.{.(.(.(.(.(.(.!.Z.Z.Z.Z.Z.Z.Z.Z.Z.Z.Z.Z.Z.Z.Z.Z.Z.Z.Z.Z.Z.v.I ] [ i.|.{.(.(.(.(.(.(.(.!.Z.Z.Z.Z.Z.Z.Z.Z.Z.Z.Z.Z.Z.Z.Z.Z.v.W ",
"4 K.S.q.>.8.:.&.d.6.>.t.6.2.1.H 8.:.&.6.2.q.8.:.&.:.&.d.6.D :.D O 5  .P.~.d.:.&.:.&.=.G 1.:.=.G q.Z A 5.K :.q.-.2.6.>.;.H 8.D . ",
"1 G.S.:.&.q.F &.q.3.<.2.:.A Z G u.*.&.=.M 3.5.F &.6.2.6.2.1.=.C . 1 [ G.b.8.:.A F B m M Z A <.2.=.G :.&.1.H K :.q.-.>.t.:.A v . ",
"1 G.b.F &.:.A K n &.:.&.q.-.*.8.:.H 5.>.Z v 2.K N H M F A >.K i . - 5 G.b.8.:.z A 8.6.m G 6.m A t.=.G 1.V :.1.:.6.2.1.H F &.D . ",
"- Y S.q.8.q.F &.q.-.>.t.6.2.=.M 8.:.&.=.M 8.=.A t.6.2.d.d.1.S k . - 5 G.S.:.&.q.F &.=.G 1.=.<.J m M F &.6.*.3.5.3.<.D :.q.8.D . ",
"4 K.S.:.A 8.:.&.:.&.:.&.:.&.1.:.:.z &.=.M -.2.6.*.F H *.A K :.D   % ] K.S.:.z &.:.B m G =.G =.A H G :.A K :.1.S 2.6.>.5.F b i . ",
"- U B.:.&.:.A K H 3.<.2.q.>.>.8.u.*.A -.m a &.K Z 1.=.<.2.1.:.D   % ] J.p.:.:.A F &.=.v 2.6.m A ;.H F &.1.:.1.:.6.>.;.:.:.&.D . ",
"4 / :.z z z z z z z z u 0 0 0 0 0 0 0 0 0 0 0 0 0 0 0 0 0 0 0 8 . 1  ./ :.z z z z z z z z s y y y y e 0 0 0 0 0 0 0 0 0 0 8 6 . ",
"- 5 2 & & & & & & & & & - 1 1 : # + + + @ & & # + + + @ & # + @ & 1 ' 5 2 & & & & & # + + @ = < < = # @ & & & # + + @ & & & & & ",
"4 [ ] [ ] .. ...[ [ [  .@.%.#... .[ ] .. ...] 2 1 1 2 ]  ...[ ' 5 [  .[ ] ..[ [ [ [ [ [ [ } X.O.O.X.} [ [ [ ' > $ + # > 5 [  ...",
"W.(.(.(.(.!.Z.Z.Z.Z.Z.Z.Z.Z.Z.Z.Z.v.W  ...L.|.{.(.(.(.(.(.(.(.!.Z.Z.Z.Z.Z.Z.Z.Z.Z.Z.Z.Z.Z.Z.v.W ' ] P.{.(.(.(.(.!.Z.Z.Z.Z.Z.Z.Z.",
"S 2.=.G d.:.H *.&.6.y.g.2.:.&.6.2.D . 1 [ G.S.d.d.d.:.&.K Z 6.2.:.&.:.&.u.t.:.&.:.&.=.G 1.n r O 5  .K.S.:.A 8.=.G 1.:.1.:.:.&.1.",
"Z 6.J 2.6.2.:.H <.C &.=.v C A F A v . 1 [ G.x.2.1.:.:.b j k >.<.2.q.F A 3.*.B *.K H Z G :.&.D X 3  .K.a.&.=.G 1.:.1.H 8.1.:.q.M ",
"8.6.m v 2.:.H *.B 2.6.m G q.F H <.k . 1 ] D.x.J D :.:.B J 2.=.G K Z d.:.&.:.&.:.A Z M >.F b i . 1  .K.a.&.1.V :.d.q.K H K n b H ",
"6.>.H A *.z &.:.&.6.2.=.v D n &.:.r . 1 ] D.S.K p :.:.&.K Z 6.>.*.&.:.A -.C &.:.&.q.Z l =.*.r . 1  .K.S.:.s G q.K V :.1.:.:.b :.",
":.&.6.2.:.&.:.A 8.:.&.6.m M 8.6.*.v . 1 ] D.0.Z d.:.&.6.D H Z v c Z :.&.:.B J C A K x M K n r . 1 [ G.a.&.q.8.1.:.q.K V x G 1.:.",
"t &.6.J C H q.*.H *.B m G :.&.:.H C . 1 [ G.0.Z 1.:.:.B J *.M N *.A M Z 6.C &.q.F &.=.G =.M v . - 5 G.a.&.=.l x G 1.:.1.x a &.K ",
"S >.H G :.z A F B J 2.=.G :.b H -.k . 1  .J.B.K p :.:.&.K c F &.:.&.1.n &.:.B 2.:.A K H F A v . - 5 F.r.z s G =.G 1.:.1.:.:.&.1.",
"0 0 0 0 0 0 0 0 0 0 0 0 0 0 0 0 8 6 . 1 [ Q D 6 6 6 6 7 0 0 0 0 0 0 0 0 0 0 0 0 0 0 0 0 0 8 6   ;  ./ D 6 7 0 0 0 0 0 0 0 0 0 0 ",
"& & & & & & & & & & & & & & & & & & & 1  ...' < > = & & & & & & & & & & & & & # + + + + @ # + + % 5 [ 2 & & & & & # + + + + @ & ",
"' ] [ ] [ 1 1 5 [ [ [ [  .O.[ 5 [ [ [  .O.O.O.O...[ [  ...[ [  ...[ ' 5 [ [ ] 2 1 2 2 1 2 ] ] 2 2 { ..[ ' ] ..[ [ [ ] 2 2 ] [ [ ",
"O.O.O.O.O.O.O.O.O.O.O.O.O.O.O.O.O.O.O.O.O.O.O.O.O.O.O.O.O.O.O.O.O.O.O.O.O.O.O.O.O.O.O.O.O.O.O.O.O.O.O.O.O.O.O.O.O.O.O.O.O.O.O.O."
};
