/* XPM */
static char *result[] = {
/* columns rows colors chars-per-pixel */
"63 64 140 2 ",
"   c black",
".  c gray2",
"X  c #000017",
"o  c #000019",
"O  c #00001B",
"+  c #00001D",
"@  c #1B1B1B",
"#  c #1B1B29",
"$  c #000036",
"%  c #1B1B30",
"&  c #1B1B32",
"*  c #1B1B34",
"=  c #1B1B36",
"-  c #1B1B38",
";  c #202020",
":  c gray22",
">  c #000040",
",  c #000042",
"<  c #000044",
"1  c #000045",
"2  c #000047",
"3  c #00004A",
"4  c #00004B",
"5  c #00004C",
"6  c #00004E",
"7  c #000050",
"8  c #000051",
"9  c #000053",
"0  c #000054",
"q  c #000055",
"w  c #000056",
"e  c #000058",
"r  c #00005A",
"t  c #05055A",
"y  c #00005C",
"u  c #00005D",
"i  c #00005F",
"p  c #2F2F40",
"a  c #2F2F44",
"s  c #2F2F48",
"d  c #2F2F4C",
"f  c #000060",
"g  c #000062",
"h  c #000064",
"j  c #000066",
"k  c #050564",
"l  c #070766",
"z  c #090967",
"x  c #000068",
"c  c #000069",
"v  c #00006A",
"b  c #00006C",
"n  c #00006E",
"m  c #05056E",
"M  c #000070",
"N  c #000072",
"B  c #000073",
"V  c #000074",
"C  c #000075",
"Z  c #000076",
"A  c #090972",
"S  c #000078",
"D  c #00007A",
"F  c #00007C",
"G  c #00007D",
"H  c #00007E",
"J  c #09097C",
"K  c #505050",
"L  c gray33",
"P  c navy",
"I  c #000081",
"U  c #000082",
"Y  c #000084",
"T  c #000086",
"R  c #050586",
"E  c #000088",
"W  c #00008A",
"Q  c #00008B",
"!  c #00008C",
"~  c #00008E",
"^  c #000090",
"/  c #000092",
"(  c #050590",
")  c #000094",
"_  c #000095",
"`  c #000096",
"'  c #000097",
"]  c #000098",
"[  c #00009A",
"{  c #05059A",
"}  c #00009C",
"|  c #00009D",
" . c #00009E",
".. c #00009F",
"X. c #0000A0",
"o. c #0000A2",
"O. c #0000A3",
"+. c #0000A4",
"@. c #0000A6",
"#. c #0505A4",
"$. c #0000A8",
"%. c #0000A9",
"&. c #0000AA",
"*. c #0000AB",
"=. c #0000AC",
"-. c #0000AD",
";. c #0000AE",
":. c #0000B0",
">. c #0000B2",
",. c #0000B4",
"<. c #0000B5",
"1. c #0000B6",
"2. c #0000B7",
"3. c #0000B8",
"4. c #0000B9",
"5. c #0000BA",
"6. c #0000BC",
"7. c #0000BE",
"8. c #0000C0",
"9. c #0000C1",
"0. c #0000C2",
"q. c #0000C4",
"w. c #0000C6",
"e. c #0000C7",
"r. c #0000C8",
"t. c #0000CC",
"y. c MediumBlue",
"u. c #0000CF",
"i. c #0000D0",
"p. c #0000D2",
"a. c #0000D4",
"s. c #0000D5",
"d. c #0000D6",
"f. c #0000D7",
"g. c #0000DA",
"h. c #0000DC",
"j. c #0000DE",
"k. c #0000E0",
"l. c #0A0AE4",
"z. c #3636F8",
/* pixels */
"p N F F F F F F F F F F F F F F F F F F D z : a E E E E E E E E E E E E E E E E E E E E E E E E E E E J : p N F F F F F F D l ",
"* +.+.+.+.+.+.+.+.+.+.+.+.+.+.+.+.+.+.+.+.( ; - 6.6.6.6.6.6.6.6.6.6.6.6.6.6.6.6.6.6.6.6.6.6.6.6.6.6.6.#.; = :.:.:.:.:.:.:.:.{ ",
"o +.+.X.!  .U +.o.) P ] ) P ] ) U  .D M b 4 . - 3.$.5.$.U $.1./ M Z ` ! +.X.Y V ! $.3.X.W [ $.6.3.o./ i . = >.3.o.[ @.:.=.) c ",
"o o.) H W ] ] ) F U o.[ [ b ] ) D N F D n q . - 6.3.o.] ] / Z ~ y b e u U +.[ j M n j M b y V E Y n j i . = :.;.+. .P [ +.] 4 ",
"o X.! } G r.9.) F F P ` E T S g u D b e r q . @                                                         . = ;.@.>.6.5.;. .F c ",
"o X.T U %.r.4.x F F U o.] ] ` Y M N Z e 0 $ . * +.+.+.+.+.+.+.+.+.+.+.+.+.+.+.+.+.+.( ; ; ; ; ; ; ; ; ; ; = >.3.@.;. .F S g 4 ",
"o o.] } :.;.+.+.o.[ +.+.o.] / M n g r j n q . * $.6.6.5.;.o.] | 1.] } =.] } >.6.3.+.Q . * +.+.+.o.] ^ t ; = =.] [  .H E U h q ",
"o +.o.[ @.:.;.o.) S n +.o.` E T S h g 0 > $ . * @.>.9.h.q.;.$.3.o.] ] } :.;.+.+.o.[ Q . * o.] ` W ) S q . = =.] [ } V E E U q ",
"o o.) P [ +.X.W ) P / M V E E Y N F S g 0 $ . * @.,.w.7.9.} ;.+.$.1.] [  .U  .P [  .c . * o.] ] ) F S q . = >.3.o.[ +.X.E G $ ",
"o X.E E !  .F F U +.} b r h j n x F F Z 0 $ . * @.:.:.=.] ] } ;.+.+.+.o.` U x F F S q . * +.o.) F Z e 4 . - >.F P [ +.o.~ 0 $ ",
"X ) H ! X.E Y Z [ +.} M n g r h h x F Z 0 $ . * $.5.:.:.=.] } >.6.3.+.[ h c T F S g 4 . * +.o.) U  .Z 4 . - >.T 3. .P ] ~ 0 $ ",
"X ` W ) F U X.U x Z u S g r x B < 0 > 1 i $ . * $.3.+.@.:.:.:.>.5.:.;.[ h j S [ h i $ . *  .H W ) Z e 4 . - 6.>.F S h x F B $ ",
"X ) P ) S c E T S x S x S i 2 M c > > 1 i $ . * @.;.+.o.| 1.] [ @.:.;.o.] ) F Z e r q . * X.E E Y M n q . - >.D n x S x F B $ ",
"X ] ) F F D n g e r x S j n i > 2 c 1 g 0 $ . * @.2.h.7.E W ] ` T F F H W ` T S h i $ . * +.X.E Y M n q . - >.F D b e e e 0 $ ",
"X ) P ^ h j n x S i > > > > > > > > > > > $ . * $.7.r.7.E E ! +. .H E T H Y N S g 0 $ . *  .P [ ] e e 4 . @                   ",
"                                            . * $.3.+.o.` E ! +.+.X.E W ^ h x S g 0 $ . * +.+.o.[ ] r q . ; ; ; ; ; ; ; ; ; ; ",
"$.5.;.@.;.+.+.+.+.@.;.+.+.+.Q O :.:.;.+.o.] I o @.=.[ X.W [ +.+.+. .P ] ) F Z e 0 > $ . & [ o.[ o./ n q . * +.+.+.Q + 6.6.6.6.",
"5.;.o.[ $.5.;.X.! +. .U o.) c O :.=.| 6.>.T ..o +.+.+.$.3.o.[ +.+.X.U j N B > 1 g 0 $ . & ] ) D N D b 4 . * @.&.T c + 6.3.@.>.",
"5.=.] ` ! +.X.T P ] ) F P ] I O >.6.5.=.) F c o @.=.[ $.3.X.T H E U x F D c > 1 i > $ . & ] ~ e e r i $ . * @.:.$.c + 3.@.:.:.",
";.o.} :.=.] ) F F P ) F F F c O >.5.:.=.] ^ q o @.;.+.+.X.!  .F S j M b e e r h g 0 $ . & ) Z r g e 0 $ . * X.T Z 4 + 6.6.5.:.",
"X.W } >.5.$.F P ] ) P ~ u F c O >.1.) P ] ^ q o +.+.o.] ] ] ) S g r h g r h g 0 > > $ . & ) S g e 0 > $ . * ] r g 4 + 6.5.:.:.",
"+.X.W } <.e.P ) F S h j N F c O =.| >.F F S q                                         . @                         . - 6.3.+.o.",
"&.T H W [ o.) F P ^ j N Z e 4 O =.] ^ x F Z 4 . ; ; ; ; ; ; ; ; ; ; ; ; ; ; ; ; ; ; ; ; ; ; ; ; = :.:.:.:.:.:.:.{ ; - 3.+.o.] ",
";.X.W ) P ) P ] ) D N S x Z 4 O >.1.` U g r q . = :.:.:.:.:.:.:.:.:.:.:.:.:.:.:.:.:.:.:.=.[ ( ; = ,.q.,.0.+.+.o.I . - 5.=.] ] ",
":.=.` ~ =.] ] ] ) F D b e e 4 o $.>.H E U g 4 . = >.5.;.$.6.6.5.>.3.@.;.$.5.$.U $.6.6.>.U ] 4 . = ,.q.,.r.0.o.` B . - 6.1.] ] ",
";.X.T H ~ :.+.x P ` E Y b r q o  .S j M b r q . = >.3.@.,.t.k.g.8.d.f.$.3.+.$.6.3.+.+.+. .Z 4 . = ,.r.r.r.0.X.T c . - 5.>.3.+.",
"o.) H ! @.:.;.o.) H E Y b r q X ) Z e e e r q . = :.;.$.8.a.d.g.9.j.a.u.$.U  .F U  .F U ] e 4 . = :.;.%.0.X.! [ q . - 6.6.3.+.",
"=.} =.] [ @.;.[ x D M M b e 4                 . = >.6.5.:.,.r.0.+.*.a.y.+. .F F D S  .F Z e 4 . = ,.0.+.+.+.X.U q . - 6.6.5.:.",
"X.E ! +.o.[ +.[ j b r g 0 > $ . ; ; ; ; ; ; ; ; = :.>.5.:.:.;.+.+.$.3.+.+. .H E T F Z e e r q . = ,.r.0.+.X.T D i . - 3.+.$.5.",
"o.` ! +.+.o.) D n g r h g e 4 . = :.:.:.;.+.( ; = ;.+.$.5.&.E ! $.5.$.U +. .H E E Y M M b e 4 . = ,.r.9.] [ +.] 4 . - 3.+.@.:.",
"` W ` ! +. .S h g e e r i 1 q . = :.&.! o.` B . = >.5.>.5.&.E ! +.+. .U +.+.} V E I y M M c $ . = :.,.9.] ] [ ] 4 . - 6.1.] ) ",
"` E T H E T S h j N F S i > $ . = ;.+.o.` W I . = >.6.3.@.:.:.=.[  .F F U +.} b r g r j M c $ . = :.;.X.~ ;.+.[ q . - ,.E W ] ",
"` ! o./ N F D n j N F S g 0 $ . = ;.o.` Y n q . = >.3. .U @.:.;.+. .D N S j M M b 0 > < 0 > $ . = :.,.7.~ :.=.^ q . - ,.E T F ",
"[ o.` E T S h g w 5 8 n g 0 $ . = :.&.~ &.I 4 . = ;.+.$.>.U +.o.) D N F S h j M n i > 1 h i $ . = ;.%.0.X.W ] ~ 4 . - 6.>.F F ",
"P ] ` T F F F Z w 5 6 e r i $ . = :.:.@.M n q . = $.T >.U +. .F D n x F F S h g e r h h f 3 $ . = ,.0.+.o.~ y n q . - 3.+.o.] ",
"H E T D N F F Z e r g e e e 4 . = :.:.;.] e 4 . = ;.$.>.U +.} n h g u F F S g e e e w 5 5 3 $ . = ,.0.o.) P / b 4 . - 3.+.o.` ",
"H U j N S x F Z r g 0 < r g 4 . = =.] ~ i U q . = ;. .U +. .Z e e e r h h h g 0 > > > > > > $ . = ,.0. .P ] ) S q . - 1.[ +. .",
"P ) S x S j b r i > < 0 > > $ . = =.] } O.r q . @                                             . * @.;. .S x F S q . - 1.` E T ",
"H W ` Y N D b e e 0 1 i < 0 $ . = :.&.~ &.I 4 . ; ; ; ; ; ; ; ; ; ; ; ; ; ; ; ; ; ; ; ; ; ; ; ; * @.:.;. .Z r i $ . - 6.,.E T ",
"P ` T S j N D c > > > > > > $ . = :.&.E I r q . * +.+.+.+.+.+.+.+.+.+.+.+.+.+.+.+.+.+.+.+.+.( ; * @.;.$.3. .S i $ . - 1.] ) H ",
"                              . = :.$.F Z e 4 . * $.6.6.6.6.6.5.;.+.+.+.+.+.+.o.` T T 1.[  .c . * %.0.+.$.,.I 0 $ . @         ",
"; ; ; ; # e y M V E E T D n t ; * @.$.F F Z 4 . = >.7.r.w.3.+.@.:.,.w.1.] [ +.o.) H T H W ) c . * +.+.+.X.E I 0 $ . % W ` E B ",
"& [ @.>.6.6.6.6.6.6.6.6.6.6.#.; * +.X.T F S q . = >.7.r.r.q.:.:.:.>.6.>.F F F U +.+.o.] ) S q . * %.0. .D b e 0 $ . & ] ) F c ",
"* $.6.6.6.6.5.;.@.>.3.+.+.$.... * +.o.~ r h q . = >.6.6.6.8.a.u.:.:.$.F F F F F P ) F D Z ^ q . * @.&.Y n g y c $ . & ) D M i ",
"* $.5.:.<.a.u.>.6.6.1.[ $.6.... * o.` I e e 4 . = >.6.5.>.8.a.a.e.U o.) F D M M V T F F F S q . * +.} n j b e 0 $ . & / N Z 4 ",
"- 6.6.5.<.a.i.1.] [ $.6.1.} _ . @             . * @.>.5.>.6.8.a.i.3.+.o.) D M n h g u F F S q . % T F Z e e r i $ . % T D b 4 ",
"- 3.@.;.@.:.:.=.] ] | 3.X.E B . ; ; ; ; ; ; ; ; * +.@.,.9.] | 3.$.3.+.+.+. .F S h x S g w 5 > . @                 . % Y b r q ",
"- 6.5.=.` ~ :.;.o.] [ $.6.3.Q . - 6.5.;.+.o.R ; * +.%.r.9.] ] } ;.+.+. .F P ` Y n h g e 0 > $ . ; ; ; ; ; ; ; ; ; ; ; ; ; ; @ ",
"- 6.1.[ $.5.&.! @.:.:.$.U +.Q . - >.T ,.W ` B . * $.6.6.5.=.] | 6.6.3. .F F F S h h g e 0 > $ . = :.:.:.>.6.6.6.6.6.6.6.6.6...",
"- 6.6.6.3.X.^ ,.~ $.F U X.! Q . - 3.@.:.=.) c . * @.;.+.@.:.:.>.6.6.6.3. .H Y b r h h j b w > . = :.;.+.@.:.:.:.;.X.^ 3.+. .c ",
"- 3.$.1.[ +.$.5.=.) C 9 U +.Q . - 6.>.U  .D i . * $.3.+.+.o.[ $.6.6.6.3.+.+.] e e e r j M n q . = ;.@.<.a.u.:.:.=.[ +.+.o.) c ",
"- 5.=.] | 9.g.3.X.!  .F U +.Q . - 5.;.+. .U Q . * $.6.3.+.$.,.E ^ 6.6.3.+.+.} b e r g w 5 5 > . = >.6.8.p.r.q.:.&.E ! o.) S q ",
"- 3.$.3.-.l.z.s.] [ o.` T H B . - 5.;. .U } i . * +.$.1.] ) F F H ! +.+. .F F S h g e e 0 > $ . = =.| 1...r.q.:.;.+. .F F Z 4 ",
"- 5.>.5.>.9.g.3. .U +.' 5 7 q . - 3.@.:.$.S q . * +.$.3.X.E T F F H T H I e g ] / M b w 3 > $ . = >.5.=.] ] [ +. .F F F Z r q ",
"- 3.$.5.:.:.&.E E T D v 5 7 q . - 6.5.=.` U q . * o.| 6.1.| >.F H T F H T Z g ] ` Y M n g r q . = :.;.o.] ] [  .D n x Z e r q ",
"* $.5.:.;. .F P [ o.] ) S h q . - 5.;.X.E T c . * $.1.[ $.3.X.T D M V E I e u P ] ) D b e 0 $ . = :.=.[ o.] [  .D n j N Z e 4 ",
"- 3.$.5.&.E ~ $.U +.o./ N Z 4 . - 3.$.>.F F c . * $.3.+.+.o.` ! +.} M b y b e u F F S g e 0 $ . = :.>.5.&.~ :.=.) S b ] ~ 0 $ ",
"- 3.$.3.o.` T S c ! +.o./ n q . - 6.3.[ h h q . * +.+.o.] ) H ! +.+.} n j M b w 5 5 7 i > > $ . - 6.5.&.! @.:.:.=.) P ] ) B $ ",
"= ;.X.E E ! [ f 7 c W ] / M i . - 5.;. .D b 4 . * @.;.o.] | 3. .U +.] e y M n g 0 > < 0 > > $ . - 5.;.X.! +.@.:.=.) F F F B $ ",
"= ;.} n c U n  .F P ~ r g e 4 . = ;.[ h h g 4 . * @.>.>.T 6.3.] r h h g e w 5 5 3 > , 6 0 > $ . - 5.;.$.3.+. .H Y M N F Z 0 $ ",
"* +.X.E U c I r g r j n j n q . = ;.X.Y n h q . * +.@.>.3. .P ~ r h h g e 0 > 2 M n i , 3 < 4 . - 6.6.1.[  .F D N F D n i 1 q ",
"* o.) F F F F D M M M N F F m ; * X.T F F F m ; * +.o.[ o.) F F F F F D n g e u F F F Z e y k ; - 3.+. .P [  .F F F F D M N c ",
"a E E T F F F F F F F F F F A : a E T F F F A : s %.7.E E E E T F F F F F F F F F F F F F F A : d ,.E T F F F F F F F F F F m ",
"L L L L L L L L L L L L L L L L L L L L L L L L L L L L L L L L L L L L L L L L L L L L L L L L L L L L L L L L L L L L L L K "
};
