/* XPM */
static char *result[] = {
/* columns rows colors chars-per-pixel */
"64 64 58 1 ",
"  c gray12",
". c #2C1F2C",
"X c #242424",
"o c #282728",
"O c #2B2B2B",
"+ c #342334",
"@ c #302F30",
"# c #343434",
"$ c #3D303D",
"% c #3C3C3C",
"& c #533D51",
"* c #444444",
"= c #484342",
"- c #4D4B46",
"; c #4C4C4C",
": c #524D4B",
"> c #50504F",
", c #524352",
"< c #544B54",
"1 c #535353",
"2 c #5D5652",
"3 c #5B5B5B",
"4 c #655B65",
"5 c #6C5D6C",
"6 c #646464",
"7 c #6A6662",
"8 c #6E6A64",
"9 c #6C6C6C",
"0 c #706E70",
"q c #747474",
"w c #7B7B7B",
"e c #87817D",
"r c #857584",
"t c #8B7C8B",
"y c #848484",
"u c #8D8680",
"i c #898887",
"p c #8C8C8C",
"a c #918F90",
"s c #9D8B9D",
"d c #939393",
"f c #989797",
"g c #999897",
"h c #9B9B9B",
"j c #A492A4",
"k c #A19FA1",
"l c #A891A8",
"z c #A3A3A3",
"x c #ABABAB",
"c c #B3A1B4",
"v c #B4B4B4",
"b c #B8B7B6",
"n c #BBBBBB",
"m c #C3C3C3",
"M c #CCCCCC",
"N c #D2D2D2",
"B c #DBDBDB",
"V c #E2E2E2",
/* pixels */
"+#O#O#@#O#@*%***%*****%*%*%#O%%*%*%*%*%*%%O@O#O#O#@#O#O#@#O#@#@#",
"::1>>>>>>>1hmmmmmmmmmmmmmMv1%9dzxvvvvvxzhw1#%*;>;;;;;;;;>;;;;;;>",
"23333331113vNMMmMNNMNMmMNmd*%qvvzzhhdhddd9*O%3ypppdpwq931>111111",
"rpippiyw**3vMmnmnmmnmmbnmh9#%pnxhhdhdhdhi6%O%wvNNNMMnvxdppppyppp",
"cmmmvzdw**3vMbxzxhxxxxzzxy3@%qzhddhzzzdpw1*O%wmNmnnmNNNmmmnmmmnm",
"lxvxzzi0%*3bmxzzxzhzhzdzzw3@#1pdhzddhhhw31%O%wnmxzzhxxzhhzzzhzhh",
"lzkhzdr9#*3nNxhzhzdhdhddhp3@#;9ppzhhzdhq;%%O%qnnzhdddddhdpdhzhdh",
"jzfkdp01@#1nmzffhxhdypdhdq1##*1qdhppyydq;##O%wmnzddpddpphdhzdpdh",
"ikzddw1*Oo;znxzzdhddpdddhq1#X%;191;*****#XX#*9nMzhppdppdzddpzhpp",
"wpppq3;*O#;dMvzzddddppphp96#X#*%%%####@#OXX%*1zmzddddddppdddhpdp",
"59993;%%Xo*ynxhfpyydhdddhq3*O#*%OOO@@##%#%#%;1zxddpddyyqq9669666",
",<;**OXXX@*9bvddyyyhhdpypw6*O#**>19wpdhhhi9;;1ddwq9663311;;***;;",
".oXooOoOO#;3xmkdpddpddpphp3*O@*9dznMNNMmzw3#*>q9631;;**%%%#O#O#O",
".@o@oo#O#%*1dnzhppphdpdpyq3%OX%pvMMnhzhzpq*O#%%**%%%#%#OXOXXXXXX",
"$%%%%#%%#%;>wvxdhdpppydhp61*O@*dMmxhddppp6%O@OO##O#OO#O%%%%#%%#%",
"<>;*****#%*>9xhzhdhhhphdd96;OX;dNvhphdhdd6*O#*163>#%;>;>>;>>;>>;",
"tdadpappw*@*3hxzdpddypdppq3>OX;dMzdhzdhdp6%O%6hnv9;1qdddddddddhd",
"cnmmnmvkw;@*>yzkkdppppdpww91OX*dnvzdphdhy3*O%pmmz>*qxmNNNNNNNMNM",
"skhzkzzy9;O*;9dhdhhpdwyq693*OX*dvxdw99933;%O*zmxp*;ynMmnvvvvxvvn",
"sdffhddq9*O*;1wpqqq9636331*@X %wdww6;*%%%%#O3vvzy**pmnxzzhzhdddh",
"sddhdhhw3*o%;>3311>;**%OXXX   O9q;*%O XX  XO3vvzy**pnxhdddddyypp",
"dfhfhddq3%O%;*##O#oXXXX XXXXXX#;1;%#@OO%OX@#wnnzp%*yvhhzzhhddpdd",
"ifyypdfq3*o%>63>%%##@OXX*;>1113wpphhdppq1#%3zMvdq**wxxddddddyypp",
"eiyyphp0>%O%qvmmbxhdy3**3whxxvnmNNMNNMnh9#%qnmxhq%*qxzhdhdddywpd",
"ydhhaai6>%o*zmvzzzzhd1;>qvBNNmbnnmnnmnvy3#%wmnzd9%*9zdhpppppddhd",
"tdppdy03*%o*zxffzzhhp;*1pmmxzhzhdzzzzdp9>O%wMvdd6%%;qq6333669qyy",
"466663;%%#o*zvzzdzdhq%*>pMnzzdphzdpdhdd9;O%wMvzd6#*#%********>33",
",**&%%oXXoo*zzzhzzdy6#%;pMzzhdhdpyphddp6;@%wmxzd3#*%OXXXXOXOO#%%",
"+OOO#@@%#**1xvhphhhy6##;pMxdhppyyyppphd6;@%wMvzd3#**%#%%%%O#OXXO",
"&360yppiyy1*xxaadhpy9*O*ymvhppypyyhyppd6*O%wmxzh6%*>1331>1;>;%%%",
"6uzmMMMmnxq;zvkdyphp9*O*ymnzdhddywpyphp6*O%ynzdd6#;pvnxdq63331*;",
"7hmMmnxxzh3*xxhhpdhhq;#*qvmvddypyyddhdw3%O%wnvhp3#;xhhvmMnmmnp1>",
"9vnvxdzhhp9;xxzhhzdhw1O#3zMnzhdhphyyphw3%O*wnxzp3#;xzpzxhhzzdw>;",
"6vnzdhhhdhq;xxdhzhhp91OO>hNnxhddypyyhpq>%O*wnxzp6#;xvzddzhdhd9;*",
"9vvhhhzzdd6*xvzzdddhq1@#;yMmxhhppdpddh9;O#;wnxdd6#;zxhzhddhhh9**",
"9vvzhdhhhp3*znddphzdq1@X*9vnxdpppddddy9*OO*wvhd9>#;hxzzhhpdhd9**",
"9vbzzzhhhd6%hmhhhddp91#X%3hMvddddpdyw91*O#*9dw3*%%*phdhdpdpyd6*%",
"9bnxhhhhhd6%dmhhdddhq3OX#1wzzdy9631;**%#O#*>;*****#33;1113111>%%",
"8bvhhzdhdd6%wnzdhhppq3@X#*3qw93;%OXXX  XX#*;;*;;;>;%OOOOOOOOOOO#",
"8vbhdhhhhp6#9nvhzddhq1O O*;*#%OXOX@O#OX#O#*>1>;>>;>;;*%**%%*%%%%",
"8bnxhdgzhd6#3vxhdphpq1OX@**;******;;*;;;;;>36qwwwwwwwwwwwwwww9;*",
"8bvzghdhdw>#;nvdpyddq3# X%3qwwwwwwwwwwwypppdzxvnnnnnnnnnnvnvvy;;",
"6xbzzhhhd6#O>nxhhdpp93%OX#9zvnvnnmmnmnnnmmMNBVVVVVVVVVVVNNNMh9%*",
"6vbzhgzzp3##>vxhpdpdq1*X O9vMBVVVVBNBVBBVVVVBBNMmnnmvvvmnnnvp6#%",
"6hxxhhppy3##>vxzdhdp93%O O6xmmmnmnmvnnnnmnnvvzzhhzhzdddzdzhhw3%%",
"1hhhhdwq9>@#>zhdhdhdq3%O X3zMnzdpddhhhzzhdhxxzdypphzhphhzxhdq1##",
";dhhgy61>#O#;dzddhhyq3%O X*zNmhdphddddzdddzzddpddpppdddhdhdhq3*%",
";9w96331;###;ydhpyyq61%O  #dMMvhdpdpypphdddhhppphdpddywpyddpq3##",
"**#@O*;;;@#%;69666661>%O X%pMMzdhdhpphdyydddhdhddhppyppyhdywq3@#",
"-;;*%@OOo@%%%*%%%%%%%%#X  @qvvzpphddpppdypdpphdpyppdphdyppyw93##",
"*>111>;*@O%**%OXXX XXXX   #9pqq9999qpphhppyyypyypddddphyppppq3@#",
";9fzzzdi0311*%Oo#XX#XXOO#O%>1;%#%#%#>9qqywwqqwqwwwwwwqwwqwqw6>O#",
"-pbmNMMNnzzaq631;*******%**>;*%%%%%##*;11111113111111111>11>;###",
"-dmnxzvMNNNmxxxzzzzhdpywwq996331;***#########O#O#OXXOXXOXOXOXO#%",
",dMbxxxxkxbmMMMMMNMMMMMnnnvxzzzhy1;;*#%%%#%##OX#O@O@O@X@O#O##%*;",
",dmvgkpihhddzhkkzhzxhzzzxxnmMMMxy;*;;;1;;*#%%%%%%%%%%%%%#%#%**;>",
";dnvzzdhfdadzpdgpwphpppdzdzzxvxy9%%*1pvnzy631;1;131113133>1;1111",
"<pvzddywpfpfzdyypyyypyddhddphhdq1##*1xnnmMMnz913dnmmmmmnnvzdy3;;",
";ipq6666666666666666666666666663>%O#>xvvnvvvxq6wvvxxzxhzzzhzvp*;",
",q9**%%%%%*%%%%%%%%%%%%%%%%%%%%%%#XX;phzzdwyy93hxhhdzzzdhhzdh9#*",
"=*#ooXXX XXXoXXXXXXXXXXXXXXXXXXXXXXX%;>;1636631zhddhhddhddhpy3#*",
"-;%%#@#oX#oX#XX@O@XX@XXOXX@XXOXXOOOO%;>*%#OOOO%33311311111311;#;",
"-;;;********%##%#%%##%#%%##%#%%#%%%%%;>;;%%###%*;#OOOXOOOOOXOOX*",
"*&%%%%%%%%%%%%%%%%%%%%%%%%%%%%%%%%%%%%%%%%%%%%%%%%%#%###%#%###%%"
};
